<?xml version="1.0" encoding="utf-8"?>
<!DOCTYPE svg PUBLIC "-//W3C//DTD SVG 1.0//EN" "http://www.w3.org/TR/2001/REC-SVG-20010904/DTD/svg10.dtd">
<svg version="1.0" xmlns="http://www.w3.org/2000/svg" width="500px" height="500px" viewBox="0 0 500 500" preserveAspectRatio="xMidYMid meet">
 <g fill="#fdfbfb">
  <path d="M0 250 c0 -250 0 -250 250 -250 250 0 250 0 250 250 0 250 0 250 -250 250 -250 0 -250 0 -250 -250z m187.84 57.37 c5.57 -1.66 10.16 -6.45 11.57 -12.06 0.63 -2.54 0.63 -3.47 -0.24 -10.01 -0.54 -3.96 -2.39 -18.65 -4.10 -32.62 -1.76 -13.96 -3.37 -27.10 -3.66 -29.15 -0.73 -6.10 -2.49 -8.98 -6.79 -11.52 -2.15 -1.27 -2.64 -1.32 -9.62 -1.46 -7.37 -0.20 -7.37 -0.20 -7.67 -4.39 -0.59 -7.71 -2.93 -13.28 -7.67 -18.02 -3.76 -3.76 -7.23 -5.76 -12.21 -7.03 -3.91 -0.98 -4.30 -1.03 -7.86 -0.29 -4.88 0.93 -9.28 3.08 -12.70 6.15 -5.47 4.88 -8.15 10.60 -8.69 18.60 -0.29 4.64 -0.29 4.64 -7.86 4.88 -6.54 0.24 -7.86 0.44 -9.57 1.32 -2.54 1.37 -5.22 4.39 -5.96 6.84 -0.34 1.03 -2.15 14.06 -4 28.96 -1.90 14.89 -3.91 30.47 -4.39 34.57 -1.32 9.96 -1.27 12.40 0.24 15.63 1.66 3.61 3.37 5.66 6.15 7.47 4.59 2.93 2.73 2.83 49.56 2.83 36.96 0.05 43.31 -0.05 45.46 -0.68z m26.42 -0.10 c0.29 -0.54 0.49 -24.66 0.49 -58.30 0.05 -54.98 0.05 -57.47 -0.83 -58.25 -1.03 -0.93 -2 -0.68 -2.98 0.83 -0.59 0.93 -0.73 5.71 -0.73 31.01 -0.05 28.56 0 29.88 0.83 29.88 0.78 0 0.88 0.54 0.88 6.10 0 5.76 -0.05 6.10 -0.98 6.10 -0.88 0 -0.98 0.34 -0.98 3.17 0 2.83 0.10 3.17 0.98 3.17 0.88 0 0.98 0.34 0.98 2.93 0 2.20 -0.20 2.93 -0.68 2.93 -1.07 0 -1.27 1.17 -1.27 7.37 0 5.47 0.05 5.81 0.98 5.81 0.93 0 0.98 0.34 0.98 5.86 0 5.52 -0.05 5.86 -0.98 5.86 -0.54 0 -0.98 0.34 -0.98 0.73 0 0.44 0.44 0.73 1.03 0.73 0.98 0 1.03 0.20 0.78 2.44 -0.29 2.34 -0.24 2.44 0.88 2.44 0.63 0 1.37 -0.39 1.61 -0.83z m26.46 -21.19 c0 -12.70 0 -12.70 1.76 -12.55 1.76 0.15 1.76 0.15 4.39 6.74 1.46 3.61 3.66 9.28 4.88 12.60 2.29 5.96 2.29 5.96 5.62 5.96 2.05 0 3.37 -0.20 3.37 -0.54 0 -0.29 2.15 -6.10 4.74 -12.94 4.79 -12.40 4.79 -12.40 6.35 -12.40 1.61 0 1.61 0 1.71 12.84 0.15 12.79 0.15 12.79 4.20 12.94 4 0.15 4 0.15 4 -21.39 0 -21.48 0 -21.48 -5.08 -21.48 -5.08 0 -5.08 0 -8.64 8.69 -10.11 24.51 -8.79 21.83 -10.74 21.97 -1.76 0.15 -1.76 0.15 -8.11 -15.14 -6.40 -15.28 -6.40 -15.28 -11.57 -15.43 -5.18 -0.15 -5.18 -0.15 -5.18 21.39 0 21.48 0 21.48 4.15 21.48 4.15 0 4.15 0 4.15 -12.74z m54 8.84 c1.42 -3.91 1.42 -3.91 11.52 -3.91 10.06 0 10.06 0 11.38 3.91 1.32 3.91 1.32 3.91 5.32 3.91 4.05 0 4.05 0 -3.76 -21.48 -7.81 -21.48 -7.81 -21.48 -12.84 -21.48 -4.98 0 -4.98 0 -5.47 1.37 -3.22 8.84 -14.75 40.09 -14.99 40.77 -0.29 0.73 0.05 0.83 3.56 0.83 3.91 0 3.91 0 5.27 -3.91z m44.63 -4.39 c0 -8.30 0 -8.30 2.88 -8.30 2.83 0 2.83 0 7.32 7.96 2.44 4.35 4.49 8.11 4.59 8.30 0.05 0.20 1.90 0.34 4.10 0.24 4 -0.15 4 -0.15 -0.15 -7.37 -3.47 -6.01 -4.15 -7.52 -4 -8.98 0.15 -1.51 0.39 -1.86 1.76 -2.29 2.10 -0.73 5.18 -3.66 6.54 -6.25 1.46 -2.83 1.46 -7.18 0 -9.96 -1.61 -3.13 -5.13 -5.91 -8.84 -7.03 -2.83 -0.88 -4.39 -0.98 -12.99 -0.88 -9.77 0.15 -9.77 0.15 -9.91 21.53 -0.10 21.34 -0.10 21.34 4.30 21.34 4.39 0 4.39 0 4.39 -8.30z m47.36 -10.25 c0 -18.55 0 -18.55 5.86 -18.55 5.86 0 5.86 0 5.86 -2.93 0 -2.93 0 -2.93 -16.11 -2.93 -16.11 0 -16.11 0 -16.11 2.93 0 2.93 0 2.93 5.18 2.93 2.83 0 5.57 0.24 6.10 0.49 0.88 0.49 0.93 1.22 0.93 18.55 0 18.07 0 18.07 4.15 18.07 4.15 0 4.15 0 4.15 -18.55z m-59.28 -39.79 c0.20 -0.44 0.93 -0.73 1.95 -0.73 0.93 0 1.66 -0.20 1.66 -0.49 0 -0.24 0.54 -0.49 1.17 -0.49 1.51 0 5.18 -2.44 8.20 -5.42 2.59 -2.59 4.79 -6.54 4.79 -8.69 0 -0.83 0.29 -1.51 0.73 -1.71 0.63 -0.20 0.68 -0.78 0.44 -2.78 -0.39 -2.93 0 -3.37 3.08 -3.37 2.05 0 2.05 0 2.83 2.83 0.44 1.51 1.17 4.20 1.56 5.96 1.46 6.20 2.78 10.25 3.37 10.25 0.34 0 0.78 0.93 0.93 2.10 0.29 2 0.39 2.10 1.81 1.90 0.78 -0.15 3.08 0.05 5.03 0.39 1.95 0.34 4.10 0.49 4.74 0.34 1.42 -0.39 2.49 -2.69 3.52 -7.67 1.42 -7.03 2.29 -10.50 3.13 -12.30 0.73 -1.56 1.07 -1.86 2.44 -1.86 1.03 0 1.56 0.24 1.56 0.68 0 0.39 0.20 0.78 0.39 0.88 0.39 0.15 1.42 3.76 4.35 15.43 0.44 1.66 1.03 3.37 1.32 3.71 0.68 0.83 4.20 1.51 4.20 0.78 0 -0.29 1.27 -0.49 3.17 -0.49 2.20 0 3.17 0.20 3.17 0.63 0 0.44 0.10 0.44 0.39 0.05 0.20 -0.34 0.88 -0.68 1.51 -0.73 1.42 -0.24 1.66 -0.93 2.78 -7.76 0.39 -2.54 0.93 -4.74 1.12 -4.88 0.20 -0.15 0.54 -1.42 0.68 -2.88 0.20 -1.46 0.54 -2.78 0.83 -2.98 0.63 -0.39 2.44 -7.76 2.44 -10.06 0 -0.93 0.20 -1.66 0.44 -1.66 0.54 0 2 -5.81 2 -7.96 0 -0.98 0.29 -1.81 0.68 -1.95 0.34 -0.15 0.83 -1.07 0.98 -2.05 0.54 -2.83 -0.10 -3.22 -5.27 -3.08 -4.44 0.15 -4.44 0.15 -4.59 2.98 -0.10 1.90 -0.34 2.78 -0.78 2.78 -0.49 0 -0.73 1.22 -0.88 4.35 -0.24 4.30 -0.88 5.91 -2.29 5.91 -0.29 0 -0.54 0.10 -0.54 0.20 0 0.10 -0.15 0.54 -0.29 0.98 -0.20 0.54 -0.05 0.78 0.49 0.78 0.83 0 0.98 1.03 0.49 4.05 -0.29 1.66 -0.44 1.81 -1.95 1.81 -0.93 0 -1.66 -0.20 -1.66 -0.49 0 -0.24 -0.44 -0.49 -0.93 -0.49 -0.59 0 -1.22 -0.59 -1.61 -1.46 -0.34 -0.78 -0.78 -1.46 -0.93 -1.46 -0.44 0 -0.88 -1.61 -1.42 -4.88 -0.24 -1.46 -0.88 -4 -1.42 -5.62 -0.54 -1.61 -1.32 -4.20 -1.76 -5.71 -0.68 -2.59 -0.88 -2.83 -2.59 -3.32 -0.98 -0.24 -3.47 -0.49 -5.52 -0.49 -3.71 0 -3.71 0 -4.35 2.93 -0.39 1.90 -0.88 2.93 -1.32 2.93 -0.49 0 -0.54 0.24 -0.15 0.93 0.24 0.54 0.49 1.61 0.49 2.44 0 1.17 -0.20 1.51 -0.98 1.51 -1.12 0 -1.12 0 -0.98 4.79 0.10 3.27 0 3.52 -0.93 3.52 -0.59 0 -1.03 0.24 -1.03 0.49 0 0.29 0.24 0.49 0.49 0.49 0.29 0 0.49 0.78 0.49 1.71 0 1.90 0 1.90 -4.25 1.42 -2.05 -0.24 -2.59 -0.54 -2.59 -1.22 0 -2.15 -2.29 -9.23 -2.98 -9.23 -0.24 0 -0.44 -1.03 -0.39 -2.29 0.10 -2.78 -1.27 -8.35 -2.34 -9.52 -0.63 -0.73 -1.61 -0.88 -4.88 -0.88 -3.91 0 -4.05 0.05 -4.05 1.12 0 0.63 -0.15 1.32 -0.34 1.51 -0.20 0.20 -0.29 1.76 -0.20 3.52 0.15 3.13 0.15 3.13 -1.32 3.13 -2.29 0 -4.49 -0.59 -4.49 -1.17 -0.05 -0.29 -0.73 -1.07 -1.56 -1.76 -0.83 -0.68 -2.05 -1.71 -2.69 -2.29 -2.20 -1.95 -8.30 -4.15 -12.30 -4.39 -8.40 -0.54 -15.04 2.78 -20.61 10.30 -2.15 2.88 -2.15 2.93 -2.29 7.47 -0.20 4.10 -0.29 4.54 -1.12 4.54 -1.03 0 -1.12 0.78 -0.59 4.64 0.20 1.71 0.54 2.39 1.22 2.59 0.83 0.20 0.88 0.63 0.78 3.96 -0.15 3.71 -0.15 3.71 -7.32 3.71 -3.91 0 -7.32 -0.15 -7.52 -0.39 -0.20 -0.20 -0.44 -1.56 -0.59 -3.03 -0.10 -1.46 -0.39 -2.69 -0.63 -2.69 -0.24 0 -0.44 -0.88 -0.44 -1.95 0 -1.07 0.24 -1.95 0.49 -1.95 0.29 0 0.49 -0.44 0.49 -0.98 0 -0.54 -0.20 -0.98 -0.49 -0.98 -0.29 0 -0.49 -1.32 -0.49 -2.93 0 -1.61 0.20 -2.93 0.49 -2.93 0.29 0 0.49 -0.78 0.49 -1.71 0 -0.93 -0.20 -1.71 -0.49 -1.71 -0.29 0 -0.49 -2.83 -0.49 -7.52 0 -7.47 0 -7.47 -1.81 -7.81 -2.83 -0.44 -6.45 -0.34 -7.52 0.20 -0.78 0.44 -0.93 1.07 -0.93 3.96 0 4.39 -0.49 5.32 -2.78 5.32 -1.51 0 -2.10 -0.39 -4.54 -3.08 -7.86 -8.59 -21.34 -9.52 -30.37 -2.15 -1.95 1.61 -2.34 2.15 -2.34 3.56 0 1.42 -0.15 1.66 -1.17 1.66 -1.76 0 -2.44 1.27 -2.78 5.27 -0.15 2.10 -0.54 3.81 -0.88 3.91 -0.29 0.10 -0.54 0.59 -0.54 1.12 0 0.49 -0.34 0.93 -0.73 0.93 -0.49 0 -0.73 0.49 -0.73 1.66 0 3.03 0.54 4.69 1.51 4.69 0.78 0 0.93 0.39 0.93 2.20 0 1.22 0.24 2.20 0.49 2.20 0.29 0 0.49 0.54 0.49 1.17 0 1.71 0.49 2.73 1.27 2.73 0.39 0 0.68 0.39 0.68 0.93 0 0.49 1.03 1.86 2.34 3.03 5.08 4.74 9.96 6.79 16.21 6.79 3.52 0 7.81 -1.07 8.98 -2.20 0.39 -0.39 1.03 -0.73 1.37 -0.73 1.03 0 5.96 -3.61 6.54 -4.83 1.17 -2.34 2.59 -3.47 4.35 -3.47 1.71 0 1.71 0 1.71 4.59 0 2.54 0.10 4.93 0.24 5.32 0.24 0.49 0.93 0.63 2.78 0.44 1.37 -0.15 4 0.05 5.91 0.39 2.54 0.44 3.52 0.49 3.66 0.05 0.24 -0.68 8.40 -0.73 8.40 -0.05 0 0.29 0.54 0.49 1.22 0.49 0.68 0 1.22 -0.20 1.22 -0.49 0 -0.24 0.54 -0.49 1.17 -0.49 0.98 0 1.22 -0.29 1.46 -2.20 0.20 -1.22 0.54 -2.20 0.83 -2.20 0.24 0 0.44 -0.44 0.44 -0.98 0 -1.61 3.03 -1.32 5.62 0.54 1.17 0.83 2.25 1.86 2.39 2.20 0.15 0.39 0.68 0.68 1.22 0.68 0.54 0 1.03 0.24 1.12 0.49 0.24 0.83 8.20 2.88 11.28 2.88 2.05 0.05 2.88 -0.15 3.08 -0.68z"/>
  <path d="M96.29 302.69 c-1.86 -0.73 -3.66 -2.34 -4.83 -4.25 -1.81 -2.93 -1.51 -7.67 2.49 -39.16 2 -15.72 3.91 -30.76 4.20 -33.45 1.12 -10.16 1.42 -10.50 10.30 -10.50 6.98 0 8.45 0.39 9.23 2.59 0.24 0.83 0.49 5.66 0.49 11.13 0 9.72 0 9.72 2.44 9.72 2.44 0 2.44 0 2.44 -10.79 0 -6.49 0.20 -11.13 0.49 -11.72 0.49 -0.88 1.17 -0.93 14.16 -0.93 13.67 0 13.67 0 13.67 -2.44 0 -2.44 0 -2.44 -14.21 -2.44 -14.21 0 -14.21 0 -14.01 -5.71 0.15 -4.93 0.39 -6.15 1.46 -8.54 1.90 -4.10 5.08 -7.28 9.28 -9.23 3.32 -1.51 3.91 -1.61 8.69 -1.66 3.91 0 5.76 0.24 7.67 0.93 3.42 1.27 6.88 3.96 8.79 6.84 2.98 4.39 3.08 5.27 3.08 26.51 0 19.19 0 19.19 2.69 19.19 2.69 0 2.69 0 2.69 -11.72 0 -11.72 0 -11.72 7.81 -11.72 11.52 0 10.21 -2.34 13.48 24.17 1.46 11.82 3.52 28.42 4.64 36.87 2.10 16.31 2.15 18.65 0.34 22.12 -0.54 1.12 -1.86 2.44 -3.17 3.32 -2.29 1.42 -2.29 1.42 -47.71 1.37 -27.15 0 -45.90 -0.20 -46.58 -0.49z m36.28 -11.28 c4.39 -0.15 4.39 -0.15 4.54 -1.95 0.10 -1.03 0.34 -1.86 0.54 -1.86 0.24 0 0.29 -0.98 0.15 -2.20 -0.24 -2.20 -0.24 -2.20 3.52 -2.20 3.76 0 3.76 0 3.61 2.83 -0.10 3.08 0.78 4.93 2.93 5.91 1.42 0.68 5.96 0.68 5.96 0.05 0 -0.24 1.03 -0.49 2.25 -0.49 1.90 0 2.49 -0.24 3.66 -1.51 0.88 -0.98 1.42 -2.05 1.42 -2.93 0 -0.78 0.24 -1.42 0.49 -1.42 0.29 0 0.49 -0.63 0.49 -1.46 0 -0.78 -0.20 -1.46 -0.49 -1.46 -0.24 0 -0.49 -0.83 -0.49 -1.81 0 -2.59 -1.86 -5.71 -3.52 -5.91 -1.42 -0.20 -1.86 -1.12 -1.86 -4.35 0 -1.17 -0.20 -2.10 -0.49 -2.10 -0.24 0 -0.49 -0.54 -0.49 -1.17 0 -1.37 -2.25 -3.22 -3.86 -3.22 -0.78 0 -1.03 0.29 -1.03 1.17 0 0.63 -0.29 1.32 -0.59 1.46 -0.49 0.24 -0.49 0.34 0 0.59 0.29 0.15 0.59 0.88 0.59 1.66 0 2.49 0.88 3.96 2.93 4.79 1.76 0.78 1.95 0.98 1.95 2.69 0 1.22 -0.20 1.81 -0.68 1.81 -0.39 0 -0.78 0.29 -0.93 0.63 -0.59 1.61 -3.56 2.29 -9.96 2.39 -6.69 0.05 -12.11 -0.88 -13.13 -2.29 -0.29 -0.39 -0.78 -0.73 -1.12 -0.73 -0.29 0 -0.54 -0.73 -0.54 -1.66 0 -1.32 0.24 -1.71 1.12 -1.95 1.71 -0.39 3.76 -2.20 3.76 -3.22 0 -0.49 0.29 -0.98 0.68 -1.12 0.34 -0.15 0.88 -1.12 1.12 -2.15 0.88 -3.42 -1.42 -5.13 -4.25 -3.27 -2.10 1.42 -2.34 2.05 -2.10 5.13 0.24 2.25 0.15 2.88 -0.39 2.88 -0.73 0 -1.90 2.15 -1.90 3.52 0 0.54 -0.73 1.22 -1.81 1.71 -1.51 0.73 -1.95 1.27 -2.49 3.27 -0.83 2.93 -0.49 4.93 1.42 7.76 1.37 2.10 3.81 3.61 4.35 2.73 0.15 -0.24 2.25 -0.44 4.64 -0.54z m10.50 -21.14 c0.49 -0.63 0.44 -0.73 -0.44 -0.73 -0.59 0 -1.03 0.29 -1.03 0.73 0 0.39 0.20 0.73 0.44 0.73 0.24 0 0.68 -0.34 1.03 -0.73z m-16.60 -16.16 c0 -0.54 0.78 -1.27 4.79 -4.64 0.63 -0.49 0.93 -0.93 0.63 -0.93 -0.29 0 -0.54 -0.34 -0.54 -0.73 0 -2.05 -3.86 -3.71 -6.35 -2.78 -0.68 0.29 -1.95 1.12 -2.83 1.95 -1.27 1.17 -1.56 1.86 -1.56 3.42 0 1.07 -0.24 2.05 -0.54 2.15 -0.83 0.29 0.68 3.03 2.34 4.20 1.37 0.98 1.37 0.98 2.69 -0.54 0.73 -0.88 1.32 -1.81 1.37 -2.10z m35.69 1.90 c3.03 -3.27 2.98 -5.32 -0.24 -8.69 -2.69 -2.78 -4.10 -3.13 -6.98 -1.66 -3.71 1.95 -3.71 2.39 -0.24 5.57 1.66 1.56 3.47 3.52 4.05 4.44 1.22 2 1.76 2.05 3.42 0.34z"/>
  <path d="M299.61 284.77 c-0.68 -0.68 -0.10 -3.37 2.29 -10.60 2.64 -7.81 2.64 -7.81 4.35 -7.96 1.76 -0.15 1.76 -0.15 4.30 7.42 1.71 5.13 2.44 8.15 2.34 9.42 -0.15 1.86 -0.15 1.86 -6.59 1.90 -3.52 0.05 -6.54 -0.05 -6.69 -0.20z"/>
  <path d="M339.36 269.24 c0 -7.13 0 -7.13 6.25 -6.93 6.40 0.20 7.62 0.54 8.89 2.49 0.98 1.61 1.17 6.20 0.34 8.20 -1.12 2.69 -3.08 3.37 -9.81 3.37 -5.66 0 -5.66 0 -5.66 -7.13z"/>
  <path d="M246.34 229.74 c-4.39 -1.56 -6.45 -6.30 -6.01 -14.06 0.20 -3.61 0.39 -4.35 1.51 -5.71 0.73 -0.83 1.32 -1.71 1.32 -1.90 0 -0.20 0.98 -1.07 2.15 -1.90 1.81 -1.32 2.69 -1.56 5.96 -1.86 4.54 -0.34 7.32 0.59 9.91 3.32 0.83 0.88 1.51 1.32 1.51 1.03 0 -0.44 1.07 -0.63 3.66 -0.63 3.66 0 3.66 0 3.66 1.71 0 1.37 -0.20 1.71 -0.98 1.71 -0.68 0 -0.98 0.34 -0.98 1.17 0 1.51 -1.27 1.76 -9.77 1.76 -3.71 0 -7.08 0.15 -7.52 0.29 -0.59 0.24 -0.78 1.03 -0.78 3.37 0 4.35 0.20 4.64 2.88 4.64 1.22 0 3.71 0.15 5.57 0.34 3.27 0.29 3.27 0.29 3.27 2.05 -0.05 2.10 -0.68 3.03 -3.08 4.39 -1.46 0.83 -2.64 1.03 -6.10 1.03 -2.39 -0.05 -5.13 -0.34 -6.20 -0.73z"/>
  <path d="M318.12 229.83 c-0.78 -0.29 -1.61 -0.78 -1.76 -0.98 -0.20 -0.24 -0.83 -0.68 -1.46 -0.98 -0.59 -0.34 -1.66 -1.66 -2.34 -3.03 -1.12 -2.15 -1.27 -2.98 -1.27 -7.76 0 -3.86 0.20 -5.37 0.63 -5.52 0.29 -0.15 0.59 -0.68 0.59 -1.22 0 -1.37 2.73 -3.86 5.86 -5.27 1.46 -0.68 2.78 -1.37 2.83 -1.56 0.24 -0.59 3.52 -0.44 3.52 0.10 0 0.29 0.39 0.49 0.88 0.49 0.44 0 1.46 0.34 2.25 0.73 0.73 0.39 1.76 0.73 2.20 0.73 1.12 0 2.59 1.66 4.05 4.39 0.98 1.95 1.12 2.88 1.12 7.86 0 5.32 -0.05 5.76 -1.37 7.67 -0.73 1.12 -2.20 2.64 -3.27 3.32 -1.71 1.12 -2.54 1.32 -6.49 1.46 -2.69 0.10 -5.08 -0.10 -5.96 -0.44z"/>
 </g>
 <g fill="#f58a06" stroke="#f58a06" stroke-width="0.488">
  <path d="M213.38 310.11 c0 -0.24 -0.44 -0.34 -0.98 -0.20 -2.05 0.54 -4.69 -2.69 -2.78 -3.42 0.39 -0.20 0.39 -0.29 -0.10 -0.29 -0.54 -0.05 -0.49 -0.24 0.24 -0.78 0.78 -0.63 0.78 -0.68 0.10 -0.44 -0.78 0.24 -0.88 -0.05 -0.88 -2.98 0 -2.49 0.15 -3.22 0.63 -3.03 0.39 0.15 0.63 -0.15 0.68 -0.83 0 -0.54 -0.05 -0.73 -0.20 -0.39 -0.39 1.03 -1.12 0.63 -1.12 -0.63 0 -1.27 0.73 -1.66 1.12 -0.59 0.15 0.29 0.24 -0.73 0.24 -2.34 0 -1.61 -0.10 -2.64 -0.24 -2.29 -0.78 2 -1.12 -0.34 -1.12 -7.96 0 -7.28 0.10 -8.54 0.73 -8.54 0.49 0 0.73 -0.49 0.68 -1.56 0 -0.88 -0.15 -1.32 -0.29 -0.98 -0.73 1.76 -1.12 -0.05 -1.12 -5.03 0 -4.98 0.39 -6.79 1.12 -4.98 0.15 0.29 0.24 -0.20 0.24 -1.12 0 -0.93 -0.10 -1.42 -0.24 -1.07 -0.49 1.27 -1.12 0.49 -1.12 -1.37 0 -1.22 0.24 -1.95 0.63 -1.95 0.39 0 0.34 -0.20 -0.15 -0.49 -0.63 -0.39 -0.59 -0.49 0.15 -0.49 0.59 0 0.83 -0.39 0.78 -1.32 0 -0.78 -0.15 -1.07 -0.29 -0.73 -0.93 2.39 -1.12 -2.39 -1.12 -31.54 0 -31.69 0 -32.18 0.98 -33.20 1.27 -1.37 4.39 -1.46 5.52 -0.20 0.73 0.83 0.83 5.76 0.78 59.67 0 32.28 -0.15 59.03 -0.29 59.38 -0.29 0.78 -2.59 2.34 -2.59 1.71z"/>
  <path d="M146 293.41 c-0.93 -0.54 -1.51 -0.93 -1.27 -0.93 0.24 0 0.05 -0.44 -0.39 -0.93 -0.63 -0.68 -0.83 -1.66 -0.73 -3.66 0.05 -1.51 -0.05 -2.88 -0.20 -3.08 -0.20 -0.15 -0.34 -0.05 -0.34 0.24 0 0.34 -0.39 0.59 -0.83 0.59 -0.73 0 -0.78 -0.10 -0.15 -0.49 0.54 -0.34 0.24 -0.49 -1.12 -0.49 -1.66 0 -1.81 0.10 -1.32 0.93 0.24 0.54 0.39 1.46 0.29 2.10 -0.15 0.63 -0.24 1.32 -0.24 1.51 -0.05 0.24 -0.29 0.24 -0.59 0.05 -0.39 -0.24 -0.39 -0.05 0 0.68 0.44 0.83 0.34 1.22 -0.54 2.20 -1.07 1.17 -3.81 2.20 -3.81 1.46 0 -0.24 -0.78 -0.39 -1.71 -0.44 -0.93 0 -1.56 0.15 -1.42 0.39 0.39 0.59 -4.79 0.49 -6.54 -0.15 -0.93 -0.34 -2.10 -1.37 -3.03 -2.78 -1.32 -2 -1.46 -2.59 -1.46 -6.30 0 -4.59 0.88 -7.47 2.29 -7.47 0.73 0 0.78 -0.10 0.15 -0.54 -0.59 -0.39 -0.49 -0.44 0.49 -0.34 1.07 0.15 1.22 -0.05 1.12 -1.17 -0.05 -0.93 0.15 -1.37 0.63 -1.37 0.39 0 0.68 -0.44 0.68 -0.98 0 -0.59 0.34 -0.98 0.78 -0.98 0.63 0 0.73 -0.29 0.44 -1.32 -0.15 -0.73 -0.54 -1.51 -0.83 -1.66 -0.93 -0.59 1.12 -3.86 3.22 -5.08 2.73 -1.61 5.03 -1.51 6.79 0.34 1.32 1.42 1.71 3.17 0.93 4.10 -0.24 0.24 -0.68 1.37 -1.03 2.54 -0.34 1.27 -0.78 1.95 -1.12 1.76 -0.34 -0.24 -0.39 -0.10 -0.20 0.24 0.54 0.83 -1.03 2.44 -3.37 3.52 -1.07 0.49 -1.66 0.93 -1.27 0.93 0.39 0 0.93 0.34 1.22 0.78 0.29 0.39 2.54 1.17 4.93 1.76 5.96 1.32 10.35 1.03 14.79 -1.07 3.27 -1.51 3.27 -1.51 0.63 -2.83 -2.29 -1.12 -2.73 -1.61 -3.47 -3.61 -0.63 -1.61 -0.68 -2.34 -0.29 -2.54 0.29 -0.10 0.20 -0.24 -0.24 -0.24 -1.07 -0.05 -1.71 -2.49 -0.83 -3.03 0.49 -0.34 0.49 -0.44 0.05 -0.44 -0.34 0 -0.63 -0.24 -0.63 -0.54 0 -0.29 0.44 -0.44 0.98 -0.29 0.63 0.15 0.98 0 0.98 -0.44 0 -0.39 -0.24 -0.68 -0.54 -0.68 -0.29 0 -0.20 -0.34 0.20 -0.73 0.54 -0.49 1.42 -0.63 3.13 -0.49 3.22 0.29 3.61 0.39 3.37 0.59 -0.10 0.10 0.34 0.73 1.03 1.42 0.68 0.68 1.07 1.51 0.98 1.86 -0.15 0.39 0.15 0.78 0.73 0.98 0.93 0.20 0.98 0.34 0.34 1.07 -0.44 0.59 -0.49 0.73 -0.05 0.49 0.39 -0.24 0.59 0.10 0.59 1.12 0 0.83 -0.20 1.51 -0.44 1.51 -0.24 0 -0.34 0.44 -0.20 0.98 0.15 0.63 0.68 0.98 1.42 0.98 0.78 0 1.46 0.49 2.10 1.51 0.63 1.03 1.03 1.27 1.22 0.83 0.15 -0.34 0.24 -0.24 0.20 0.34 0 0.54 0.20 1.51 0.44 2.20 0.34 0.83 0.34 1.51 0.05 2.15 -0.34 0.59 -0.34 0.78 0 0.59 0.24 -0.15 0.63 0.10 0.78 0.54 0.44 1.12 -0.20 6.05 -0.73 5.71 -0.24 -0.15 -0.29 0.10 -0.15 0.49 0.44 1.07 -1.61 4.10 -3.32 4.98 -0.83 0.44 -2.10 0.68 -2.88 0.59 -0.73 -0.15 -1.27 -0.05 -1.12 0.20 0.15 0.20 -1.27 0.39 -3.17 0.39 -1.86 0 -3.66 0.10 -4.05 0.20 -0.34 0.10 -1.42 -0.24 -2.34 -0.73z"/>
  <path d="M140.38 272.36 c-1.51 -0.83 -2.83 -2.34 -2.05 -2.34 0.34 0 0.93 0.29 1.32 0.63 0.59 0.49 0.59 0.44 0.05 -0.24 -0.34 -0.49 -0.98 -0.88 -1.32 -0.88 -0.39 0 -0.68 -0.34 -0.68 -0.73 0 -0.88 1.27 -0.98 1.61 -0.10 0.15 0.34 0.29 0.24 0.29 -0.24 0.05 -0.49 -0.20 -0.88 -0.49 -0.88 -0.24 0 -0.34 -0.20 -0.20 -0.49 0.49 -0.78 2.29 -0.59 2.98 0.39 0.63 0.78 0.63 0.78 0.68 0 0 -0.98 1.66 -1.22 2.20 -0.39 0.20 0.29 0.54 0.39 0.78 0.24 0.24 -0.20 0.44 0.44 0.44 1.42 0 1.27 -0.34 1.95 -1.51 2.93 -1.61 1.37 -2.59 1.56 -4.10 0.68z"/>
  <path d="M121.44 258.54 c-0.98 -0.68 -2.15 -1.90 -2.54 -2.69 -0.88 -1.76 -0.98 -4.88 -0.10 -4.88 0.39 0 0.39 -0.15 -0.10 -0.44 -1.07 -0.68 0.63 -4.10 2.83 -5.76 1.56 -1.22 2.25 -1.37 5.52 -1.42 3.47 -0.10 3.81 0 4.88 1.22 0.59 0.68 1.03 1.56 0.98 1.95 -0.10 0.34 0.05 0.49 0.29 0.34 0.54 -0.29 1.07 0.78 1.07 2.05 0 0.49 -0.68 1.37 -1.51 2.05 -3.32 2.64 -4.83 4 -4.83 4.49 0 0.88 -3.08 4.30 -3.86 4.30 -0.44 0 -1.61 -0.54 -2.64 -1.22z"/>
  <path d="M157.47 257.37 c-0.98 -1.32 -3.22 -3.71 -5.03 -5.37 -3.27 -2.98 -3.27 -2.98 -2.29 -4.79 1.95 -3.61 7.86 -5.22 11.38 -3.08 0.83 0.54 1.56 1.22 1.56 1.46 0 0.29 0.20 0.44 0.39 0.29 0.24 -0.15 0.93 0.73 1.51 1.95 0.88 1.76 1.07 2.69 0.83 4.74 -0.39 3.71 -0.39 3.71 -1.37 4.05 -0.49 0.15 -0.88 0.49 -0.88 0.73 0 0.54 -2.93 2.39 -3.81 2.39 -0.29 0 -1.37 -1.07 -2.29 -2.39z"/>
  <path d="M247.27 242.04 c-0.39 -0.20 -0.68 -0.29 -0.68 -0.15 0 0.63 -5.66 -1.81 -8.15 -3.52 -3.52 -2.39 -6.74 -5.66 -6.30 -6.40 0.20 -0.29 0.05 -0.54 -0.29 -0.54 -0.39 0 -1.07 -0.68 -1.56 -1.51 -0.73 -1.27 -0.78 -1.61 -0.24 -1.95 0.54 -0.34 0.54 -0.44 -0.10 -0.44 -1.07 0 -1.66 -1.51 -0.83 -2.05 0.49 -0.29 0.39 -0.39 -0.20 -0.39 -0.49 0 -0.88 -0.29 -0.88 -0.68 0 -0.39 0.39 -0.83 0.88 -0.93 0.63 -0.20 0.63 -0.24 -0.20 -0.29 -1.27 -0.05 -1.66 -1.61 -1.66 -6.20 0 -2.44 0.15 -3.13 0.73 -3.13 0.39 0 0.73 -0.20 0.73 -0.49 0 -0.24 -0.20 -0.49 -0.49 -0.49 -0.24 0 -0.49 -0.34 -0.49 -0.78 0 -0.54 0.29 -0.73 0.93 -0.54 0.68 0.15 0.88 0.05 0.68 -0.44 -0.15 -0.39 -0.44 -0.68 -0.68 -0.68 -0.83 0 -0.44 -0.98 0.44 -1.03 0.49 0 0.59 -0.15 0.24 -0.29 -0.93 -0.34 -0.78 -1.12 0.24 -1.12 0.63 0 0.68 -0.10 0.20 -0.44 -0.54 -0.34 -0.49 -0.78 0.34 -2.29 1.81 -3.42 3.03 -4.44 3.61 -2.98 0.20 0.34 0.29 0.29 0.29 -0.24 0.05 -0.44 -0.20 -0.88 -0.54 -0.98 -0.29 -0.10 0.34 -1.07 1.42 -2.25 2.54 -2.64 8.11 -5.27 12.84 -6.01 9.18 -1.42 16.60 0.88 21.97 6.74 1.51 1.71 3.03 3.08 3.37 3.08 0.29 0 0.59 0.29 0.63 0.63 0.05 0.29 0.20 -1.71 0.34 -4.54 0.29 -5.13 0.29 -5.13 6.74 -5.27 6.10 -0.10 6.49 -0.05 6.98 0.88 0.34 0.63 0.39 1.27 0.15 1.61 -0.68 0.88 -0.83 7.71 -0.20 8.11 0.39 0.24 0.54 3.96 0.59 11.57 0 6.15 0.15 11.91 0.29 12.79 0.24 1.56 0.24 1.56 6.35 1.56 6.10 0 6.10 0 5.76 -1.56 -0.20 -0.88 -0.59 -1.90 -0.83 -2.20 -0.39 -0.49 -0.24 -0.63 0.39 -0.68 0.83 0 0.83 -0.05 -0.10 -0.44 -1.12 -0.44 -1.66 -3.13 -1.66 -8.40 0 -2.59 0.10 -2.83 1.12 -2.88 0.93 -0.05 0.93 -0.10 0.15 -0.29 -0.73 -0.20 -0.78 -0.34 -0.24 -0.68 0.49 -0.29 0.49 -0.44 0.10 -0.44 -0.98 0 -0.73 -1.95 0.24 -2 0.49 0 0.59 -0.15 0.24 -0.29 -0.88 -0.34 -0.78 -1.07 0.54 -3.66 4.93 -9.77 13.92 -14.65 25.44 -13.96 4.25 0.29 10.30 2.39 12.60 4.44 2.25 2.05 3.52 3.03 3.86 3.03 0.49 0 2.15 1.86 3.32 3.76 0.59 0.88 0.93 1.17 0.78 0.63 -0.15 -0.54 -0.63 -2.59 -1.07 -4.54 -0.73 -3.42 -0.73 -3.61 0.15 -4.30 0.83 -0.68 0.83 -0.68 -0.05 -0.39 -0.68 0.24 -0.83 0.15 -0.68 -0.59 0.15 -0.83 0.73 -0.93 6.45 -1.07 3.91 -0.10 6.49 0.05 6.88 0.39 0.34 0.29 1.22 2.98 1.90 6.01 1.22 5.18 1.95 7.86 3.27 12.30 0.34 1.07 0.68 2.39 0.73 2.93 0.10 0.54 0.34 1.66 0.59 2.44 0.39 1.37 0.49 1.12 1.32 -2.54 0.63 -2.98 1.07 -4.05 1.66 -4.10 0.49 0 0.59 -0.10 0.20 -0.29 -0.93 -0.34 -0.78 -1.61 0.24 -1.61 0.63 0 0.68 -0.10 0.15 -0.44 -0.93 -0.59 0.24 -5.91 1.37 -5.91 0.63 0 0.63 -0.10 0.10 -0.44 -0.93 -0.59 -0.24 -3.47 0.83 -3.52 0.54 0 0.59 -0.10 0.24 -0.29 -0.93 -0.34 -0.78 -1.61 0.24 -1.66 0.49 0 0.59 -0.15 0.24 -0.29 -0.93 -0.34 -0.78 -1.61 0.24 -1.66 0.49 0 0.59 -0.15 0.20 -0.29 -0.29 -0.10 -0.49 -0.44 -0.29 -0.68 0.29 -0.54 13.38 -0.59 14.21 -0.05 0.68 0.44 1.61 2.69 1.95 4.74 0.15 0.83 0.44 1.86 0.68 2.34 0.24 0.44 0.34 0.83 0.20 0.83 -0.15 0 0.10 0.83 0.54 1.81 0.44 1.03 0.98 3.08 1.17 4.64 0.20 1.51 0.68 3.42 1.12 4.25 0.39 0.83 0.88 2.34 1.07 3.47 0.34 2 1.22 2.73 1.22 0.98 0 -0.54 0.34 -0.98 0.73 -0.98 0.39 0 0.73 0.24 0.73 0.59 0 0.29 0.15 0.39 0.34 0.20 0.24 -0.20 -0.05 -0.68 -0.54 -1.03 -0.88 -0.63 -0.88 -0.93 -0.29 -3.66 0.44 -2.10 0.83 -2.93 1.42 -2.98 0.49 0 0.59 -0.10 0.20 -0.29 -0.34 -0.10 -0.63 -0.54 -0.63 -0.93 0 -0.83 1.27 -0.93 1.61 -0.05 0.20 0.39 0.29 0.44 0.29 0 0.05 -0.29 -0.29 -0.93 -0.68 -1.32 -1.03 -1.03 -0.49 -4.20 0.68 -4.20 0.59 0 0.63 -0.10 0.15 -0.44 -0.93 -0.59 -0.24 -3.96 0.83 -4 0.49 0 0.54 -0.10 0.20 -0.29 -0.93 -0.34 -0.78 -1.12 0.24 -1.12 0.63 0 0.68 -0.10 0.20 -0.44 -0.39 -0.24 -0.59 -0.83 -0.49 -1.32 0.15 -0.83 0.73 -0.93 6.69 -1.07 3.91 -0.05 6.74 0.05 7.03 0.34 1.03 1.03 -0.15 8.20 -1.17 7.57 -0.29 -0.15 -0.24 0.20 0.15 0.73 0.49 0.78 0.49 1.12 0.05 1.42 -0.29 0.20 -0.63 1.03 -0.78 1.81 -0.15 0.83 -0.54 2.29 -0.83 3.32 -0.29 1.07 -0.44 2 -0.34 2.15 0.15 0.10 -0.05 0.78 -0.39 1.46 -0.39 0.73 -0.59 1.46 -0.44 1.71 0.15 0.24 0.05 0.73 -0.24 1.07 -0.29 0.34 -0.59 1.37 -0.63 2.29 -0.10 0.93 -0.24 1.76 -0.44 1.90 -0.15 0.15 -0.59 1.81 -1.03 3.66 -1.22 5.27 -2.34 9.67 -2.69 10.50 -0.15 0.39 -0.34 1.03 -0.44 1.42 -0.20 1.03 -0.63 2.88 -1.22 5.13 -0.44 1.61 -0.68 1.81 -1.66 1.61 -0.68 -0.10 -1.07 0 -0.93 0.20 0.15 0.24 -0.78 0.44 -2 0.44 -1.37 0 -2.15 -0.20 -1.95 -0.49 0.20 -0.29 -0.39 -0.49 -1.46 -0.49 -1.22 0 -1.66 0.20 -1.42 0.59 0.59 0.93 -6.74 0.10 -7.42 -0.83 -0.29 -0.39 -1.76 -5.47 -3.17 -11.23 -2.39 -9.62 -2.98 -11.04 -3.47 -8.30 -0.05 0.54 -0.39 1.22 -0.68 1.46 -0.49 0.44 -1.22 3.22 -3.17 12.70 -0.83 3.91 -1.95 6.10 -3.27 6.45 -1.07 0.24 -5.81 0 -9.47 -0.49 -0.73 -0.10 -1.22 0 -1.07 0.20 0.29 0.49 -1.37 0.49 -3.22 0 -1.37 -0.34 -1.86 -1.46 -0.88 -2.05 0.49 -0.34 0.44 -0.44 -0.20 -0.44 -1.03 0 -1.17 -1.27 -0.24 -1.61 0.39 -0.20 0.34 -0.29 -0.20 -0.29 -0.73 -0.05 -2.25 -4.39 -3.13 -8.84 -0.88 -4.39 -3.61 -13.33 -3.66 -11.96 -0.05 0.83 -0.20 1.90 -0.34 2.44 -0.10 0.54 -0.39 2.10 -0.63 3.47 -0.20 1.37 -0.83 3.52 -1.37 4.79 -0.59 1.22 -0.88 2.25 -0.68 2.25 0.20 0 0.10 0.20 -0.15 0.39 -0.29 0.20 -1.12 1.27 -1.90 2.44 -2.15 3.13 -8.30 7.96 -10.30 8.11 -0.63 0 -1.07 0.15 -0.93 0.24 0.10 0.10 -0.39 0.49 -1.07 0.88 -0.98 0.49 -1.46 0.49 -2 0.10 -0.54 -0.44 -0.59 -0.44 -0.34 0.20 0.24 0.73 -0.29 0.78 -5.27 0.63 -5.62 -0.15 -6.35 -0.24 -8.94 -1.27 -0.78 -0.29 -1.56 -0.54 -1.71 -0.54 -0.68 0.10 -1.95 -0.59 -1.95 -0.98 0 -0.29 -0.15 -0.39 -0.39 -0.24 -0.49 0.29 -2.44 -0.78 -2.59 -1.42 -0.15 -0.78 -2.98 -2.69 -3.52 -2.34 -0.29 0.15 -0.34 0.10 -0.20 -0.15 0.15 -0.29 -0.15 -0.73 -0.68 -1.07 -0.88 -0.54 -0.93 -0.44 -0.98 1.71 -0.10 4 -0.59 5.27 -1.81 5.18 -0.68 -0.10 -1.03 0.05 -0.83 0.34 0.20 0.29 -0.88 0.49 -2.93 0.49 -2.05 0 -3.13 -0.20 -2.93 -0.49 0.20 -0.29 -0.34 -0.49 -1.22 -0.49 -0.88 0 -1.42 0.20 -1.22 0.49 0.15 0.29 -0.05 0.49 -0.49 0.49 -0.44 0 -0.63 -0.20 -0.49 -0.49 0.15 -0.24 -0.15 -0.49 -0.73 -0.49 -0.63 0 -0.88 0.20 -0.73 0.54 0.44 0.63 -5.62 0.49 -7.96 -0.20 -1.07 -0.34 -2.34 -0.34 -4.10 0.10 -3.47 0.78 -3.81 0.29 -3.81 -5.86 0 -4.79 0 -4.79 -1.32 -3.56 -0.68 0.63 -1.51 1.66 -1.81 2.25 -0.68 1.37 -6.20 5.27 -7.03 5.03 -0.34 -0.15 -0.54 -0.05 -0.39 0.20 0.15 0.24 -1.27 0.93 -3.17 1.51 -3.61 1.17 -11.43 1.66 -12.94 0.83z m10.84 -14.50 c1.17 -0.83 2.15 -1.81 2.15 -2.15 0 -0.63 -4.20 -1.27 -8.84 -1.27 -2.78 0 -2.88 -0.15 -2.88 -6.10 0 -3.66 0.15 -4.59 0.78 -4.83 0.44 -0.15 6.15 -0.29 12.70 -0.29 11.57 0 11.91 -0.05 11.91 -0.98 0 -0.88 -0.34 -0.98 -4 -1.07 -9.18 -0.15 -8.64 -0.05 -10.25 -1.81 -2.15 -2.29 -5.47 -3.61 -7.96 -3.17 -1.07 0.20 -2.25 0.34 -2.59 0.24 -0.34 -0.05 -0.73 0.24 -0.88 0.63 -0.15 0.44 -0.44 0.68 -0.63 0.54 -0.44 -0.24 -2.69 1.90 -4.35 4.10 -0.63 0.83 -1.22 2.49 -1.42 3.91 -0.34 3.03 0.20 7.03 0.93 6.59 0.34 -0.24 0.44 0.10 0.20 0.93 -0.15 0.73 -0.05 1.42 0.29 1.61 0.34 0.24 0.39 0.15 0.15 -0.29 -0.24 -0.44 -0.20 -0.54 0.20 -0.29 0.29 0.20 0.44 0.59 0.24 0.83 -0.49 0.83 2.54 3.27 4.79 3.86 1.17 0.29 2.34 0.63 2.59 0.73 1.27 0.54 4.88 -0.34 6.88 -1.71z m70.41 0.15 c2.73 -1.56 4.64 -4.30 5.42 -7.67 0.54 -2.34 0.49 -3.13 -0.20 -5.47 -1.22 -4.25 -3.91 -8.01 -5.13 -7.28 -0.29 0.20 -0.98 -0.05 -1.46 -0.49 -1.66 -1.51 -4.83 -1.51 -7.86 0 -3.03 1.56 -5.32 3.71 -5.32 5.08 0 0.54 -0.24 1.03 -0.54 1.12 -0.29 0.10 -0.63 1.56 -0.78 3.27 -0.20 1.95 -0.10 3.03 0.20 2.83 0.24 -0.15 0.39 0.34 0.34 1.17 -0.05 0.78 0.10 1.42 0.39 1.42 0.24 0 0.29 0.24 0.15 0.54 -0.44 0.68 2 4.35 2.93 4.35 0.39 0 0.93 0.39 1.17 0.88 0.29 0.44 0.54 0.63 0.54 0.44 0 -0.20 0.49 -0.10 1.12 0.20 1.46 0.83 4.25 1.32 5.71 1.03 0.68 -0.10 2.15 -0.73 3.32 -1.42z"/>
 </g>
 <g fill="#93102c">
  <path d="M279.74 342.53 c-2.73 -1.51 -2.15 -3.81 0.68 -2.78 2.98 1.07 4.74 0.49 4.74 -1.51 0 -0.73 -0.20 -0.83 -1.07 -0.49 -2.20 0.73 -3.96 0.34 -5.37 -1.27 -3.03 -3.37 -0.98 -8.94 3.27 -8.89 1.07 0 2.88 0.05 4.05 0.05 2.05 0 2.05 0 2.05 5.81 0 3.52 -0.24 6.40 -0.59 7.13 -1.12 2.44 -5.03 3.42 -7.76 1.95z m5.37 -8.69 c0.49 -1.27 0.20 -2.29 -0.83 -3.13 -2.15 -1.71 -4.98 0.44 -4 2.98 0.93 2.44 3.96 2.54 4.83 0.15z"/>
  <path d="M374.02 342.92 c0 -0.20 0.49 -1.51 1.07 -2.93 1.07 -2.59 1.07 -2.59 -0.73 -7.13 -0.98 -2.49 -1.81 -4.69 -1.81 -4.88 0 -0.20 0.63 -0.34 1.42 -0.34 1.27 0 1.46 0.29 2.44 2.93 0.59 1.61 1.27 2.83 1.46 2.73 0.20 -0.15 0.78 -1.46 1.27 -2.93 0.88 -2.59 1.03 -2.73 2.59 -2.73 1.17 0 1.56 0.20 1.42 0.63 -0.15 0.29 -1.51 3.52 -3.03 7.13 -1.46 3.61 -2.93 6.84 -3.22 7.23 -0.59 0.68 -2.88 0.88 -2.88 0.29z"/>
  <path d="M99.61 337.30 c-2.78 -1.90 -3.66 -3.52 -3.66 -6.74 0 -3.52 1.03 -5.13 4.30 -6.74 2.88 -1.46 5.52 -1.12 7.96 0.98 3.08 2.73 1.32 4.74 -1.86 2.10 -1.76 -1.46 -3.71 -1.56 -5.47 -0.20 -2.34 1.86 -2.49 6.05 -0.24 7.91 1.42 1.17 4.39 1.07 5.71 -0.20 1.42 -1.32 0.98 -1.90 -1.42 -1.90 -1.71 0 -1.90 -0.15 -1.90 -1.22 0 -1.22 0.05 -1.22 3.96 -1.22 4 0 4 0 3.71 1.95 -0.15 1.12 -0.63 2.54 -1.07 3.22 -2.05 3.13 -6.93 4.10 -10.01 2.05z"/>
  <path d="M112.30 330.32 c0 -8.06 0 -8.06 1.46 -8.06 1.46 0 1.46 0 1.46 8.06 0 8.06 0 8.06 -1.46 8.06 -1.46 0 -1.46 0 -1.46 -8.06z"/>
  <path d="M118.31 336.67 c-1.61 -1.61 -1.71 -1.90 -1.51 -4.15 0.29 -2.93 1.32 -4.20 3.91 -4.93 4.10 -1.07 8.01 2.88 6.79 6.88 -0.78 2.59 -2.54 3.91 -5.27 3.91 -1.86 0 -2.44 -0.24 -3.91 -1.71z m6.30 -2.44 c0.63 -1.42 -0.05 -3.47 -1.32 -3.96 -2.39 -0.93 -4.39 1.51 -3.22 4 0.78 1.71 3.76 1.71 4.54 -0.05z"/>
  <path d="M131.10 337.79 c-0.59 -1.86 -3.17 -9.91 -3.17 -10.01 0 -0.10 0.63 -0.15 1.46 -0.15 1.37 0 1.51 0.20 2.29 2.93 0.49 1.61 0.98 2.93 1.12 2.93 0.15 0 0.59 -1.27 0.98 -2.78 0.63 -2.49 0.88 -2.83 2.05 -2.98 1.17 -0.15 1.37 0.05 1.86 1.95 1.07 4.25 1.27 4.35 2.25 1.03 0.78 -2.83 0.93 -3.08 2.25 -3.08 0.73 0 1.37 0.15 1.37 0.39 0 0.20 -0.68 2.54 -1.46 5.18 -0.83 2.69 -1.46 4.93 -1.46 5.03 0 0.10 -0.68 0.15 -1.56 0.05 -1.46 -0.15 -1.61 -0.34 -2.25 -2.93 -0.39 -1.56 -0.88 -2.83 -1.07 -2.83 -0.20 0 -0.63 1.32 -0.98 2.93 -0.59 2.78 -0.68 2.93 -2.05 2.93 -0.78 0 -1.51 -0.29 -1.61 -0.59z"/>
  <path d="M151.61 337.79 c-0.15 -0.34 -0.88 -2.78 -1.66 -5.42 -1.42 -4.79 -1.42 -4.79 0.10 -4.64 1.37 0.15 1.56 0.39 2.10 2.49 1.07 4.20 1.22 4.25 2.10 0.83 0.73 -2.83 0.98 -3.17 2.10 -3.32 1.17 -0.15 1.37 0.10 2.05 2.49 0.44 1.46 0.78 2.98 0.78 3.32 0 1.42 0.88 -0.44 1.42 -3.08 0.59 -2.73 0.63 -2.83 2.20 -2.83 1.61 0 1.61 0 0.05 5.27 -1.56 5.03 -1.66 5.22 -3.08 5.37 -1.42 0.15 -1.51 0.05 -2.39 -2.93 -0.93 -3.08 -0.93 -3.08 -1.76 0 -0.83 2.83 -0.98 3.03 -2.34 3.03 -0.78 0 -1.56 -0.29 -1.66 -0.59z"/>
  <path d="M165.53 338.28 c-0.34 -3.17 -0.44 -7.42 -0.20 -8.79 0.24 -1.56 0.49 -1.86 1.46 -1.86 1.17 0 1.17 0 1.17 5.37 0 5.37 0 5.37 -1.22 5.37 -0.68 0 -1.22 -0.05 -1.22 -0.10z"/>
  <path d="M171.92 337.45 c-0.83 -0.83 -1.03 -1.66 -1.03 -4.20 0 -2.44 -0.15 -3.17 -0.68 -3.17 -0.39 0 -0.83 -0.20 -0.98 -0.44 -0.44 -0.68 0.20 -2 0.98 -2 0.44 0 0.68 -0.54 0.68 -1.46 0 -1.32 0.15 -1.46 1.46 -1.46 1.32 0 1.46 0.15 1.46 1.42 0 1.12 0.24 1.46 1.12 1.61 0.68 0.10 1.12 0.54 1.22 1.27 0.15 0.88 -0.05 1.07 -1.07 1.07 -1.17 0 -1.27 0.15 -1.27 2.44 0 1.66 0.24 2.54 0.78 2.83 0.44 0.24 0.68 0.88 0.59 1.61 -0.20 1.56 -1.95 1.81 -3.27 0.49z"/>
  <path d="M177.25 330.32 c0 -8.06 0 -8.06 1.46 -8.06 1.46 0 1.46 0 1.46 2.98 0 2.83 0.05 2.93 1.12 2.59 1.81 -0.63 3.42 -0.34 4.35 0.78 0.68 0.88 0.88 2 0.88 5.42 0 4.30 0 4.35 -1.22 4.35 -1.17 0 -1.22 -0.15 -1.27 -2.78 -0.05 -3.96 -0.49 -5.22 -1.86 -5.42 -1.61 -0.24 -2 0.63 -2 4.69 0 3.52 0 3.52 -1.46 3.52 -1.46 0 -1.46 0 -1.46 -8.06z"/>
  <path d="M194.78 337.45 c-1.03 -0.83 -1.17 -1.42 -1.32 -5.37 -0.20 -4.44 -0.20 -4.44 1.32 -4.44 1.51 0 1.51 0 1.51 3.32 0 3.81 0.39 4.64 2 4.39 1.32 -0.20 1.81 -1.42 1.86 -5.18 0.05 -2.54 0.10 -2.59 1.42 -2.44 1.32 0.15 1.32 0.15 1.42 5.42 0.10 5.22 0.10 5.22 -1.37 5.22 -0.78 0 -1.42 -0.24 -1.42 -0.49 0 -0.34 -0.29 -0.34 -0.93 0 -1.46 0.73 -3.22 0.59 -4.49 -0.44z"/>
  <path d="M205.66 337.60 c-2.44 -1.71 -0.54 -3.56 2 -1.90 0.73 0.49 1.32 0.54 1.81 0.20 0.63 -0.39 0.59 -0.54 -0.20 -1.17 -0.54 -0.39 -1.37 -0.73 -1.86 -0.73 -2.49 0 -3.71 -3.91 -1.81 -5.66 1.95 -1.76 6.79 -0.63 6.79 1.56 0 1.12 -1.03 1.27 -2.73 0.39 -1.22 -0.68 -1.81 -0.73 -2.20 -0.34 -0.83 0.83 -0.20 1.46 1.76 1.81 5.13 0.98 4.79 6.64 -0.39 6.64 -1.12 0 -2.59 -0.34 -3.17 -0.78z"/>
  <path d="M220.17 336.96 c-1.17 -1.22 -1.42 -1.86 -1.42 -3.86 0 -1.66 0.29 -2.78 0.98 -3.66 1.07 -1.37 4.05 -2.59 4.93 -2 0.34 0.20 1.56 0.29 2.69 0.24 2.15 -0.05 2.15 -0.05 2.10 5.32 -0.05 5.37 -0.05 5.37 -1.42 5.37 -0.78 0 -1.46 -0.29 -1.61 -0.59 -0.20 -0.49 -0.34 -0.49 -0.88 0 -1.17 1.12 -3.81 0.68 -5.37 -0.83z m5.37 -1.95 c0.68 -1.22 0.24 -1.51 -2 -1.51 -1.17 0 -1.86 0.24 -1.86 0.63 0 1.81 3.03 2.49 3.86 0.88z m1.27 -3.42 c0.44 -0.78 -1.22 -2 -2.69 -2 -0.78 0 -2 0.54 -2.78 1.22 -1.37 1.17 -1.37 1.17 1.90 1.22 1.81 0 3.37 -0.20 3.56 -0.44z"/>
  <path d="M231.64 337.26 c-0.78 -0.68 -1.17 -1.42 -0.98 -1.71 0.44 -0.73 2.73 -0.78 2.73 -0.10 0 0.63 2.29 0.63 2.69 0 0.15 -0.29 -0.73 -0.93 -2.05 -1.51 -2.69 -1.17 -3.08 -1.56 -3.08 -3.76 0 -1.37 0.24 -1.71 1.76 -2.34 2.05 -0.88 4.74 -0.24 5.57 1.27 0.73 1.37 0.59 1.61 -0.83 1.32 -2.98 -0.59 -3.32 -0.59 -3.32 0.10 0 0.39 0.88 0.98 1.95 1.37 3.32 1.12 4.10 3.17 1.95 5.27 -1.61 1.66 -4.54 1.66 -6.40 0.10z"/>
  <path d="M246.39 333.89 c-0.78 -2.49 -1.51 -4.93 -1.66 -5.37 -0.15 -0.68 0.10 -0.88 1.22 -0.88 1.37 0 1.51 0.20 2.34 2.93 0.49 1.61 1.03 2.93 1.22 2.93 0.15 0 0.59 -1.27 0.98 -2.78 0.63 -2.44 0.88 -2.83 2 -2.98 1.12 -0.15 1.32 0.10 2.10 2.93 0.98 3.37 1.17 3.27 2.25 -0.93 0.49 -1.90 0.68 -2.10 1.95 -2.10 0.83 0 1.46 0.15 1.46 0.34 0 0.24 -0.54 2.05 -1.17 4.05 -0.63 2 -1.32 4.30 -1.46 5.03 -0.29 1.22 -0.54 1.37 -1.86 1.22 -1.46 -0.15 -1.61 -0.34 -2.29 -2.93 -0.39 -1.56 -0.88 -2.83 -1.07 -2.83 -0.20 0 -0.63 1.27 -1.03 2.83 -0.63 2.54 -0.78 2.78 -2.10 2.93 -1.42 0.10 -1.46 0.05 -2.88 -4.39z"/>
  <path d="M263.23 337.70 c-2.54 -1.42 -3.37 -5.91 -1.51 -8.25 2.98 -3.76 8.89 -1.95 9.38 2.83 0.15 1.46 0.15 1.46 -3.71 1.71 -3.71 0.24 -3.86 0.29 -3.03 1.12 0.93 0.93 2.49 1.12 2.98 0.34 0.44 -0.68 2.54 -0.63 2.98 0.10 0.20 0.29 -0.20 1.03 -0.98 1.71 -1.51 1.27 -4.20 1.46 -6.10 0.44z m4.74 -6.49 c-0.20 -1.07 -3.27 -1.51 -3.86 -0.54 -0.73 1.17 -0.49 1.37 1.81 1.37 1.86 0 2.20 -0.15 2.05 -0.83z"/>
  <path d="M290.53 333.01 c0 -5.42 0 -5.42 1.86 -5.37 0.98 0.05 2.25 0 2.78 -0.10 0.78 -0.10 1.03 0.15 1.12 1.51 0.15 1.27 0 1.56 -0.54 1.37 -1.46 -0.54 -2.25 0.78 -2.59 4.44 -0.29 3.27 -0.39 3.52 -1.46 3.52 -1.17 0 -1.17 -0.05 -1.17 -5.37z"/>
  <path d="M298.93 337.16 c-3.17 -2.69 -2.25 -8.15 1.56 -9.42 4.54 -1.46 8.59 2.54 7.13 7.03 -1.22 3.61 -5.76 4.88 -8.69 2.39z m5.66 -2.59 c0.83 -1.07 0.73 -2.54 -0.24 -3.61 -2.25 -2.49 -6.01 0.98 -3.91 3.61 1.12 1.46 2.93 1.46 4.15 0z"/>
  <path d="M311.38 338.04 c-0.10 -0.20 -0.83 -2.29 -1.51 -4.69 -0.73 -2.34 -1.42 -4.59 -1.56 -4.98 -0.24 -0.54 0.10 -0.73 1.22 -0.73 0.88 0 1.61 0.29 1.71 0.63 0.10 0.29 0.49 1.61 0.78 2.88 0.34 1.27 0.78 2.25 0.98 2.10 0.15 -0.10 0.59 -1.42 0.93 -2.93 0.54 -2.49 0.73 -2.69 1.95 -2.69 1.27 0 1.42 0.24 2.25 3.32 0.93 3.27 0.93 3.27 1.86 0 0.93 -3.13 1.07 -3.32 2.34 -3.32 1.66 0 1.66 0 0.49 3.71 -0.54 1.56 -1.22 3.81 -1.51 4.98 -0.49 2 -0.63 2.10 -2.10 1.95 -1.42 -0.15 -1.56 -0.34 -2.25 -2.93 -0.39 -1.56 -0.88 -2.83 -1.07 -2.83 -0.20 0 -0.63 1.27 -1.03 2.83 -0.59 2.44 -0.83 2.78 -1.95 2.93 -0.68 0.10 -1.37 0 -1.51 -0.24z"/>
  <path d="M331.74 337.70 c-0.15 -0.39 -0.88 -2.78 -1.66 -5.27 -1.32 -4.39 -1.32 -4.54 -0.39 -4.69 1.66 -0.29 2.15 0.24 2.78 3.03 0.34 1.51 0.73 2.73 0.93 2.73 0.20 0 0.73 -1.32 1.22 -2.93 0.73 -2.54 1.03 -2.93 2 -2.93 1.03 0 1.32 0.39 1.95 2.64 0.44 1.46 0.78 2.93 0.78 3.32 0.05 1.17 0.83 -0.63 1.46 -3.37 0.54 -2.39 0.68 -2.59 2.05 -2.59 1.71 0 1.71 -0.24 -0.39 6.74 -1.22 4.05 -1.27 4.05 -2.78 3.91 -1.42 -0.15 -1.56 -0.34 -2.20 -2.93 -0.39 -1.56 -0.83 -2.73 -1.03 -2.59 -0.20 0.10 -0.63 1.42 -0.98 2.93 -0.59 2.54 -0.68 2.69 -2.05 2.69 -0.83 0 -1.56 -0.29 -1.71 -0.68z"/>
  <path d="M345.46 335.35 c-0.20 -1.71 -0.24 -4.05 -0.15 -5.27 0.15 -2 0.29 -2.20 1.51 -2.34 1.32 -0.15 1.32 -0.15 1.32 5.22 0 5.42 0 5.42 -1.17 5.42 -1.12 0 -1.22 -0.24 -1.51 -3.03z"/>
  <path d="M351.56 337.11 c-0.29 -0.68 -0.49 -2.54 -0.49 -4.15 0 -2.25 -0.15 -2.88 -0.73 -2.88 -0.44 0 -0.73 -0.44 -0.73 -1.22 0 -0.78 0.29 -1.22 0.73 -1.22 0.49 0 0.73 -0.49 0.73 -1.46 0 -1.32 0.15 -1.46 1.46 -1.46 1.32 0 1.46 0.15 1.46 1.46 0 1.12 0.20 1.46 0.98 1.46 0.73 0 0.98 0.34 0.98 1.22 0 0.88 -0.24 1.22 -0.98 1.22 -0.83 0 -0.98 0.34 -0.98 2.39 0 1.56 0.24 2.49 0.63 2.64 0.44 0.15 0.59 0.78 0.44 1.76 -0.20 1.32 -0.39 1.51 -1.61 1.51 -1.07 0 -1.56 -0.29 -1.90 -1.27z"/>
  <path d="M357.42 330.32 c0 -8.06 0 -8.06 1.46 -8.06 1.46 0 1.46 0 1.46 2.93 0 2.93 0 2.93 1.27 2.44 0.68 -0.29 1.76 -0.34 2.44 -0.20 2.05 0.54 2.64 1.95 2.64 6.69 0 4.30 0 4.30 -1.32 4.15 -1.32 -0.15 -1.37 -0.24 -1.61 -4.05 -0.24 -3.91 -0.24 -3.91 -1.71 -3.91 -1.46 0 -1.46 0 -1.61 4.05 -0.15 4 -0.15 4 -1.56 4 -1.46 0 -1.46 0 -1.46 -8.06z"/>
  <path d="M385.94 337.89 c-2.69 -1.07 -3.61 -5.96 -1.61 -8.45 1.46 -1.90 4.39 -2.54 6.54 -1.51 2.34 1.07 3.17 2.44 3.17 4.98 0 1.81 -0.29 2.44 -1.66 3.81 -1.32 1.32 -2.05 1.66 -3.52 1.61 -1.07 0 -2.39 -0.20 -2.93 -0.44z m4.59 -3.03 c0.98 -0.98 0.73 -3.71 -0.34 -4.30 -2.20 -1.17 -4.05 -0.15 -4.05 2.20 0 0.68 0.24 1.56 0.59 1.95 0.73 0.88 2.98 0.98 3.81 0.15z"/>
  <path d="M396.73 337.30 c-1.12 -0.88 -1.22 -1.22 -1.22 -5.32 0 -4.35 0 -4.35 1.46 -4.35 1.42 0 1.42 0 1.56 3.81 0.15 3.76 0.15 3.76 1.61 3.76 1.46 0 1.46 0 1.61 -3.76 0.15 -3.81 0.15 -3.81 1.56 -3.81 1.46 0 1.46 0 1.46 5.32 0 5.27 0 5.27 -3.42 5.32 -2.69 0 -3.66 -0.20 -4.64 -0.98z"/>
  <path d="M165.14 325.34 c-0.68 -1.27 0.15 -2.59 1.66 -2.59 0.68 0 1.32 0.34 1.51 0.78 0.73 1.90 -2.25 3.56 -3.17 1.81z"/>
  <path d="M345.17 325.39 c-0.93 -1.12 0.05 -2.39 1.81 -2.39 0.98 0 1.46 0.29 1.56 0.88 0.39 1.95 -2.10 3.08 -3.37 1.51z"/>
  <path d="M95.85 308.84 c-6.10 -1.86 -10.64 -7.08 -11.87 -13.48 -0.54 -2.93 -0.68 -1.86 4.83 -45.36 2.20 -17.04 4.20 -31.84 4.54 -32.86 0.73 -2.44 3.42 -5.47 5.96 -6.84 1.71 -0.88 3.03 -1.07 9.57 -1.32 7.57 -0.24 7.57 -0.24 7.86 -4.88 0.20 -2.69 0.78 -5.96 1.42 -7.76 2.88 -8.50 10.35 -14.99 19.43 -16.89 4.44 -0.98 7.08 -0.93 11.62 0.24 4.69 1.22 8.25 3.27 11.91 6.98 4.74 4.74 7.08 10.30 7.67 18.02 0.29 4.20 0.29 4.20 7.67 4.39 6.98 0.15 7.47 0.20 9.62 1.46 2.59 1.51 4.69 3.81 5.66 6.20 0.39 0.93 1.37 6.98 2.15 13.43 1.37 11.23 4.49 36.23 6.84 54.35 1.03 8.06 1.03 8.59 0.24 11.72 -0.98 4.15 -3.66 8.15 -6.84 10.25 -4.74 3.17 -2.73 3.08 -51.76 3.03 -35.50 0 -44.92 -0.15 -46.53 -0.68z m93.26 -8.50 c2.78 -1.81 4.30 -4.59 4.35 -8.06 0.05 -1.37 -0.78 -8.74 -1.76 -16.41 -1.03 -7.67 -2.98 -23.49 -4.44 -35.16 -3.17 -25.93 -2.15 -23.93 -11.96 -23.93 -6.35 0 -6.35 0 -6.35 11.72 0 11.72 0 11.72 -4.15 11.72 -4.15 0 -4.15 0 -4.15 -19.19 0 -21.24 -0.10 -22.12 -3.08 -26.51 -3.27 -4.93 -8.74 -7.76 -14.99 -7.71 -3.13 0 -4.25 0.29 -7.23 1.66 -6.69 3.08 -10.30 8.50 -10.74 16.16 -0.24 4.35 -0.24 4.35 14.01 4.35 14.21 0 14.21 0 14.21 3.91 0 3.91 0 3.91 -13.67 3.91 -12.99 0 -13.67 0.05 -14.16 0.93 -0.29 0.59 -0.49 5.22 -0.49 11.72 0 10.79 0 10.79 -3.91 10.79 -3.91 0 -3.91 0 -3.91 -9.72 0 -5.47 -0.24 -10.30 -0.49 -11.13 -0.73 -2.10 -2.29 -2.59 -7.76 -2.59 -7.18 0 -7.76 0.68 -8.84 10.50 -0.29 2.69 -2.20 17.72 -4.20 33.45 -2 15.67 -3.61 29.88 -3.61 31.49 0 4.15 2.25 7.52 5.96 8.98 0.68 0.29 18.85 0.49 45.12 0.49 43.95 0.05 43.95 0.05 46.24 -1.37z m7.96 -12.65 c-0.10 -0.20 -0.59 -3.91 -0.98 -8.15 -1.51 -15.04 -2.34 -22.51 -3.03 -26.37 -0.39 -2.15 -0.68 -4.88 -0.68 -6.10 0 -2.83 -0.44 -4.39 -1.22 -4.39 -0.44 0 -0.59 0.59 -0.44 1.86 0.10 0.98 0.39 4.35 0.68 7.42 0.68 7.23 2.25 20.02 3.17 25.63 0.39 2.44 0.68 5.22 0.73 6.20 0 2.15 0.73 4.30 1.46 4.30 0.29 0 0.44 -0.20 0.29 -0.39z m-107.23 -11.08 c0 -0.93 0.29 -3.76 0.68 -6.25 1.17 -7.52 1.32 -11.57 0.49 -11.57 -0.39 0 -0.68 0.05 -0.68 0.15 0 0.05 -0.54 3.86 -1.22 8.40 -1.51 10.30 -1.51 10.99 -0.24 10.99 0.78 0 0.98 -0.34 0.98 -1.71z m101.07 -40.04 c0 -1.90 -0.15 -2.20 -1.03 -2.20 -0.73 0 -0.93 0.20 -0.73 0.78 0.15 0.44 0.29 1.42 0.29 2.20 0 0.93 0.24 1.42 0.73 1.42 0.54 0 0.73 -0.59 0.73 -2.20z m-69.92 -0.68 c0.15 -0.93 0 -1.07 -0.63 -0.83 -0.44 0.15 -0.93 0.29 -1.03 0.29 -0.10 0 -0.20 0.44 -0.20 1.03 0 1.42 1.66 1.03 1.86 -0.49z m43.07 -15.28 c0 -0.49 -0.20 -0.88 -0.49 -0.88 -0.24 0 -0.49 0.73 -0.49 1.61 0 1.17 0.15 1.37 0.49 0.83 0.24 -0.39 0.49 -1.12 0.49 -1.56z m-42.97 -1.86 c0 -0.83 0.34 -2.15 0.73 -2.98 0.83 -1.56 0.83 -1.51 -1.81 -2.10 -0.68 -0.15 -1.42 -0.68 -1.51 -1.17 -0.20 -0.68 -0.24 -0.63 -0.29 0.20 0 0.54 -0.29 1.22 -0.63 1.56 -0.44 0.44 -0.39 0.78 0.24 1.46 0.44 0.49 0.83 1.46 0.83 2.20 0 0.68 0.24 1.81 0.54 2.49 0.49 1.03 0.68 1.12 1.22 0.54 0.39 -0.34 0.68 -1.37 0.68 -2.20z m4.39 -27.93 c0 -0.68 -1.32 -0.44 -2 0.39 -0.49 0.63 -0.49 0.83 0.10 1.22 0.63 0.39 1.90 -0.63 1.90 -1.61z"/>
 </g>
 <g fill="#e58293">
  <path d="M230.96 277.34 c0 -23 0 -23 6.64 -22.85 6.64 0.15 6.64 0.15 13.04 15.43 3.47 8.40 6.54 15.09 6.74 14.89 0.24 -0.24 2.88 -6.35 5.86 -13.57 2.93 -7.28 5.71 -14.01 6.15 -14.99 0.73 -1.86 0.73 -1.86 7.28 -1.86 6.54 0 6.54 0 6.54 21.44 0 11.82 0.20 21.58 0.39 21.73 0.24 0.15 2.34 -5.08 4.74 -11.57 12.84 -35.21 10.79 -31.59 18.07 -31.59 6.45 0 6.45 0 13.67 19.92 3.96 10.94 7.57 20.75 8.01 21.83 0.73 1.86 0.78 0.78 1.03 -19.78 0.24 -21.73 0.24 -21.73 11.47 -21.88 10.06 -0.10 11.57 0 14.45 0.88 3.71 1.12 7.18 3.86 8.89 7.03 1.56 2.93 1.56 9.91 -0.05 12.84 -1.42 2.69 -4.74 5.86 -6.49 6.25 -0.78 0.20 -1.51 0.54 -1.66 0.73 -0.15 0.24 1.90 4.30 4.64 8.98 2.69 4.74 4.88 8.69 4.88 8.84 0 0.15 -2.83 0.24 -6.30 0.24 -5.57 0 -6.35 -0.10 -6.64 -0.83 -0.15 -0.49 -2.20 -4.25 -4.49 -8.30 -3.86 -6.93 -4.30 -7.47 -5.57 -7.47 -1.42 0 -1.42 0 -1.42 8.30 0 8.30 0 8.30 -11.67 8.30 -11.67 0 -11.67 0 -12.99 -3.91 -1.32 -3.91 -1.32 -3.91 -9.91 -3.91 -8.64 0 -8.64 0 -10.06 3.91 -1.37 3.91 -1.37 3.91 -12.70 3.81 -11.28 -0.15 -11.28 -0.15 -11.52 -12.99 -0.24 -12.84 -0.24 -12.84 -4.98 -0.39 -2.64 6.84 -4.79 12.65 -4.79 12.94 0 0.34 -1.71 0.54 -4.83 0.54 -4.79 0 -4.79 0 -5.66 -2.29 -2.69 -7.32 -8.74 -22.41 -9.08 -22.80 -0.24 -0.29 -0.44 4.98 -0.44 12.30 0 12.79 0 12.79 -5.62 12.79 -5.62 0 -5.62 0 -5.62 -22.95z m80.42 5.66 c0.15 -0.15 -0.88 -3.66 -2.29 -7.86 -1.42 -4.20 -2.73 -7.47 -2.93 -7.23 -0.49 0.49 -5.32 15.14 -5.13 15.38 0.29 0.24 10.11 -0.05 10.35 -0.29z m39.55 -8.94 c4.44 -2.10 3.47 -9.13 -1.37 -10.11 -0.88 -0.15 -3.17 -0.29 -5.13 -0.29 -3.61 0 -3.61 0 -3.61 5.62 0 5.62 0 5.62 4.20 5.62 2.93 0 4.74 -0.24 5.91 -0.83z"/>
  <path d="M376.95 282.23 c0 -21.04 0.63 -19.14 -6.49 -19.04 -2.49 0.05 -4.79 0.05 -5.08 0.05 -0.49 -0.05 -0.63 -1.27 -0.63 -4.44 0 -4.39 0 -4.39 17.58 -4.39 17.58 0 17.58 0 17.58 4.39 0 4.39 0 4.39 -4 4.44 -2.25 0.05 -4.88 0 -5.86 -0.05 -1.86 -0.10 -1.86 -0.10 -1.86 18.51 0 18.60 0 18.60 -5.62 18.60 -5.62 0 -5.62 0 -5.62 -18.07z"/>
 </g>
 <g fill="#fdfdf7">
  <path d="M213.38 310.25 c0 -0.15 0.54 -0.73 1.22 -1.27 0.88 -0.68 1.22 -1.46 1.27 -2.73 0.05 -1.22 0.15 -1.46 0.29 -0.63 0.34 1.76 -0.20 3.27 -1.56 4.15 -0.68 0.44 -1.22 0.68 -1.22 0.49z"/>
  <path d="M209.72 308.84 c-1.42 -1.37 -1.56 -2.20 -0.34 -2.25 0.73 0 0.68 -0.05 -0.10 -0.39 -0.93 -0.34 -0.93 -0.39 0.10 -0.63 0.93 -0.24 1.07 -0.10 1.07 1.03 0 1.46 0.78 2.73 1.95 3.13 0.49 0.15 0.34 0.29 -0.39 0.29 -0.63 0.05 -1.66 -0.49 -2.29 -1.17z"/>
  <path d="M208.50 302.05 c0 -2.59 0.15 -3.17 0.88 -3.37 0.78 -0.20 0.78 -0.24 0 -0.29 -1.07 -0.05 -1.22 -2.49 -0.20 -2.49 0.93 0 1.07 0.63 1.03 5.13 0 3.32 -0.15 3.91 -0.83 4.05 -0.78 0.15 -0.88 -0.24 -0.88 -3.03z"/>
  <path d="M216.06 283.69 c0 -10.35 0.05 -14.55 0.10 -9.38 0.10 5.13 0.10 13.62 0 18.80 -0.05 5.13 -0.10 0.93 -0.10 -9.42z"/>
  <path d="M146 293.36 c-0.93 -0.49 -1.51 -0.88 -1.27 -0.88 0.24 0 0.05 -0.39 -0.39 -0.93 -0.44 -0.49 -0.93 -1.71 -1.12 -2.64 -0.24 -1.76 -1.61 -2.98 -1.61 -1.51 0 0.54 -0.29 0.73 -0.88 0.59 -0.49 -0.15 -0.93 0 -0.98 0.29 -0.44 3.61 -1.27 4.83 -3.61 5.37 -1.86 0.44 -1.71 -0.29 0.24 -1.17 2.98 -1.37 3.22 -4.88 0.54 -6.69 -0.63 -0.39 -1.03 -0.93 -0.88 -1.17 0.34 -0.59 9.52 -0.54 10.40 0 0.59 0.34 0.49 0.68 -0.39 1.76 -1.27 1.66 -1.32 3.66 -0.10 5.18 0.83 1.03 1.46 1.22 5.32 1.42 2.44 0.15 5.22 0.10 6.20 -0.05 2 -0.34 4.15 -2.20 4.98 -4.30 0.59 -1.61 0.54 -7.03 -0.10 -8.59 -0.20 -0.54 -0.78 -1.95 -1.27 -3.13 -1.03 -2.34 -0.54 -2.44 -4.83 0.78 -3.22 2.44 -6.93 3.66 -12.01 3.96 -7.28 0.34 -13.18 -1.56 -17.77 -5.71 -1.95 -1.76 -2.10 -2.05 -1.32 -2.49 0.44 -0.29 0.83 -0.88 0.83 -1.22 0 -1.07 1.37 -0.88 1.71 0.20 0.44 1.46 2 2.54 3.71 2.59 1.86 0.05 3.42 -1.56 4.30 -4.59 0.34 -1.07 0.73 -1.86 0.88 -1.71 0.39 0.44 -0.78 3.56 -1.90 5.03 -0.59 0.68 -1.95 1.71 -3.03 2.20 -1.12 0.49 -1.71 0.93 -1.32 0.93 0.39 0 0.93 0.34 1.22 0.73 1.22 1.66 10.06 2.73 16.06 1.95 1.90 -0.24 4.25 -1.51 4.25 -2.25 0 -0.24 0.34 -0.44 0.73 -0.44 1.27 0 0.73 -0.68 -1.32 -1.71 -1.61 -0.78 -2.15 -1.42 -2.83 -3.27 -0.63 -1.61 -0.68 -2.34 -0.29 -2.54 0.29 -0.10 0.20 -0.24 -0.24 -0.24 -1.07 -0.05 -1.71 -2.49 -0.83 -3.03 0.49 -0.34 0.49 -0.44 0.05 -0.44 -0.34 0 -0.63 -0.20 -0.63 -0.49 0 -0.24 0.34 -0.49 0.73 -0.49 0.44 0 0.73 0.44 0.73 1.12 0 1.42 2.29 7.13 3.27 8.30 0.93 0.98 3.52 1.12 4.64 0.24 0.39 -0.34 0.98 -1.07 1.27 -1.61 0.49 -0.83 0.54 -0.88 0.59 -0.10 0 0.54 0.39 0.83 1.22 0.83 0.88 0 1.51 0.49 2.20 1.61 0.54 0.83 0.98 1.27 0.98 0.98 0 -0.34 0.24 -0.63 0.49 -0.63 0.34 0 0.34 0.29 0.05 0.88 -0.29 0.59 -0.34 1.07 -0.05 1.37 1.46 1.46 1.42 8.74 -0.05 11.77 -1.71 3.56 -3.13 4.10 -12.40 4.69 -1.61 0.10 -3.03 -0.15 -4.15 -0.73z m-3.91 -8.20 c0.54 -0.34 0.24 -0.49 -1.12 -0.49 -1.12 0 -1.76 0.20 -1.56 0.49 0.39 0.63 1.71 0.63 2.69 0z"/>
  <path d="M124.90 293.31 c-2.73 -1.22 -4.79 -5.22 -4.74 -9.23 0.05 -3.56 0.98 -6.35 2.34 -7.03 0.78 -0.39 0.93 -0.63 0.44 -0.83 -0.44 -0.20 -0.34 -0.29 0.24 -0.29 1.07 -0.05 1.03 0.10 -0.20 3.37 -1.51 3.91 -1.17 8.84 0.68 11.33 1.42 1.86 2.88 2.44 6.01 2.44 0.93 0 1.81 0.20 1.95 0.44 0.39 0.63 -5.22 0.49 -6.74 -0.20z"/>
  <path d="M208.50 284.72 c0 -8.15 0.15 -9.33 1.27 -9.33 0.54 0 0.68 1.46 0.68 7.76 0 8.15 -0.15 9.33 -1.27 9.33 -0.54 0 -0.68 -1.46 -0.68 -7.76z"/>
  <path d="M208.50 267.82 c0 -4.49 0.15 -5.62 0.68 -5.62 1.03 0 1.27 1.12 1.27 5.62 0 4.49 -0.24 5.62 -1.27 5.62 -0.54 0 -0.68 -1.12 -0.68 -5.62z"/>
  <path d="M140.38 272.36 c-1.37 -0.73 -2.83 -2.34 -2.15 -2.34 0.29 0 1.07 0.44 1.76 0.98 1.56 1.22 3.66 1.27 4.69 0.10 1.27 -1.42 1.03 -2.54 -0.63 -2.83 -0.78 -0.20 -1.46 -0.63 -1.46 -0.98 0 -0.78 1.76 -0.93 2.20 -0.20 0.20 0.29 0.54 0.39 0.78 0.24 0.24 -0.20 0.44 0.44 0.44 1.42 0 1.27 -0.34 1.95 -1.51 2.93 -1.61 1.37 -2.59 1.56 -4.10 0.68z"/>
  <path d="M157.71 270.51 c0 -1.51 -0.05 -1.66 -0.59 -2.34 -0.59 -0.68 -0.24 -1.32 0.44 -0.93 0.49 0.29 0.83 4.25 0.39 4.25 -0.15 0 -0.24 -0.44 -0.24 -0.98z"/>
  <path d="M126.95 269.43 c0 -0.44 -0.24 -0.88 -0.54 -0.98 -1.12 -0.39 1.07 -3.81 3.17 -5.03 2.73 -1.61 5.03 -1.51 6.79 0.34 1.27 1.37 1.76 3.47 0.93 4 -0.24 0.15 -0.29 -0.39 -0.20 -1.17 0.15 -1.07 -0.10 -1.56 -1.07 -2.20 -2.54 -1.71 -6.49 0.20 -8.15 3.86 -0.49 1.12 -0.93 1.66 -0.93 1.17z"/>
  <path d="M137.70 268.80 c0 -0.39 0.34 -0.73 0.73 -0.73 0.39 0 0.73 0.34 0.73 0.73 0 0.39 -0.34 0.73 -0.73 0.73 -0.39 0 -0.73 -0.34 -0.73 -0.73z"/>
  <path d="M139.31 267.77 c-0.34 -0.29 -0.44 -0.73 -0.29 -0.88 0.59 -0.54 2.49 -0.29 2.73 0.39 0.34 0.88 -1.71 1.32 -2.44 0.49z"/>
  <path d="M155.76 266.16 c0 -0.20 -0.98 -0.93 -2.20 -1.56 -1.81 -0.98 -2.39 -1.07 -3.56 -0.63 -1.61 0.63 -2.83 -0.15 -1.76 -1.17 0.63 -0.59 6.93 -0.34 6.35 0.24 -0.10 0.10 0.34 0.73 0.98 1.37 1.22 1.22 1.51 2.20 0.68 2.20 -0.24 0 -0.49 -0.20 -0.49 -0.44z"/>
  <path d="M208.50 259.28 c0 -1.51 0.20 -1.95 0.88 -1.95 0.68 0 0.73 -0.10 0.10 -0.49 -0.63 -0.39 -0.59 -0.49 0.15 -0.49 0.83 0 0.88 0.29 0.68 2.34 -0.15 1.27 -0.29 2.34 -0.29 2.44 -0.05 0.05 -0.39 0.10 -0.78 0.10 -0.54 0 -0.73 -0.54 -0.73 -1.95z"/>
  <path d="M121.44 258.54 c-2.98 -2.05 -5.08 -7.57 -2.88 -7.57 0.68 0 0.68 -0.10 0.15 -0.44 -1.07 -0.68 0.63 -4.10 2.83 -5.76 1.56 -1.22 2.25 -1.37 5.52 -1.42 3.47 -0.10 3.81 0 4.88 1.22 0.59 0.68 1.03 1.56 0.98 1.95 -0.10 0.34 0.05 0.49 0.29 0.34 0.54 -0.29 1.07 0.78 1.07 2.05 0 0.49 -0.68 1.37 -1.51 2.05 -3.32 2.64 -4.83 4 -4.83 4.49 0 0.88 -3.08 4.30 -3.86 4.30 -0.44 0 -1.61 -0.54 -2.64 -1.22z m5.42 -2.39 c1.22 -1.90 2.93 -3.71 4.44 -4.74 1.37 -0.93 2.49 -1.90 2.49 -2.20 0 -0.93 -1.95 -3.13 -3.56 -3.91 -3.13 -1.61 -8.06 0.24 -9.86 3.71 -1.03 1.95 -0.93 5.32 0.20 7.03 0.83 1.22 3.27 3.22 3.96 3.22 0.15 0 1.22 -1.42 2.34 -3.13z"/>
  <path d="M157.47 257.37 c-0.98 -1.32 -3.22 -3.71 -5.03 -5.37 -3.27 -2.98 -3.27 -2.98 -2.29 -4.79 1.95 -3.61 7.86 -5.22 11.38 -3.08 0.83 0.54 1.56 1.22 1.56 1.46 0 0.29 0.20 0.44 0.39 0.29 0.24 -0.15 0.93 0.73 1.51 1.95 0.88 1.76 1.07 2.69 0.83 4.74 -0.39 3.61 -0.39 3.71 -1.03 3.96 -0.44 0.15 -0.39 -0.34 0.10 -1.76 1.17 -3.47 -0.29 -7.18 -3.66 -9.08 -3.37 -1.86 -6.49 -1.22 -9.13 1.95 -1.32 1.56 -1.32 1.56 -0.20 2.44 3.71 2.83 5.03 4.15 6.79 6.79 2.39 3.56 1.32 4.05 -1.22 0.49z"/>
  <path d="M216.06 230.22 c0 -15.58 0.05 -22.02 0.10 -14.31 0.10 7.71 0.10 20.46 0 28.32 -0.05 7.86 -0.10 1.56 -0.10 -14.01z"/>
  <path d="M208.59 226.22 c-0.05 -15.82 0.05 -30.27 0.24 -32.23 0.34 -4.30 1.22 -5.52 4 -5.52 3.08 0 3.47 0.88 3.37 7.37 -0.10 5.57 -0.10 5.57 -0.34 0.29 -0.24 -3.91 -0.49 -5.37 -1.03 -5.71 -1.17 -0.73 -2.34 -0.59 -3.42 0.49 -0.98 0.98 -0.98 1.61 -0.98 31.69 0 16.89 -0.15 31.05 -0.29 31.49 -0.15 0.44 -0.59 0.78 -0.93 0.78 -0.49 0 -0.63 -5.91 -0.63 -28.66z"/>
  <path d="M247.27 242.04 c-0.39 -0.20 -0.68 -0.29 -0.68 -0.15 0 0.63 -5.66 -1.81 -8.15 -3.52 -3.52 -2.39 -6.74 -5.66 -6.30 -6.40 0.20 -0.29 0.05 -0.54 -0.29 -0.54 -0.39 0 -1.07 -0.68 -1.56 -1.51 -0.73 -1.27 -0.78 -1.61 -0.24 -1.95 0.54 -0.34 0.54 -0.44 -0.10 -0.44 -1.07 0 -1.66 -1.51 -0.83 -2.05 0.49 -0.29 0.39 -0.39 -0.20 -0.39 -0.49 0 -0.88 -0.34 -0.88 -0.73 0 -1.66 1.32 -0.54 2.15 1.86 4 11.28 15.72 17.43 28.22 14.75 4.74 -0.98 6.45 -1.95 10.35 -5.81 1.90 -1.86 3.66 -3.32 3.86 -3.27 0.24 0.05 0.29 -0.15 0.15 -0.39 -0.15 -0.24 0.20 -1.51 0.78 -2.78 0.93 -2 1.07 -3.32 1.12 -8.25 0 -5.86 0 -5.86 -12.21 -5.86 -12.21 0 -12.21 0 -12.21 4.39 0 4.39 0 4.39 6.74 4.54 6.74 0.15 6.74 0.15 5.62 2.15 -1.66 2.88 -4.69 4.83 -8.20 5.13 -3.42 0.34 -7.03 -0.49 -9.03 -2.05 -5.32 -4.05 -6.20 -14.84 -1.56 -20.12 4.25 -4.83 12.35 -5.27 16.65 -0.83 1.71 1.76 2.44 1.90 10.45 1.71 2.29 -0.05 2.54 -0.15 2.54 -1.17 0 -0.59 -0.83 -2.49 -1.81 -4.20 -4.35 -7.32 -13.18 -11.23 -22.46 -9.86 -4.59 0.68 -9.96 3.08 -12.94 5.81 -1.76 1.66 -2.20 1.86 -2.73 1.27 -0.54 -0.59 -0.24 -1.07 1.81 -3.08 2.69 -2.59 6.93 -4.88 10.06 -5.37 1.07 -0.15 4.59 -0.29 7.81 -0.29 5.81 0.05 5.91 0.05 9.72 1.95 2.88 1.46 4.54 2.69 6.74 5.13 2.78 2.98 2.93 3.13 3.61 2.20 0.44 -0.59 0.68 -2.20 0.68 -4.49 0 -4.54 0.24 -4.69 7.42 -4.49 5.03 0.15 5.47 0.24 6.15 1.32 0.54 0.83 0.59 1.27 0.15 1.71 -0.39 0.39 -0.54 0.34 -0.54 -0.29 0 -0.73 -0.68 -0.83 -5.86 -0.83 -5.86 0 -5.86 0 -5.76 23.05 0.15 23.10 0.15 23.10 1.61 23.34 1.46 0.29 1.46 0.29 -0.24 0.63 -2.49 0.54 -2.93 -0.34 -2.93 -6.05 0 -4.79 0 -4.79 -1.32 -3.56 -0.68 0.63 -1.51 1.66 -1.81 2.25 -0.88 1.71 -6.93 5.57 -10.64 6.79 -3.56 1.12 -11.38 1.61 -12.89 0.78z m10.11 -14.16 c1.56 -0.83 3.22 -2.64 2.78 -3.08 -0.10 -0.05 -2.59 -0.29 -5.52 -0.49 -2.98 -0.20 -5.52 -0.59 -5.71 -0.88 -0.20 -0.29 -0.39 -2.64 -0.39 -5.22 0 -3.71 0.15 -4.79 0.73 -5.03 0.39 -0.15 4 -0.29 8.06 -0.34 6.98 -0.05 7.32 -0.10 7.08 -0.98 -0.24 -0.68 -0.10 -0.93 0.59 -0.88 0.49 0 0.63 0.15 0.24 0.29 -0.78 0.29 -0.29 1.12 0.68 1.12 0.44 0 0.68 -0.34 0.59 -0.83 -0.15 -0.68 -0.68 -0.88 -2.73 -0.88 -2.29 -0.05 -2.78 -0.24 -4.10 -1.66 -2.15 -2.29 -5.47 -3.61 -7.96 -3.17 -1.07 0.20 -2.25 0.34 -2.59 0.24 -0.34 -0.05 -0.73 0.24 -0.88 0.63 -0.15 0.44 -0.44 0.68 -0.63 0.54 -0.44 -0.24 -2.69 1.90 -4.35 4.10 -0.63 0.83 -1.22 2.49 -1.42 3.91 -0.34 3.03 0.20 7.03 0.93 6.59 0.34 -0.24 0.44 0.10 0.20 0.93 -0.15 0.73 -0.05 1.42 0.29 1.61 0.34 0.24 0.39 0.15 0.15 -0.29 -0.24 -0.44 -0.20 -0.54 0.20 -0.29 0.29 0.20 0.44 0.59 0.29 0.83 -0.49 0.73 1.90 2.88 3.96 3.61 2.59 0.98 7.32 0.78 9.52 -0.39z"/>
  <path d="M319.82 242.48 c-0.15 -0.10 -0.88 -0.29 -1.71 -0.44 -0.78 -0.15 -2 -0.44 -2.69 -0.73 -0.68 -0.24 -1.42 -0.49 -1.71 -0.54 -1.17 -0.15 -2.20 -0.63 -2.20 -1.07 0 -0.24 -0.15 -0.39 -0.34 -0.34 -0.73 0.20 -2.59 -0.63 -2.34 -1.03 0.20 -0.34 -3.71 -3.47 -4.35 -3.47 -0.15 0 -0.29 0.34 -0.29 0.73 0 0.39 0.24 0.73 0.54 0.73 0.39 0 0.34 0.24 -0.10 0.78 -0.54 0.63 -0.68 0.68 -0.88 0.15 -0.15 -0.39 -0.49 0.39 -0.78 1.71 -0.88 4.05 -1.46 3.13 -1.32 -1.95 0.15 -3.52 0 -4.83 -0.49 -5.13 -0.34 -0.24 -3.66 -0.44 -7.32 -0.44 -6.74 0 -6.74 0 -6.64 -13.67 0.05 -7.52 0.24 -13.67 0.49 -13.67 0.20 0 0.39 1.90 0.39 4.30 0.05 12.40 0.29 20.56 0.59 20.90 0.20 0.15 2.93 0.34 6.10 0.39 5.76 0.05 5.76 0.05 5.62 -1.42 -0.10 -0.78 -0.39 -1.71 -0.68 -2.05 -0.39 -0.49 -0.29 -0.63 0.39 -0.68 0.83 0 0.83 -0.05 -0.10 -0.44 -1.17 -0.44 -1.66 -2.88 -1.66 -8.11 0 -2.69 0.15 -3.13 0.88 -3.13 0.68 0 0.83 0.34 0.68 1.90 -0.34 3.47 0.78 8.89 2.64 12.70 3.32 6.74 9.62 11.47 16.89 12.74 3.52 0.63 9.62 0.44 11.62 -0.39 0.68 -0.24 1.46 -0.54 1.71 -0.59 1.61 -0.39 4.79 -2.25 6.98 -4.20 5.47 -4.79 8.11 -10.94 7.96 -18.55 -0.29 -14.55 -12.99 -25.44 -27.25 -23.24 -9.62 1.51 -17.53 8.25 -19.73 16.89 -0.44 1.81 -0.73 2.25 -1.61 2.20 -0.98 0 -0.98 -0.05 -0.05 -0.44 0.54 -0.24 0.68 -0.44 0.39 -0.44 -0.98 -0.05 -0.78 -2 0.24 -2.05 0.49 0 0.59 -0.15 0.24 -0.29 -0.93 -0.34 -0.78 -1.42 0.63 -3.96 2.69 -4.83 5.52 -7.86 9.86 -10.64 3.66 -2.39 7.96 -3.27 14.26 -3.03 4.39 0.20 5.66 0.44 8.89 1.81 2.05 0.88 4.35 2.10 5.13 2.78 0.73 0.68 1.81 1.66 2.39 2.15 0.78 0.68 1.17 0.78 1.56 0.39 0.44 -0.44 0.59 -0.39 0.59 0.20 0 0.83 1.22 2.34 1.90 2.34 0.15 0 0.39 -0.54 0.44 -1.22 0.05 -0.68 -0.10 -1.22 -0.29 -1.22 -0.59 0 -0.59 -3.61 0.05 -4 0.39 -0.24 0.78 0.29 1.12 1.71 0.29 1.12 2.93 11.28 5.81 22.56 2.88 11.28 5.42 20.65 5.62 20.90 0.15 0.20 1.12 0.39 2.15 0.44 1.37 0.05 1.61 0.20 1.07 0.49 -1.27 0.73 -5.03 -0.05 -5.03 -0.98 0 -0.49 0.24 -0.98 0.54 -1.17 0.34 -0.24 0.20 -0.39 -0.29 -0.39 -1.03 0 -1.17 -1.27 -0.24 -1.61 0.39 -0.20 0.34 -0.29 -0.20 -0.29 -0.73 -0.05 -1.90 -3.47 -3.52 -10.30 -1.32 -5.81 -2.34 -8.79 -2.98 -8.79 -0.34 0 -0.63 0.29 -0.68 0.63 -0.39 3.32 -1.12 6.45 -1.95 8.35 -0.59 1.22 -0.88 2.25 -0.68 2.25 0.20 0 0.10 0.20 -0.15 0.39 -0.29 0.20 -1.12 1.27 -1.90 2.44 -2 2.98 -7.18 7.08 -10.55 8.40 -0.93 0.34 -1.95 0.83 -2.29 1.12 -0.34 0.24 -0.83 0.29 -1.12 0.10 -0.24 -0.15 -0.49 -0.10 -0.49 0.15 0 0.44 -9.33 0.83 -9.77 0.39z"/>
  <path d="M282.47 241.65 c-0.59 -0.24 0.54 -0.39 3.03 -0.39 2.29 -0.05 4.15 0.15 4.30 0.49 0.39 0.59 -5.76 0.54 -7.32 -0.10z"/>
  <path d="M294.68 241.70 c0.15 -0.24 1.46 -0.49 2.93 -0.49 1.46 0 2.78 0.24 2.93 0.49 0.20 0.29 -0.88 0.49 -2.93 0.49 -2.05 0 -3.13 -0.20 -2.93 -0.49z"/>
  <path d="M363.53 241.70 c-0.98 -0.24 0.15 -0.39 3.52 -0.44 4.30 -0.05 4.98 -0.15 5.22 -0.88 0.34 -1.22 1.86 -7.67 4.20 -17.97 1.07 -4.83 2.15 -9.18 2.34 -9.67 0.24 -0.63 1.56 3.96 3.96 13.77 3.61 14.70 3.61 14.70 6.45 14.70 1.61 0 2.98 0.24 3.17 0.59 0.59 0.88 -6.74 0.15 -7.42 -0.78 -0.29 -0.44 -0.88 -2.15 -1.32 -3.81 -3.91 -15.43 -3.96 -15.53 -4.88 -15.53 -0.49 0 -0.78 0.20 -0.63 0.44 0.15 0.24 0 0.54 -0.34 0.68 -0.39 0.15 -0.93 1.42 -1.22 2.88 -2.69 12.84 -3.37 15.23 -4.69 16.11 -0.68 0.49 -6.40 0.39 -8.35 -0.10z"/>
  <path d="M395.21 241.75 c0.20 -0.29 1.37 -0.54 2.78 -0.49 1.32 0.05 2.49 0 2.59 -0.10 0.29 -0.29 2.98 -10.40 3.52 -13.13 0.15 -0.68 0.39 -1.66 0.54 -2.20 0.44 -1.27 0.54 -1.66 0.88 -3.42 0.15 -0.78 0.83 -3.56 1.51 -6.10 2.29 -8.64 5.08 -19.97 5.08 -20.75 0 -0.68 -0.78 -0.73 -5.96 -0.63 -6.54 0.15 -6.15 -0.10 -7.03 4.30 -0.15 0.68 -0.63 2.98 -1.17 5.13 -1.46 6.40 -2.78 12.45 -3.71 16.99 -0.44 2.34 -1.03 4.10 -1.22 3.91 -0.20 -0.20 -1.46 -5.13 -2.78 -10.89 -5.13 -21.83 -3.81 -19.53 -11.18 -19.53 -6.45 0 -6.45 0 -6.98 1.95 -0.24 1.07 -0.73 2.88 -1.03 4.05 -0.29 1.12 -0.63 2.59 -0.78 3.22 -0.10 0.63 -0.54 2.49 -0.93 4.15 -0.39 1.66 -0.83 3.42 -0.93 3.96 -0.10 0.54 -0.44 1.86 -0.68 2.93 -0.24 1.07 -0.83 3.61 -1.32 5.62 -1.12 5.03 -1.46 5.52 -2.05 3.17 -0.68 -2.69 -3.56 -16.31 -3.71 -17.58 -0.05 -0.54 -0.24 -1.22 -0.39 -1.46 -0.15 -0.29 -0.54 -1.81 -0.88 -3.42 -1.42 -7.28 -0.68 -6.69 -8.35 -6.49 -3.76 0.05 -6.79 -0.05 -6.79 -0.29 0 -1.27 1.90 -1.71 7.37 -1.76 4.79 0 5.76 0.15 6.45 0.88 0.39 0.44 1.32 3.27 2.05 6.20 0.68 2.98 1.56 6.35 1.90 7.57 0.39 1.22 0.83 2.93 1.03 3.81 0.20 0.88 0.73 1.81 1.22 2.05 0.49 0.29 0.98 0.98 1.07 1.56 0.15 0.78 0.39 0.34 0.88 -1.42 0.44 -1.71 0.93 -2.59 1.42 -2.64 0.54 0 0.59 -0.10 0.20 -0.29 -0.93 -0.34 -0.78 -1.61 0.24 -1.61 0.63 0 0.68 -0.10 0.15 -0.44 -0.93 -0.59 0.24 -5.91 1.37 -5.91 0.63 0 0.63 -0.10 0.10 -0.44 -0.93 -0.59 -0.24 -3.47 0.83 -3.52 0.54 0 0.59 -0.10 0.24 -0.29 -0.93 -0.34 -0.78 -1.61 0.24 -1.66 0.49 0 0.59 -0.15 0.24 -0.29 -0.93 -0.34 -0.78 -1.61 0.24 -1.66 0.54 0 0.59 -0.10 0.20 -0.29 -0.49 -0.20 -0.49 -0.39 -0.05 -0.93 0.39 -0.49 1.90 -0.68 5.76 -0.68 6.79 0 8.59 0.54 9.28 2.59 0.29 0.88 0.54 1.71 0.59 1.90 0 0.20 0.24 1.07 0.49 1.95 0.29 0.88 0.59 2.15 0.73 2.78 0.15 0.63 0.54 1.76 0.93 2.54 0.39 0.73 0.73 2.05 0.73 2.93 0 2.05 1.03 5.37 1.51 5.03 0.24 -0.15 0.44 0.15 0.44 0.63 0.05 1.37 1.27 2.69 2.29 2.44 0.78 -0.20 0.78 -0.24 0.05 -0.29 -1.03 -0.05 -1.07 -0.34 -0.44 -2.29 0.24 -0.78 0.59 -2 0.73 -2.73 0.15 -0.68 0.68 -1.42 1.17 -1.51 0.78 -0.20 0.78 -0.24 0 -0.29 -1.03 -0.05 -0.63 -1.51 0.39 -1.51 0.83 0 0.93 -0.83 0.15 -1.07 -0.88 -0.29 0 -3.81 0.98 -3.81 0.59 0 0.63 -0.10 0.15 -0.44 -0.93 -0.59 -0.24 -3.96 0.83 -4 0.49 0 0.54 -0.10 0.20 -0.29 -0.88 -0.34 -0.78 -1.03 0.24 -1.27 0.78 -0.20 0.78 -0.24 0 -0.29 -0.98 -0.05 -0.68 -1.42 0.49 -2.34 1.22 -0.98 12.01 -0.88 12.79 0.10 0.78 0.93 0.73 3.42 -0.05 6.25 -0.34 1.12 -0.54 2.34 -0.49 2.73 0.05 0.39 -0.10 0.83 -0.34 0.98 -0.29 0.15 -0.59 0.98 -0.73 1.76 -0.15 0.83 -0.54 2.29 -0.83 3.32 -0.29 1.07 -0.44 2 -0.34 2.15 0.15 0.10 -0.05 0.78 -0.39 1.46 -0.39 0.73 -0.59 1.46 -0.44 1.71 0.15 0.24 0.05 0.73 -0.24 1.07 -0.29 0.34 -0.59 1.37 -0.63 2.29 -0.10 0.93 -0.24 1.76 -0.44 1.90 -0.15 0.15 -0.59 1.81 -1.03 3.66 -1.07 4.69 -2.29 9.62 -2.64 10.50 -0.15 0.39 -0.24 0.78 -0.29 0.83 -0.10 0.88 -1.86 7.13 -2 7.32 -0.15 0.15 -1.61 0.34 -3.32 0.49 -2.25 0.24 -2.93 0.15 -2.69 -0.29z"/>
  <path d="M320.17 230.27 c-5.18 -1.42 -8.40 -6.45 -8.30 -12.79 0.15 -9.13 8.15 -14.99 16.36 -11.91 7.62 2.83 10.11 12.94 5.08 20.51 -2.54 3.86 -8.06 5.66 -13.13 4.20z m9.03 -2.98 c1.03 -0.68 2.44 -2.15 3.17 -3.27 1.22 -1.81 1.37 -2.44 1.37 -6.20 0 -3.47 -0.20 -4.59 -1.12 -6.40 -1.51 -2.83 -3.03 -4.49 -3.91 -4.15 -0.39 0.15 -1.12 -0.10 -1.61 -0.54 -1.61 -1.46 -4.83 -1.42 -7.81 0.05 -3.03 1.56 -5.32 3.71 -5.32 5.08 0 0.54 -0.24 1.03 -0.54 1.12 -0.29 0.10 -0.63 1.56 -0.78 3.27 -0.20 1.95 -0.10 3.03 0.20 2.83 0.24 -0.15 0.39 0.34 0.34 1.17 -0.05 0.78 0.10 1.42 0.39 1.42 0.24 0 0.29 0.24 0.15 0.54 -0.44 0.68 2.05 4.35 2.93 4.35 0.44 0 0.88 0.34 1.03 0.73 0.20 0.39 0.49 0.59 0.73 0.44 0.24 -0.15 0.93 0.10 1.51 0.54 1.66 1.17 6.88 0.63 9.28 -0.98z"/>
  <path d="M227.34 221.63 c-0.15 -0.83 -0.29 -2.93 -0.29 -4.64 0 -2.44 0.15 -3.13 0.73 -3.13 0.39 0 0.73 -0.20 0.73 -0.49 0 -0.24 -0.20 -0.49 -0.49 -0.49 -0.24 0 -0.49 -0.34 -0.49 -0.73 0 -0.39 0.34 -0.73 0.73 -0.73 0.39 0 0.73 -0.20 0.73 -0.49 0 -0.24 -0.20 -0.49 -0.49 -0.49 -0.88 0 -0.54 -0.98 0.39 -1.03 0.49 0 0.59 -0.15 0.24 -0.29 -0.93 -0.34 -0.78 -1.12 0.24 -1.12 0.63 0 0.68 -0.10 0.20 -0.44 -0.54 -0.34 -0.49 -0.78 0.34 -2.29 1.32 -2.49 2.25 -3.61 2.93 -3.61 0.78 0 0.68 1.71 -0.15 2.39 -0.39 0.34 -1.42 2.29 -2.29 4.35 -1.46 3.47 -1.56 4.20 -1.61 9.28 0 3.86 -0.15 5.47 -0.59 5.47 -0.29 0 -0.68 -0.68 -0.88 -1.51z"/>
 </g>
 <g fill="#a11430">
  <path d="M219.53 333.15 c-0.54 -0.54 -0.29 -1.12 0.44 -1.12 0.39 0 0.73 0.20 0.73 0.44 0 0.63 -0.78 1.07 -1.17 0.68z"/>
  <path d="M197.51 295.36 c-0.49 -0.68 -0.05 -1.03 0.93 -0.63 0.44 0.15 0.63 0.49 0.49 0.73 -0.34 0.59 -1.03 0.54 -1.42 -0.10z"/>
  <path d="M196.97 292.72 c-0.20 -0.44 -0.20 -1.32 -0.10 -1.95 0.24 -1.22 -0.34 -1.76 -0.68 -0.68 -0.34 0.98 -1.81 -0.93 -2.05 -2.64 -1.56 -10.94 -3.37 -25.54 -4.20 -33.54 -0.83 -8.35 -0.88 -8.84 -1.66 -13.67 -0.44 -2.54 -0.78 -5.37 -0.78 -6.25 0 -1.42 0.15 -1.56 0.98 -1.32 0.54 0.20 0.98 0.10 0.98 -0.20 0 -0.29 -0.44 -0.54 -0.93 -0.54 -1.07 0 -1.51 -0.93 -1.51 -3.03 0 -1.27 0.10 -1.42 0.73 -0.88 0.83 0.68 2.20 0.34 2.20 -0.59 0 -0.39 -0.44 -1.03 -0.98 -1.51 -0.54 -0.44 -0.98 -0.59 -0.98 -0.34 0 0.29 -0.29 0.49 -0.68 0.49 -0.68 0 -0.98 -1.07 -1.56 -6.05 -0.34 -2.88 -0.34 -2.88 0.93 -2.64 0.73 0.15 1.37 0 1.46 -0.29 0.10 -0.29 0.39 -0.39 0.59 -0.20 0.39 0.39 -0.15 1.81 -1.32 3.42 -0.54 0.73 -0.44 1.07 0.73 2.10 0.73 0.68 1.32 1.03 1.32 0.73 0 -0.78 1.27 0.59 1.66 1.76 0.59 1.90 1.66 11.72 1.42 12.99 -0.15 0.73 0.10 2.25 0.54 3.32 0.44 1.07 0.78 3.03 0.78 4.30 0 1.27 0.34 4.15 0.73 6.45 0.63 3.91 1.81 13.43 2.44 20.51 0.20 1.76 0.44 3.86 0.54 4.64 0.15 0.83 0.24 2.44 0.24 3.61 0 1.22 0.15 2.39 0.39 2.69 0.24 0.29 0.44 1.07 0.44 1.76 0 0.68 0.20 2.54 0.44 4.20 0.24 1.61 0.34 3.22 0.24 3.52 -0.24 0.83 -2.05 0.73 -2.34 -0.15z"/>
  <path d="M89.75 284.42 c-0.15 -0.29 -0.29 -1.12 -0.29 -1.90 0.05 -1.56 -1.17 -2.73 -2.69 -2.73 -0.83 0 -0.93 -0.24 -0.68 -2.05 2.25 -17.19 2.98 -22.27 3.27 -23.10 0.24 -0.54 0.39 -1.71 0.39 -2.59 -0.05 -1.66 1.12 -3.13 1.51 -1.90 0.10 0.34 0.44 0.73 0.73 0.93 0.29 0.24 0.05 0.39 -0.54 0.39 -1.17 0 -1.66 1.46 -0.49 1.46 0.44 0 0.44 0.10 0.05 0.39 -0.44 0.24 -0.39 0.54 0.10 0.98 0.59 0.49 0.68 0.49 0.68 -0.15 0 -0.39 0.29 -0.73 0.63 -0.73 0.44 0 0.63 -0.63 0.54 -2.05 -0.05 -1.17 0.05 -1.81 0.15 -1.46 0.15 0.29 0.54 0.59 0.93 0.59 0.44 0 0.63 0.20 0.49 0.44 -0.15 0.20 -0.39 2.20 -0.49 4.35 -0.15 2.20 -0.34 4.20 -0.49 4.44 -0.20 0.24 -0.44 2.10 -0.59 4.05 -0.10 1.95 -0.44 4.98 -0.73 6.74 -0.29 1.76 -0.63 4.49 -0.78 6.10 -0.15 1.61 -0.49 3.17 -0.73 3.52 -0.24 0.34 -0.34 0.78 -0.24 0.98 0.15 0.24 0.10 1.17 -0.10 2.10 -0.20 0.93 -0.44 1.46 -0.63 1.22z m2.98 -28.42 c0 -0.78 -0.15 -1.12 -0.24 -0.83 -0.15 0.34 -0.68 0.44 -1.27 0.29 -0.88 -0.20 -0.93 -0.15 -0.44 0.83 0.83 1.51 2 1.32 1.95 -0.29z"/>
  <path d="M117.38 237.70 c0.15 -0.63 0.29 -1.71 0.29 -2.44 0 -1.03 0.29 -1.42 1.22 -1.66 0.68 -0.15 1.22 -0.59 1.22 -0.93 0 -1.07 1.95 -0.24 2.25 0.98 0.15 0.59 0.20 1.90 0.10 2.98 -0.15 1.90 -0.15 1.90 -2.78 2.05 -2.54 0.15 -2.59 0.10 -2.29 -0.98z"/>
  <path d="M162.01 238.48 c-0.49 -0.49 0.20 -2.15 0.88 -2.15 0.39 0 0.68 0.20 0.68 0.44 0 0.24 0.49 0.63 1.03 0.78 0.83 0.29 0.93 0.44 0.39 0.78 -0.78 0.49 -2.59 0.59 -2.98 0.15z"/>
  <path d="M91.80 237.06 c0 -0.39 0.24 -0.73 0.49 -0.73 0.29 0 0.49 0.34 0.49 0.73 0 0.39 -0.20 0.73 -0.49 0.73 -0.24 0 -0.49 -0.34 -0.49 -0.73z"/>
  <path d="M95.21 234.42 c0 -0.59 0.24 -1.03 0.49 -1.03 0.29 0 0.49 0.29 0.49 0.68 0 0.39 -0.20 0.88 -0.49 1.03 -0.24 0.15 -0.49 -0.15 -0.49 -0.68z"/>
  <path d="M96.78 231.93 c-0.05 -0.39 -0.68 -1.17 -1.37 -1.81 -1.27 -1.07 -1.27 -1.07 0 -1.42 1.71 -0.39 1.86 -0.20 1.61 2.05 -0.10 1.07 -0.20 1.56 -0.24 1.17z"/>
  <path d="M162.60 230.18 c0 -0.39 -0.20 -0.63 -0.44 -0.49 -0.29 0.20 -0.44 -3.56 -0.39 -9.08 0.10 -8.54 0.20 -9.42 0.98 -9.57 0.59 -0.10 0.83 0.15 0.83 0.83 0 0.78 0.29 1.03 1.22 1.03 0.98 0 1.22 -0.24 1.22 -1.22 0 -0.88 0.20 -1.12 0.73 -0.93 0.39 0.20 0.73 0.05 0.73 -0.24 0 -0.59 2.83 -0.73 4.10 -0.24 0.44 0.15 0.78 0.59 0.78 0.98 0 0.39 0.39 0.68 0.88 0.68 0.49 0 1.17 0.29 1.51 0.63 0.54 0.49 0.68 0.49 0.88 0 0.15 -0.34 0.98 -0.63 1.86 -0.63 1.42 0 1.56 0.15 1.37 1.03 -0.29 0.98 -0.15 1.03 1.46 0.73 2.49 -0.44 4.25 0.10 4.79 1.56 0.68 1.76 0.20 1.90 -2.15 0.63 -1.56 -0.88 -2.88 -1.12 -5.27 -1.17 -4.64 0 -9.38 0.39 -10.06 0.78 -0.39 0.24 -0.63 0.15 -0.63 -0.34 0 -0.44 -0.34 -0.78 -0.73 -0.78 -0.39 0 -1.17 -0.24 -1.71 -0.59 -1.17 -0.73 -1.51 -0.44 -1.12 0.98 0.15 0.63 0.63 1.07 1.17 1.07 0.54 0 0.93 0.29 0.93 0.68 0 0.39 0.24 0.78 0.49 0.88 0.34 0.10 0.34 0.68 0.05 1.76 -0.29 0.98 -0.29 1.56 0 1.56 0.68 0 0.54 1.32 -0.29 2.10 -0.39 0.39 -0.54 0.83 -0.39 1.03 0.20 0.15 0.05 0.29 -0.24 0.29 -0.34 0 -0.59 0.34 -0.59 0.73 0 0.39 -0.20 0.73 -0.49 0.73 -0.24 0 -0.49 0.44 -0.49 0.93 0 0.54 -0.20 1.07 -0.39 1.22 -0.24 0.15 -0.34 0.93 -0.20 1.76 0.10 0.78 0.10 1.46 -0.10 1.46 -0.15 0 -0.29 -0.34 -0.29 -0.78z m2.44 -12.94 c0 -0.24 -0.34 -0.44 -0.73 -0.44 -0.39 0 -0.73 0.34 -0.73 0.73 0 0.44 0.29 0.59 0.73 0.44 0.39 -0.20 0.73 -0.49 0.73 -0.73z m2.64 -3.91 c-0.15 -0.29 0 -0.73 0.34 -0.98 0.34 -0.20 0.49 -0.54 0.29 -0.78 -0.44 -0.39 -1.32 0.73 -1.32 1.71 0 0.29 0.24 0.59 0.54 0.59 0.24 0 0.34 -0.24 0.15 -0.54z"/>
  <path d="M121.39 226.46 c-0.10 -0.34 -0.34 -1.22 -0.49 -1.95 -0.20 -0.93 -0.63 -1.37 -1.27 -1.37 -0.54 0 -0.98 0.24 -0.98 0.49 0 0.98 -0.73 0.44 -0.83 -0.59 -0.34 -3.81 -0.83 -5.13 -2.49 -6.84 -0.98 -1.03 -1.61 -2 -1.42 -2.15 0.20 -0.20 0.34 -0.10 0.34 0.24 0 0.34 0.54 -0.05 1.22 -0.83 1.46 -1.71 1.46 -1.95 0.39 -2.88 -0.78 -0.63 -0.73 -0.63 0.63 -0.39 1.03 0.20 1.71 0.05 2.15 -0.49 0.88 -1.07 2.93 -0.98 2.93 0.15 0 0.49 0.44 1.37 0.98 1.95 1.03 1.07 2.15 1.32 5.52 1.12 0.98 -0.10 1.81 0.05 1.81 0.29 0 0.24 0.39 0.44 0.88 0.44 0.44 -0.05 0.83 0.20 0.83 0.44 0 0.29 -0.54 0.49 -1.22 0.54 -0.68 0 -2.29 0.20 -3.56 0.39 -3.03 0.49 -4.25 2.25 -4.25 6.05 0 1.42 -0.24 3.08 -0.54 3.61 -0.39 0.73 -0.39 1.07 0.05 1.37 0.44 0.24 0.44 0.44 0.05 0.68 -0.29 0.20 -0.63 0.05 -0.73 -0.29z m0.29 -15.14 c-0.29 -0.29 -0.78 -0.34 -1.07 -0.15 -0.44 0.29 -0.44 0.44 0.05 0.78 0.83 0.49 1.66 0 1.03 -0.63z"/>
  <path d="M96.48 223.24 c-0.39 -0.63 0.68 -3.52 1.27 -3.52 0.29 0 0.39 -0.49 0.24 -1.07 -0.15 -0.59 -0.05 -1.46 0.20 -1.95 0.59 -1.12 0.44 -1.42 -0.98 -1.51 -0.68 -0.05 -0.98 -0.34 -0.88 -0.83 0.10 -0.49 0.63 -0.68 1.56 -0.63 0.78 0.05 1.71 -0.15 2.05 -0.44 0.44 -0.34 0.63 -0.34 0.63 0.05 0 0.29 0.44 0.54 0.93 0.54 1.32 0 1.86 0.98 0.83 1.56 -2.10 1.17 -3.27 2.73 -3.86 5.27 -0.68 2.54 -1.42 3.47 -2 2.54z"/>
  <path d="M93.65 221.83 c-0.10 -2.05 0 -2.73 0.59 -4.30 0.73 -2 1.07 -1.22 0.54 1.27 -0.24 1.17 -0.29 2.34 -0.05 2.64 0.20 0.29 0.10 0.73 -0.29 1.12 -0.59 0.54 -0.68 0.39 -0.78 -0.73z"/>
  <path d="M109.62 213.87 c1.37 -0.59 1.81 -0.59 1.46 0 -0.15 0.29 -0.78 0.49 -1.37 0.44 -1.03 0 -1.03 -0.05 -0.10 -0.44z"/>
  <path d="M117.87 202.93 c-0.34 -1.42 0.63 -6.01 1.37 -6.45 0.78 -0.49 1.07 0.24 0.39 1.03 -0.34 0.44 -0.73 2.05 -0.83 3.56 -0.24 3.22 -0.44 3.66 -0.93 1.86z"/>
  <path d="M121.34 201.17 c-0.15 -0.24 0.05 -0.49 0.44 -0.49 1.12 0 0.98 -1.03 -0.20 -1.32 -1.17 -0.29 -1.22 -0.59 -0.29 -1.32 0.39 -0.29 0.83 -1.37 1.03 -2.44 0.29 -1.81 0.29 -1.86 -0.93 -1.66 -0.68 0.15 -1.27 0.10 -1.27 -0.15 0 -1.12 1.17 -3.17 2.73 -4.69 1.71 -1.61 1.76 -1.66 2.73 -0.83 1.07 1.03 2.29 0.54 3.08 -1.17 0.24 -0.63 0.78 -0.98 1.12 -0.83 0.39 0.15 1.22 -0.20 1.90 -0.73 0.68 -0.54 1.81 -0.98 2.54 -0.98 0.98 0 1.12 0.10 0.54 0.49 -0.63 0.44 -0.63 0.49 0 0.49 0.39 0 1.03 -0.44 1.37 -1.03 0.68 -1.07 0.73 -1.07 4.49 -0.05 1.71 0.49 1.71 0.49 0.15 0.54 -1.71 0.05 -6.10 1.07 -6.49 1.51 -0.15 0.15 -1.46 1.03 -2.98 1.90 -2.10 1.27 -3.27 2.44 -5.18 5.37 -1.37 2.05 -2.73 4.64 -3.03 5.81 -0.59 2 -1.17 2.54 -1.76 1.56z"/>
  <path d="M161.82 200.78 c-0.88 -0.59 -1.71 -3.52 -1.03 -3.52 0.39 0 0.39 -0.15 -0.05 -0.44 -0.63 -0.39 -2.05 -2.78 -2.05 -3.47 0 -0.20 0.93 -0.20 2.05 0 1.32 0.24 2.20 0.20 2.39 -0.10 0.44 -0.68 1.71 1.37 2.15 3.42 0.24 1.07 0.15 1.56 -0.29 1.56 -0.34 0 -0.49 -0.15 -0.29 -0.29 0.15 -0.15 0 -0.59 -0.29 -0.93 -0.44 -0.49 -0.73 -0.10 -1.32 1.76 -0.44 1.51 -0.93 2.25 -1.27 2z"/>
  <path d="M155.52 189.94 c-0.98 -1.61 -8.25 -4.88 -10.84 -4.88 -1.22 0 -1.51 -0.68 -0.54 -1.27 0.29 -0.20 0.68 -0.10 0.78 0.24 0.15 0.44 0.49 0.39 1.37 -0.20 1.51 -0.98 4.93 -0.49 5.71 0.78 0.34 0.54 0.98 0.93 1.46 0.93 0.54 0 1.03 0.44 1.17 0.98 0.15 0.54 0.68 0.98 1.22 0.98 0.78 0 0.83 0.15 0.39 0.98 -0.29 0.54 -0.39 1.22 -0.24 1.46 0.15 0.29 0.20 0.49 0.05 0.49 -0.15 0 -0.39 -0.24 -0.54 -0.49z"/>
 </g>
</svg>