<?xml version="1.0" standalone="no"?>
<!DOCTYPE svg PUBLIC "-//W3C//DTD SVG 20010904//EN"
 "http://www.w3.org/TR/2001/REC-SVG-20010904/DTD/svg10.dtd">
<svg version="1.0" xmlns="http://www.w3.org/2000/svg"
 width="600.000000pt" height="600.000000pt" viewBox="0 0 600.000000 600.000000"
 preserveAspectRatio="xMidYMid meet">
<g transform="translate(0.000000,600.000000) scale(0.100000,-0.100000)"
fill="#000000" stroke="none">
<path d="M1040 4291 c0 -7 -22 -11 -55 -11 -30 0 -55 -4 -55 -10 0 -5 -10 -10
-22 -10 -19 0 -20 -2 -8 -10 12 -8 9 -10 -13 -10 -16 0 -26 -4 -22 -10 3 -5 1
-10 -5 -10 -11 0 -25 -10 -65 -47 -13 -13 -29 -23 -35 -23 -6 0 -8 -4 -5 -10
3 -5 -1 -10 -9 -10 -10 0 -16 -9 -16 -22 0 -12 -3 -19 -6 -15 -9 9 -34 -19
-34 -37 0 -9 -4 -16 -10 -16 -5 0 -10 -9 -10 -20 0 -11 -4 -20 -10 -20 -5 0
-12 -27 -16 -60 -4 -33 -11 -63 -15 -66 -5 -3 -8 -31 -7 -62 l1 -57 7 55 7 55
1 -57 2 -58 -147 -1 c-92 0 -140 -4 -128 -9 16 -7 13 -9 -17 -9 -21 -1 -38 -5
-38 -11 0 -5 -3 -9 -7 -9 -21 3 -33 -2 -33 -15 0 -23 19 -29 36 -12 8 9 23 16
33 16 10 0 21 3 24 7 4 3 64 7 134 8 148 2 146 2 139 14 -3 5 1 12 10 15 9 3
14 13 10 21 -3 8 -1 17 5 20 5 4 6 12 2 18 -10 16 -13 37 -5 37 4 0 8 18 9 40
4 60 11 93 23 100 6 4 10 11 9 16 -4 16 13 44 22 38 5 -3 6 1 4 9 -3 7 3 22
15 32 11 10 20 24 20 31 0 7 9 16 21 19 11 4 18 9 15 13 -9 8 33 34 44 27 6
-3 7 1 4 9 -7 18 7 21 22 6 7 -7 11 -6 11 4 0 8 -5 12 -10 9 -6 -3 -7 -1 -3 5
4 7 14 12 23 12 9 0 24 7 32 14 16 14 42 21 126 33 74 10 157 4 148 -10 -4 -6
-1 -7 6 -3 11 7 120 -30 131 -44 3 -4 13 -9 22 -13 12 -4 15 -12 11 -24 -6
-16 -5 -16 10 -4 11 9 17 10 17 2 0 -6 11 -16 25 -23 13 -6 22 -14 20 -19 -3
-4 1 -14 9 -22 8 -8 12 -18 8 -22 -4 -5 -2 -5 4 -2 11 7 54 -61 54 -85 0 -8 7
-30 16 -48 11 -21 17 -60 18 -112 1 -79 1 -80 29 -85 21 -4 25 -8 15 -14 -15
-10 -22 -9 117 -13 151 -4 157 -4 149 -17 -4 -7 0 -9 13 -5 22 7 69 -36 59
-53 -5 -7 -1 -8 10 -4 12 4 15 3 10 -5 -4 -7 -2 -12 4 -12 6 0 8 -4 5 -10 -3
-5 -2 -10 4 -10 13 0 29 -56 31 -115 2 -60 7 -100 15 -140 4 -16 9 -73 12
-125 2 -52 8 -97 11 -100 4 -3 8 -16 9 -30 6 -55 41 -357 46 -380 15 -88 26
-169 25 -195 0 -16 5 -61 11 -100 6 -38 9 -75 7 -82 -3 -7 -1 -13 4 -13 12 0
14 -163 3 -174 -5 -4 -8 -11 -8 -14 -3 -28 -19 -53 -31 -48 -8 3 -12 2 -9 -3
3 -5 -15 -31 -39 -57 -25 -26 -42 -52 -39 -57 3 -6 1 -7 -6 -3 -6 4 -25 1 -41
-8 -27 -13 -140 -15 -848 -15 -449 0 -829 2 -844 6 -16 3 -28 11 -28 18 0 8
-8 11 -20 8 -14 -4 -20 0 -20 11 0 10 -7 16 -17 14 -9 -2 -22 7 -28 19 -7 13
-15 20 -20 15 -4 -4 -6 0 -3 9 4 9 2 22 -3 30 -7 11 -9 10 -10 -6 0 -12 -12 5
-28 39 -22 49 -27 72 -25 130 2 78 9 152 19 206 4 19 7 56 7 83 -1 31 3 45 10
41 7 -4 8 -2 4 4 -3 6 -2 37 4 69 12 69 20 141 24 203 2 25 8 72 14 105 6 33
14 96 16 140 6 80 12 128 22 154 2 8 9 71 14 140 6 72 15 128 21 132 6 4 9 11
5 17 -3 6 0 13 6 15 10 4 10 6 1 6 -16 1 12 80 35 99 12 9 13 15 4 24 -16 16
-52 -17 -52 -49 0 -14 -4 -21 -10 -18 -6 4 -10 -16 -11 -52 -1 -48 -3 -53 -9
-28 -5 21 -8 -1 -10 -70 -1 -67 -5 -92 -10 -75 -5 17 -8 -3 -9 -62 -1 -51 -5
-88 -11 -88 -5 0 -9 -10 -9 -22 3 -68 -16 -300 -22 -273 -4 18 -8 -13 -9 -80
-2 -74 -5 -100 -10 -80 -5 21 -8 2 -10 -65 -2 -70 -5 -86 -10 -60 -6 27 -8 18
-9 -42 0 -43 -5 -78 -9 -78 -5 0 -12 -64 -16 -142 -3 -79 -11 -144 -16 -146
-6 -2 -6 -10 0 -20 5 -9 12 -43 15 -74 4 -32 11 -58 16 -58 5 0 9 -10 9 -22 0
-12 3 -19 6 -15 9 9 34 -19 34 -37 0 -9 7 -16 15 -16 8 0 15 -4 15 -8 0 -5 18
-17 40 -27 22 -10 40 -22 40 -27 0 -4 19 -8 43 -9 32 0 37 -2 22 -9 -11 -5
343 -8 820 -8 462 0 827 4 810 8 -27 7 -25 8 18 9 26 0 47 5 47 10 0 8 19 16
43 19 5 0 17 10 26 21 10 12 23 21 30 21 6 0 10 3 10 8 -3 19 2 33 11 27 6 -3
10 1 10 10 0 9 5 13 10 10 6 -3 10 3 10 14 0 12 5 21 10 21 6 0 10 9 10 19 0
11 5 23 10 26 6 4 10 55 10 121 0 74 -4 113 -10 109 -6 -4 -10 28 -11 87 -1
67 -4 83 -9 58 -5 -24 -8 -2 -10 75 -1 72 -5 101 -10 85 -6 -18 -9 -1 -10 55
-1 53 -4 73 -10 60 -5 -13 -10 18 -13 90 -3 61 -8 126 -12 145 -4 19 -9 84
-12 144 -3 67 -9 103 -14 95 -5 -9 -9 16 -10 66 0 54 -3 74 -9 60 -6 -13 -9
17 -9 85 -1 72 -4 100 -11 90 -7 -11 -10 -6 -10 20 0 23 -7 40 -19 49 -11 8
-16 21 -13 33 2 10 1 18 -4 17 -22 -4 -34 2 -34 16 0 14 -12 19 -32 16 -5 0
-8 4 -8 9 0 6 -17 10 -37 11 -34 1 -35 2 -13 9 15 5 -37 8 -130 9 -92 1 -149
5 -141 10 10 7 12 25 7 77 -3 38 -7 79 -8 92 -1 12 -6 22 -10 22 -4 0 -8 14
-8 31 0 17 -4 28 -10 24 -6 -4 -10 5 -10 20 0 15 -4 24 -10 20 -5 -3 -10 1
-10 10 0 17 -29 53 -31 38 0 -4 -5 3 -11 17 -6 14 -10 28 -10 33 1 4 -7 7 -18
7 -14 0 -20 7 -20 21 0 11 -4 17 -10 14 -5 -3 -17 3 -27 15 -10 11 -23 20 -31
20 -7 0 -10 5 -7 10 4 6 -7 10 -27 10 -25 0 -29 3 -18 10 11 7 6 10 -20 10
-24 0 -31 3 -21 9 9 6 -5 11 -45 14 -32 3 -85 9 -116 12 -40 5 -58 4 -58 -4z
m-672 -2368 c-10 -2 -28 -2 -40 0 -13 2 -5 4 17 4 22 1 32 -1 23 -4z m165 0
c-7 -2 -21 -2 -30 0 -10 3 -4 5 12 5 17 0 24 -2 18 -5z m490 0 c-13 -2 -33 -2
-45 0 -13 2 -3 4 22 4 25 0 35 -2 23 -4z m570 0 c-7 -2 -19 -2 -25 0 -7 3 -2
5 12 5 14 0 19 -2 13 -5z m230 0 c-13 -2 -33 -2 -45 0 -13 2 -3 4 22 4 25 0
35 -2 23 -4z"/>
<path d="M1100 4256 c0 -2 7 -7 16 -10 8 -3 12 -2 9 4 -6 10 -25 14 -25 6z"/>
<path d="M1011 4173 c-9 -7 -28 -13 -43 -13 -17 0 -31 -8 -38 -20 -6 -11 -16
-20 -23 -20 -7 0 -6 4 3 10 8 5 11 10 5 10 -11 0 -44 -20 -33 -20 12 0 -47
-57 -77 -74 -16 -10 -22 -15 -12 -12 15 5 14 -1 -8 -39 -13 -25 -22 -45 -18
-45 3 0 -1 -8 -9 -17 -10 -11 -15 -33 -14 -55 2 -21 0 -35 -4 -33 -4 3 -8 -18
-8 -46 0 -38 4 -52 17 -57 9 -3 19 -10 23 -16 4 -6 95 -9 247 -9 l241 2 0 -24
c0 -57 4 -56 -206 -55 -106 1 -198 -1 -203 -4 -5 -4 -12 -2 -16 4 -3 5 -14 10
-23 9 -11 0 -13 -2 -4 -6 9 -3 5 -12 -13 -29 -14 -13 -30 -24 -36 -24 -5 0 -9
-9 -9 -20 0 -12 -7 -20 -17 -21 -10 0 -13 -2 -8 -5 10 -4 12 -302 2 -328 -3
-8 -18 -13 -39 -12 l-33 2 0 169 c0 123 -3 169 -12 168 -6 -1 -10 5 -9 14 4
22 -31 59 -67 72 -16 6 -59 11 -97 11 -45 0 -70 4 -73 13 -3 7 -6 5 -6 -5 -1
-10 -6 -18 -12 -18 -19 0 -74 -52 -71 -67 2 -7 -2 -13 -9 -13 -6 0 -9 -7 -5
-15 3 -8 1 -50 -6 -93 -14 -103 -16 -120 -24 -239 -4 -57 -10 -103 -13 -103
-3 0 -7 -21 -9 -48 -1 -26 -7 -63 -12 -82 -6 -19 -10 -60 -10 -91 0 -31 -3
-59 -7 -63 -5 -4 -8 -28 -8 -52 0 -25 -5 -48 -10 -52 -9 -6 -12 -47 -14 -195
-1 -21 -5 -36 -9 -33 -4 3 -7 -8 -6 -25 1 -16 -1 -29 -4 -29 -4 0 -8 -12 -8
-27 -1 -16 -4 -73 -7 -128 -5 -80 -3 -106 9 -132 9 -18 20 -30 25 -27 5 3 6
-3 2 -13 -3 -10 -3 -15 1 -11 4 3 20 -6 34 -21 15 -15 36 -30 47 -33 11 -3 29
-9 39 -14 14 -5 17 -4 11 5 -6 10 -3 11 12 3 21 -11 1549 -14 1568 -3 6 3 15
6 20 6 20 1 70 30 83 47 7 9 19 24 28 33 8 8 13 15 9 15 -4 0 1 7 10 16 13 14
15 35 13 125 -2 60 -6 109 -9 109 -7 0 -22 115 -32 248 -1 12 -4 22 -8 22 -3
0 -6 19 -6 43 -1 23 -2 44 -4 47 -1 3 -3 19 -4 35 -2 17 -10 80 -19 140 -19
131 -18 128 -7 120 6 -3 15 5 21 17 10 21 10 22 -3 5 -19 -23 -32 -5 -17 22
12 24 13 41 0 21 -5 -8 -12 -11 -16 -7 -4 3 -1 14 7 24 8 9 9 14 3 10 -13 -7
-24 36 -29 111 -2 27 1 42 8 42 9 0 9 2 1 8 -7 4 -15 36 -18 72 -9 86 -11 98
-19 106 -12 12 -8 82 6 87 6 3 3 6 -7 6 -11 1 -17 4 -13 7 3 3 -2 15 -11 26
-34 40 -66 48 -185 48 -158 0 -150 13 -151 -238 l-1 -197 -40 0 -40 0 -6 355
c-6 348 -11 410 -32 410 -6 0 -7 3 -4 6 3 4 1 16 -5 28 -7 11 -11 30 -11 41 1
16 1 17 -3 2 -5 -14 -14 -9 -54 32 -27 27 -51 47 -54 44 -3 -4 -6 -1 -6 6 0 7
-5 9 -10 6 -6 -3 -13 0 -16 9 -3 8 -13 15 -22 15 -24 0 -45 5 -61 16 -23 14
-151 12 -170 -2z m179 -33 c-11 -7 -5 -10 23 -10 20 0 37 -4 37 -10 0 -5 6 -9
13 -7 6 1 11 -3 10 -10 -1 -6 5 -10 15 -9 18 3 78 -56 88 -86 3 -10 10 -16 15
-13 5 4 9 -11 9 -32 0 -28 3 -34 10 -23 7 11 10 5 10 -25 0 -30 3 -36 10 -25
6 10 10 -112 10 -352 l0 -368 33 0 c18 0 39 6 46 13 11 9 13 9 7 0 -5 -9 2
-13 23 -13 l31 0 0 225 c0 143 4 225 10 225 6 0 10 -4 10 -10 0 -6 47 -10 120
-10 78 0 120 -4 120 -11 0 -5 4 -8 9 -4 14 8 25 -34 22 -86 -1 -26 2 -50 8
-54 6 -3 12 -44 12 -93 1 -61 4 -78 9 -57 5 20 8 -8 10 -85 2 -77 5 -105 10
-85 5 22 8 5 10 -60 2 -68 4 -82 10 -55 5 24 8 1 9 -73 0 -60 5 -106 10 -103
8 5 28 -238 22 -278 -2 -11 2 -16 8 -12 8 5 11 -15 11 -61 0 -48 3 -63 10 -53
7 10 10 -18 11 -90 1 -70 4 -95 9 -75 6 24 8 17 8 -30 0 -47 -2 -54 -8 -30 -6
25 -8 21 -9 -25 -1 -40 -4 -51 -11 -40 -8 12 -10 11 -10 -7 0 -13 -6 -23 -13
-23 -7 0 -19 -9 -27 -19 -7 -11 -17 -18 -21 -15 -4 2 -13 -1 -21 -8 -19 -19
-1617 -19 -1636 0 -8 7 -18 10 -23 7 -5 -4 -9 -1 -9 4 0 6 -7 11 -16 11 -8 0
-12 5 -9 10 3 6 -1 10 -9 10 -9 0 -16 9 -16 20 0 11 -4 20 -10 20 -5 0 -10 12
-11 28 0 24 -1 25 -9 7 -6 -14 -9 2 -8 50 0 50 2 63 8 45 5 -17 9 3 10 65 2
64 5 81 10 60 6 -22 8 -8 9 50 1 51 5 75 10 66 6 -9 11 23 15 90 3 57 8 122
12 144 4 22 9 92 12 155 3 75 7 106 12 90 5 -16 9 10 10 75 2 76 5 91 10 60 5
-29 8 -10 9 70 2 72 5 103 11 90 6 -14 9 1 9 48 1 47 4 66 12 61 8 -4 10 19 8
80 -3 65 -1 86 9 86 7 0 15 7 18 15 5 12 27 15 115 15 70 0 109 -4 109 -11 0
-5 5 -7 10 -4 6 3 10 -1 10 -10 0 -9 5 -13 10 -10 7 4 10 -61 10 -188 0 -221
-6 -207 86 -207 36 0 54 4 54 13 1 6 0 89 0 184 l-1 172 29 31 29 30 237 0
236 0 0 75 0 75 -265 0 -265 0 0 71 c0 44 4 68 10 64 6 -4 10 11 11 37 0 33 2
38 9 23 7 -17 9 -14 9 13 1 19 5 31 11 27 6 -3 10 1 10 10 0 9 5 13 10 10 6
-3 10 2 10 12 0 10 9 25 19 33 11 7 17 18 14 23 -3 6 -1 7 5 3 6 -3 17 0 25 8
8 8 17 12 21 9 3 -4 6 1 6 11 0 9 5 14 10 11 6 -3 10 -1 10 4 0 6 17 11 38 11
27 0 33 3 22 10 -10 7 19 10 90 10 71 0 100 -3 90 -10z m-553 -857 c-1 -43 -3
-8 -3 77 0 85 2 120 3 78 2 -43 2 -113 0 -155z"/>
<path d="M785 3092 c-11 -2 -34 -19 -51 -37 -17 -19 -34 -31 -38 -28 -3 3 -6
-27 -6 -67 0 -40 3 -70 6 -67 7 7 44 -30 44 -45 0 -4 9 -8 20 -8 12 0 20 7 20
18 0 14 2 15 10 2 7 -11 10 -7 10 18 0 25 4 32 20 32 13 0 20 7 20 20 0 11 7
20 15 20 8 0 15 7 15 16 0 8 5 12 10 9 6 -3 10 -1 10 4 0 6 3 11 8 10 21 -3
50 15 49 30 -1 16 -27 50 -27 36 0 -3 -9 3 -21 14 -20 18 -74 30 -114 23z m73
-30 c2 -7 10 -12 17 -12 8 0 19 -10 26 -21 8 -15 8 -19 0 -15 -6 4 -11 2 -11
-5 0 -7 -3 -9 -7 -6 -3 4 -15 -5 -25 -20 -10 -16 -18 -24 -18 -20 0 5 -7 2
-15 -7 -8 -8 -15 -19 -15 -24 0 -6 -7 -13 -16 -16 -8 -3 -13 -10 -10 -15 3 -5
-1 -14 -9 -21 -21 -17 -51 10 -59 54 -7 37 11 99 26 90 5 -3 12 3 14 13 8 30
93 51 102 25z"/>
<path d="M1283 3054 c-40 -43 -41 -50 -7 -58 30 -8 124 -100 124 -122 0 -8 6
-14 13 -14 8 0 7 -4 -3 -10 -12 -7 -8 -10 15 -10 20 0 36 7 45 21 8 12 21 27
28 35 6 7 12 35 12 63 0 44 -5 55 -37 91 -36 38 -40 40 -98 40 -56 -1 -62 -3
-92 -36z m87 2 c0 7 14 14 30 16 35 5 35 5 13 -18 -17 -17 -17 -17 5 -12 15 4
25 2 29 -8 3 -8 10 -11 16 -7 6 4 8 -2 4 -16 -4 -17 -2 -21 9 -17 17 7 20 -39
3 -50 -6 -3 -9 -14 -6 -24 2 -10 1 -24 -4 -31 -7 -11 -9 -9 -9 6 -1 17 -3 17
-12 -5 l-10 -25 -13 35 c-8 19 -14 29 -14 23 -1 -7 -23 9 -50 36 -27 27 -51
47 -54 45 -2 -3 -7 4 -10 16 -3 11 -2 18 2 16 4 -3 16 6 26 18 18 21 21 21 32
7 7 -9 13 -11 13 -5z"/>
<path d="M885 2730 c-3 -11 -13 -20 -20 -20 -17 0 -30 -42 -21 -67 5 -15 4
-15 -9 1 -14 19 -15 18 -15 -10 0 -35 35 -78 57 -70 8 3 11 1 8 -4 -3 -6 3
-10 15 -10 12 0 18 5 15 10 -3 6 4 10 15 10 16 0 20 5 16 15 -3 8 -1 15 4 15
6 0 10 7 10 16 0 8 -4 12 -10 9 -5 -3 -10 -1 -10 4 0 13 -37 15 -44 2 -4 -5 3
-7 14 -4 13 3 20 0 20 -8 0 -24 -14 -36 -38 -34 -28 2 -51 23 -36 33 6 4 12
15 12 25 4 41 6 47 14 47 4 0 8 6 8 14 0 10 9 13 30 10 25 -4 29 -2 24 13 -5
14 -4 15 4 4 6 -8 8 -21 4 -29 -3 -10 -1 -13 6 -8 7 4 12 3 12 -2 0 -6 -7 -12
-15 -16 -18 -6 -10 -33 10 -33 8 0 15 7 15 14 0 8 5 11 10 8 6 -4 10 10 10 35
0 25 -4 39 -10 35 -5 -3 -10 -1 -10 4 0 6 -20 11 -44 11 -36 0 -46 -4 -51 -20z"/>
<path d="M1220 2739 c0 -5 -4 -7 -10 -4 -6 4 -10 -10 -10 -35 0 -25 4 -39 10
-35 6 3 10 -1 10 -9 0 -9 5 -16 10 -16 6 0 10 -13 10 -29 0 -29 21 -57 33 -44
4 3 7 1 7 -5 0 -7 10 -12 23 -12 25 1 57 22 57 39 0 6 5 11 10 11 13 0 13 37
1 45 -5 3 -12 19 -16 35 -7 30 -36 42 -50 20 -3 -5 1 -10 9 -10 14 0 20 -12
17 -32 0 -5 5 -8 12 -8 8 0 7 -4 -3 -10 -9 -6 -10 -10 -3 -10 14 0 13 -40 -2
-40 -5 0 -21 -3 -34 -7 -16 -4 -22 -3 -17 5 3 6 1 14 -5 18 -8 4 -9 3 -5 -4 4
-7 3 -12 -2 -12 -15 0 -22 28 -9 34 9 5 9 7 -1 12 -6 3 -10 10 -7 15 4 5 -3
19 -14 31 -12 12 -21 27 -20 32 0 6 3 5 6 -3 3 -8 8 -9 12 -3 9 15 46 19 44 5
-2 -7 4 -10 12 -7 18 7 20 24 3 24 -9 0 -8 4 2 10 11 7 2 10 -32 10 -27 0 -48
-5 -48 -11z"/>
<path d="M895 2679 c-11 -16 -1 -19 13 -3 7 8 8 14 3 14 -5 0 -13 -5 -16 -11z"/>
<path d="M1053 2663 c-19 -7 -16 -43 3 -43 8 0 12 -4 9 -10 -4 -6 11 -10 37
-10 31 0 39 3 28 10 -12 8 -10 10 8 10 13 0 20 4 17 10 -3 6 0 10 7 10 8 1 6
6 -6 15 -19 14 -77 19 -103 8z"/>
<path d="M773 2535 c-7 -8 -13 -22 -13 -32 0 -10 -7 -31 -15 -47 -16 -31 -21
-156 -6 -156 5 0 12 -13 16 -30 4 -16 11 -30 16 -30 6 0 7 -4 4 -10 -4 -6 33
-10 105 -10 111 0 140 8 140 40 0 6 5 8 10 5 14 -9 12 8 -3 39 -8 14 -17 23
-20 19 -4 -3 -7 1 -7 10 0 10 -7 17 -15 17 -8 0 -15 -6 -15 -12 0 -9 -4 -8
-11 2 -9 13 -10 13 -6 0 2 -8 11 -15 19 -14 10 1 15 -11 17 -37 1 -22 1 -39
-1 -40 -2 0 -44 -3 -93 -5 l-90 -5 -20 33 c-20 34 -30 164 -13 174 4 3 8 13 8
24 0 29 27 31 57 4 15 -13 33 -22 40 -19 8 2 11 0 8 -5 -3 -6 -1 -10 5 -10 19
0 62 -38 50 -45 -5 -3 -10 -11 -10 -17 0 -7 5 -6 15 2 8 7 28 10 44 8 18 -3
28 0 24 5 -8 13 128 0 142 -14 16 -16 45 -10 45 10 0 14 5 18 18 14 10 -2 24
3 31 11 8 9 27 16 43 16 17 0 27 4 23 10 -3 6 2 10 11 10 10 0 27 9 39 20 25
24 53 18 64 -14 5 -11 7 -56 6 -99 -4 -112 -11 -119 -138 -116 -87 2 -100 5
-105 21 -2 10 -8 15 -13 12 -5 -3 -9 2 -9 10 0 9 6 15 12 14 7 -2 14 8 16 22
2 14 9 28 16 32 8 6 8 8 -1 8 -7 0 -24 -11 -38 -25 -29 -30 -36 -95 -10 -95 8
0 15 -4 15 -10 0 -15 228 -13 244 3 14 14 30 48 28 59 -1 4 3 20 9 35 15 40 1
147 -22 172 -10 11 -19 27 -19 36 0 22 -7 19 -46 -20 -19 -19 -43 -35 -53 -35
-10 0 -22 -7 -25 -16 -3 -8 -10 -12 -16 -9 -5 3 -10 1 -10 -4 0 -6 -22 -11
-51 -11 -31 0 -48 -4 -44 -10 4 -6 -23 -10 -74 -10 -47 0 -81 4 -81 10 0 6
-12 10 -27 10 -22 0 -25 -2 -13 -10 13 -8 12 -10 -2 -10 -10 0 -18 5 -18 10 0
6 -7 10 -15 10 -8 0 -15 5 -15 11 0 5 -4 7 -10 4 -5 -3 -10 -1 -10 4 0 6 -8
11 -18 11 -10 0 -28 9 -40 20 -12 11 -28 20 -37 20 -8 0 -15 9 -15 20 0 23
-10 25 -27 5z m657 -41 c0 -2 -7 -4 -15 -4 -8 0 -15 4 -15 10 0 5 7 7 15 4 8
-4 15 -8 15 -10z m-197 -71 c-7 -2 -19 -2 -25 0 -7 3 -2 5 12 5 14 0 19 -2 13
-5z"/>
<path d="M1268 2413 c7 -3 16 -2 19 1 4 3 -2 6 -13 5 -11 0 -14 -3 -6 -6z"/>
<path d="M2368 4086 c-17 -12 -18 -76 -20 -1052 -1 -571 -5 -967 -8 -879 l-6
160 -2 -168 c-1 -110 1 -166 8 -162 6 3 10 1 10 -4 0 -6 -4 -11 -10 -11 -5 0
-10 -5 -10 -11 0 -5 4 -8 9 -4 5 3 11 -5 13 -17 2 -18 11 -24 36 -26 30 -3 32
-1 33 30 0 27 2 30 9 13 5 -11 8 444 7 1045 l-2 1065 -5 -1045 -5 -1045 -3
1048 c-2 893 -4 1051 -16 1063 -17 17 -17 17 -38 0z m31 -1051 c0 -563 3
-1029 6 -1036 5 -8 0 -9 -16 -5 -20 6 -21 5 -6 -4 9 -6 17 -21 16 -33 0 -21
-1 -21 -9 -2 -8 18 -9 18 -9 2 -1 -10 -4 -16 -9 -13 -12 7 -14 1016 -2 1016 6
0 10 11 10 25 0 14 -4 25 -9 25 -5 0 -8 25 -5 55 2 30 6 81 9 112 3 38 1 53
-5 43 -14 -21 -13 96 0 121 6 10 7 19 2 19 -4 0 -8 149 -8 330 0 189 4 330 9
330 5 0 4 6 -2 14 -11 14 -4 22 21 25 4 1 7 -460 7 -1024z"/>
<path d="M805 4070 c-3 -5 -1 -10 4 -10 6 0 11 5 11 10 0 6 -2 10 -4 10 -3 0
-8 -4 -11 -10z"/>
<path d="M2332 4030 c0 -14 2 -19 5 -12 2 6 2 18 0 25 -3 6 -5 1 -5 -13z"/>
<path d="M3015 4010 c4 -6 -11 -10 -37 -10 -25 0 -53 -7 -64 -15 -10 -8 -28
-15 -39 -15 -18 -1 -18 -2 3 -13 18 -8 28 -8 43 1 10 7 27 12 37 12 10 0 23 5
29 11 14 14 183 15 210 1 12 -7 33 -12 47 -12 14 0 28 -4 31 -10 3 -5 14 -10
23 -10 10 0 23 -9 30 -20 7 -11 17 -20 24 -20 18 0 69 -60 62 -72 -4 -6 -3 -8
4 -4 15 9 25 -11 18 -38 -4 -18 -14 -25 -41 -28 -19 -2 -41 0 -49 4 -8 5 -17
4 -20 -1 -13 -20 -76 13 -76 39 0 6 -4 9 -9 6 -5 -4 -11 -2 -13 4 -7 20 -106
36 -166 28 -31 -5 -67 -10 -79 -11 -13 -1 -23 -5 -23 -9 0 -12 68 -10 75 2 3
6 33 10 66 10 33 0 59 -4 59 -10 0 -5 9 -10 20 -10 10 0 35 -16 54 -35 l35
-35 110 0 c62 0 112 4 116 10 3 6 1 10 -4 10 -6 0 -11 9 -11 21 0 11 -4 17
-10 14 -5 -3 -10 0 -10 8 0 21 -26 68 -33 60 -4 -3 -7 -1 -7 6 0 16 -26 42
-34 34 -3 -4 -6 -1 -6 5 0 7 -7 12 -16 12 -8 0 -12 5 -9 10 3 6 0 10 -9 10 -8
0 -16 3 -18 8 -8 18 -70 42 -108 42 -25 0 -39 4 -35 10 4 6 -27 10 -85 10 -58
0 -89 -4 -85 -10z m445 -230 c0 -5 -4 -10 -10 -10 -5 0 -10 5 -10 10 0 6 5 10
10 10 6 0 10 -4 10 -10z"/>
<path d="M4310 4010 c11 -7 5 -10 -25 -10 -55 0 -85 -10 -79 -25 4 -9 -3 -11
-22 -7 -19 3 -25 1 -20 -7 5 -7 -1 -11 -16 -11 -18 0 -20 -2 -8 -10 10 -6 11
-10 3 -10 -7 0 -16 1 -19 3 -3 1 -12 -9 -19 -23 -8 -14 -14 -21 -15 -17 0 13
-30 -20 -30 -33 0 -6 -4 -8 -10 -5 -9 6 -14 -8 -11 -27 0 -5 -3 -8 -8 -8 -8 0
-24 -37 -22 -52 1 -5 -4 -8 -9 -8 -5 0 -10 -17 -10 -38 0 -27 4 -39 15 -39 10
0 12 5 5 16 -9 16 40 118 64 133 6 4 7 8 2 8 -9 0 24 33 77 78 15 12 33 22 41
22 7 0 19 7 26 15 6 8 15 14 18 13 4 -1 14 2 22 5 51 22 221 28 228 9 1 -4 18
-6 36 -4 24 3 40 -2 54 -16 10 -10 32 -22 48 -26 28 -7 28 -8 9 -23 -20 -15
-20 -15 3 -8 13 4 22 2 22 -4 0 -6 8 -11 17 -11 9 0 14 -3 10 -6 -3 -3 5 -16
18 -28 13 -11 35 -42 48 -68 14 -26 28 -44 31 -41 3 4 6 -10 6 -30 0 -21 3
-37 8 -37 4 0 8 -37 9 -83 1 -54 -1 -75 -7 -62 -6 15 -9 5 -9 -37 -1 -32 -5
-58 -11 -58 -5 0 -12 -11 -16 -25 -3 -14 -10 -25 -15 -25 -5 0 -9 -12 -9 -27
0 -22 -2 -25 -10 -13 -7 11 -10 12 -10 2 0 -7 -7 -20 -15 -29 -8 -8 -13 -19
-10 -24 4 -5 -3 -9 -13 -9 -11 0 -25 -7 -32 -15 -10 -13 -9 -15 9 -15 11 0 21
5 21 11 0 5 4 8 9 4 10 -6 37 34 33 48 -1 4 5 7 13 7 9 0 15 9 15 23 0 18 2
19 10 7 7 -11 10 -7 10 18 0 18 4 31 9 28 11 -7 34 71 25 85 -4 6 -1 15 6 19
17 11 20 168 4 174 -6 2 -9 18 -6 34 2 16 -1 33 -7 36 -6 4 -11 16 -11 27 0
10 -4 19 -10 19 -5 0 -10 7 -10 15 0 18 -113 135 -130 135 -6 0 -8 5 -5 10 3
6 -2 10 -12 10 -10 0 -27 7 -37 15 -12 9 -42 15 -75 15 -40 0 -52 3 -41 10 10
7 -15 10 -80 10 -65 0 -90 -3 -80 -10z"/>
<path d="M3522 3998 c-9 -4 -11 -7 -4 -7 10 -1 13 -39 13 -168 0 -93 0 -176 0
-185 0 -10 6 -15 14 -12 10 4 13 19 9 52 -2 26 -6 102 -7 170 -2 93 1 122 10
122 7 0 13 3 13 8 0 4 28 6 63 6 83 -2 81 -2 67 -19 -10 -12 -10 -15 4 -15 9
0 16 -4 16 -10 0 -5 -10 -10 -22 -10 -20 -1 -21 -2 -7 -13 12 -9 15 -26 13
-70 -2 -31 -5 -82 -7 -112 -2 -30 0 -55 5 -55 4 0 9 30 10 68 l2 67 3 -57 c2
-32 -1 -75 -6 -95 -6 -20 -7 -40 -3 -43 4 -3 5 -48 1 -100 -8 -107 -9 -194 -2
-167 2 9 9 15 14 11 6 -3 8 118 7 317 l-3 321 -93 2 c-51 0 -100 -2 -110 -6z
m195 -580 c-3 -8 -6 -5 -6 6 -1 11 2 17 5 13 3 -3 4 -12 1 -19z"/>
<path d="M4808 3978 c2 -16 8 -28 12 -28 11 0 23 -59 22 -105 -1 -31 0 -36 7
-20 8 16 10 9 11 -30 1 -38 4 -45 10 -30 6 14 9 1 9 -45 1 -46 4 -61 11 -50 7
11 10 3 10 -30 1 -36 3 -41 11 -27 6 10 7 31 3 50 -4 18 -7 40 -5 50 1 9 -3
17 -9 17 -6 0 -9 8 -6 18 4 10 -3 37 -14 60 -11 22 -20 61 -20 86 0 26 -5 46
-12 49 -9 4 -9 6 -1 6 6 1 9 10 6 21 -4 14 0 20 11 20 9 0 16 -6 16 -12 0 -9
3 -9 8 -3 4 6 30 11 59 11 54 1 68 -12 63 -58 0 -10 3 -26 9 -36 5 -10 11 -38
12 -60 2 -23 7 -42 11 -42 4 0 8 -21 9 -47 0 -37 2 -43 9 -28 7 16 9 12 9 -20
0 -63 2 -76 19 -155 15 -73 16 -74 24 -41 7 25 6 36 -4 42 -11 7 -10 9 1 9 11
0 11 3 0 16 -10 13 -10 17 2 25 10 6 10 9 2 9 -8 0 -13 13 -13 30 0 17 -4 30
-10 30 -6 0 -10 30 -11 68 0 46 -3 61 -9 47 -6 -14 -9 7 -11 65 -2 73 -3 79
-9 40 -7 -42 -7 -40 -9 25 -1 39 -5 76 -10 83 -6 10 -39 14 -118 15 l-109 2 4
-27z"/>
<path d="M5297 4002 c-13 -3 -17 -15 -17 -58 0 -34 -4 -53 -10 -49 -5 3 -10
-3 -10 -14 0 -11 -7 -46 -15 -78 -8 -31 -15 -73 -15 -93 0 -26 -3 -31 -10 -20
-7 11 -10 1 -10 -35 0 -27 5 -57 11 -65 8 -12 9 -9 5 12 -3 15 -1 30 5 33 6 4
8 13 5 21 -3 7 2 30 11 51 9 21 15 57 14 81 -1 27 3 41 9 37 5 -3 10 3 10 13
0 11 7 36 15 55 8 20 15 47 15 60 0 27 13 30 138 29 47 0 72 4 72 12 0 10
-178 17 -223 8z m-50 -264 c-3 -8 -6 -5 -6 6 -1 11 2 17 5 13 3 -3 4 -12 1
-19z"/>
<path d="M5794 4001 c-2 -2 -4 -13 -4 -23 0 -11 -4 -17 -9 -14 -5 3 -11 -13
-14 -37 -12 -90 -32 -196 -39 -203 -5 -4 -9 -39 -9 -78 -1 -54 -3 -64 -9 -41
-6 24 -8 19 -9 -30 -1 -43 -4 -56 -11 -45 -7 11 -10 -2 -10 -45 0 -55 1 -58
15 -38 8 11 16 35 17 52 1 17 6 31 10 31 4 0 8 15 8 33 0 17 5 48 11 67 5 19
10 64 11 100 0 44 3 58 8 45 8 -18 9 -18 10 5 5 75 30 191 41 184 5 -3 9 2 9
10 0 33 154 12 163 -22 3 -9 5 -3 6 15 l1 32 -96 3 c-53 2 -98 1 -100 -1z"/>
<path d="M2335 3600 c0 -223 1 -314 2 -202 2 111 2 293 0 405 -1 111 -2 20 -2
-203z"/>
<path d="M5510 3970 c-10 -6 -11 -12 -3 -22 13 -15 13 -15 14 -60 0 -27 2 -29
8 -13 6 15 10 6 15 -35 3 -30 7 -66 10 -80 2 -14 4 -32 5 -40 1 -13 2 -13 11
0 7 12 10 8 10 -15 0 -24 -2 -27 -11 -15 -9 12 -10 11 -4 -5 3 -11 9 -32 12
-47 3 -16 9 -28 14 -28 5 0 5 -7 2 -17 -5 -12 -3 -14 7 -8 8 5 11 4 6 -3 -9
-15 3 -62 16 -62 6 0 8 13 4 33 -3 17 -9 49 -12 69 -4 21 -10 35 -15 32 -5 -3
-9 25 -9 63 0 48 -3 63 -10 53 -7 -11 -10 -5 -10 25 0 30 -3 36 -10 25 -7 -11
-10 1 -10 42 0 31 -5 60 -10 63 -6 4 -8 15 -5 25 7 22 -6 32 -25 20z"/>
<path d="M4545 3960 c3 -5 8 -10 11 -10 2 0 4 5 4 10 0 6 -5 10 -11 10 -5 0
-7 -4 -4 -10z"/>
<path d="M2830 3931 c-7 -11 -17 -18 -22 -15 -4 3 -8 1 -8 -3 0 -5 -16 -26
-35 -46 -19 -20 -35 -44 -35 -53 0 -8 -4 -12 -10 -9 -5 3 -10 -3 -10 -15 0
-12 -7 -34 -15 -49 -11 -22 -13 -57 -10 -152 5 -163 6 -169 16 -169 5 0 9 -9
9 -20 0 -11 5 -20 10 -20 6 0 10 -5 10 -10 0 -14 52 -66 62 -63 4 2 5 -4 2
-12 -4 -10 0 -15 12 -15 16 0 17 -2 4 -10 -12 -8 -11 -10 5 -10 11 0 27 -9 35
-20 8 -11 22 -20 32 -20 10 0 18 -4 18 -10 0 -5 9 -10 19 -10 11 0 23 -5 26
-11 4 -6 13 -8 21 -5 8 3 14 2 14 -3 0 -4 51 -8 113 -10 82 -1 108 1 97 9 -13
9 -12 11 5 9 42 -3 69 1 60 10 -12 10 -97 2 -90 -9 3 -5 -21 -8 -52 -8 -65 0
-95 6 -89 16 2 4 -13 8 -33 8 -21 1 -57 12 -81 24 -46 23 -130 100 -130 119 0
6 -6 11 -13 11 -13 0 -43 66 -39 83 1 5 -2 6 -8 2 -5 -3 -9 2 -8 12 4 45 -3
88 -11 74 -5 -8 -7 19 -4 65 3 44 9 84 15 91 5 7 7 17 3 23 -7 11 33 102 48
108 4 2 7 9 7 15 1 14 35 57 45 57 4 0 20 14 37 30 25 25 27 30 11 30 -10 0
-25 -9 -33 -19z"/>
<path d="M5955 3940 c-3 -5 -1 -10 4 -10 6 0 11 5 11 10 0 6 -2 10 -4 10 -3 0
-8 -4 -11 -10z"/>
<path d="M5950 3888 c-18 -41 -19 -47 -9 -78 5 -19 7 -14 8 25 1 36 4 46 11
35 7 -11 10 -7 10 18 0 17 -1 32 -3 32 -1 0 -9 -15 -17 -32z"/>
<path d="M4415 3870 c-19 -8 -19 -9 3 -9 12 -1 22 4 22 9 0 6 -1 10 -2 9 -2 0
-12 -4 -23 -9z"/>
<path d="M4656 3865 c-9 -26 -7 -32 5 -12 6 10 9 21 6 23 -2 3 -7 -2 -11 -11z"/>
<path d="M4325 3858 c6 -15 20 -18 81 -18 43 0 74 -4 74 -10 0 -5 6 -10 13
-10 8 0 27 -11 42 -24 16 -14 33 -22 39 -19 5 4 7 -1 3 -11 -4 -10 -3 -15 3
-11 6 3 10 -3 10 -15 0 -12 5 -18 10 -15 6 4 10 -6 10 -22 0 -22 2 -25 10 -13
5 8 10 10 10 4 0 -5 -4 -14 -9 -20 -5 -5 -6 -25 -2 -44 9 -48 -20 -190 -40
-190 -5 0 -9 -7 -9 -16 0 -8 -4 -13 -8 -10 -5 3 -16 -6 -26 -20 -11 -13 -27
-24 -37 -24 -11 0 -19 -4 -19 -10 0 -6 -33 -10 -80 -10 -50 0 -80 4 -80 11 0
6 -8 9 -17 7 -37 -7 -112 91 -114 149 -1 38 -1 38 -9 8 -5 -21 -8 -3 -9 60 -1
50 -6 97 -12 105 -10 13 -10 13 -6 -1 3 -8 1 -35 -3 -60 -5 -26 -5 -48 1 -54
5 -5 9 -28 9 -52 0 -24 5 -43 10 -43 6 0 10 -9 10 -20 0 -11 5 -20 11 -20 6 0
8 -7 5 -16 -4 -10 0 -18 13 -21 12 -3 17 -11 14 -19 -3 -8 1 -14 11 -14 9 0
16 -4 16 -10 0 -5 9 -10 20 -10 11 0 20 -4 20 -9 0 -4 36 -12 80 -15 64 -6 84
-4 102 8 12 9 33 16 45 16 13 0 23 5 23 10 0 6 7 10 15 10 8 0 15 6 15 13 0 7
9 23 21 35 37 41 49 86 49 190 0 54 -3 102 -7 106 -5 4 -8 11 -8 14 0 16 -48
72 -61 72 -8 0 -14 4 -14 10 0 19 -73 40 -139 40 -40 0 -72 5 -80 13 -10 10
-11 9 -6 -5z"/>
<path d="M4270 3835 l-25 -14 33 -1 c18 0 31 4 28 9 -4 5 0 12 6 14 9 4 8 6
-2 6 -8 0 -26 -6 -40 -14z"/>
<path d="M2922 3790 c-9 -16 -20 -30 -24 -30 -4 0 -4 -7 -1 -17 4 -10 2 -14
-4 -10 -6 4 -13 -5 -16 -21 -9 -46 5 -47 20 -1 17 51 32 71 44 63 5 -3 9 3 9
14 0 16 5 18 28 14 34 -6 26 3 -11 12 -24 6 -30 2 -45 -24z"/>
<path d="M4216 3789 c-19 -19 -19 -19 2 -19 15 0 22 6 22 20 0 24 0 24 -24 -1z"/>
<path d="M5913 3748 c-6 -29 -16 -71 -22 -93 -6 -22 -13 -53 -16 -68 -3 -15
-10 -25 -14 -22 -5 3 -4 -6 2 -20 l12 -25 4 33 c3 27 4 29 11 12 6 -13 9 3 9
50 1 44 5 65 10 56 6 -9 11 3 16 38 4 28 12 51 18 51 9 0 9 2 1 8 -6 4 -13 13
-15 20 -3 7 -10 -11 -16 -40z"/>
<path d="M4191 3747 c-1 -10 -6 -15 -11 -12 -6 4 -8 -3 -6 -17 3 -13 5 -32 6
-43 1 -11 6 0 11 25 5 25 7 50 5 55 -3 6 -5 2 -5 -8z"/>
<path d="M5091 3714 c0 -11 3 -14 6 -6 3 7 2 16 -1 19 -3 4 -6 -2 -5 -13z"/>
<path d="M5378 3703 c-2 -10 -1 -34 3 -53 6 -31 6 -30 8 18 1 52 -3 67 -11 35z"/>
<path d="M5412 3700 c0 -14 2 -19 5 -12 2 6 2 18 0 25 -3 6 -5 1 -5 -13z"/>
<path d="M3972 3595 c-1 -81 1 -115 8 -105 8 12 10 9 10 -12 0 -34 49 -140 61
-132 5 3 9 -3 9 -13 1 -22 54 -77 71 -71 8 3 1 16 -19 36 -20 20 -33 27 -36
19 -3 -7 -5 3 -3 20 2 18 1 31 -2 28 -6 -7 -62 82 -67 108 -2 11 -4 48 -5 83
-1 35 -6 61 -10 58 -5 -3 -9 2 -9 11 0 9 5 13 10 10 6 -3 10 3 10 15 0 12 -4
19 -9 15 -5 -3 -12 7 -14 22 -2 16 -5 -26 -5 -92z"/>
<path d="M595 3680 c-3 -5 -1 -10 4 -10 6 0 11 5 11 10 0 6 -2 10 -4 10 -3 0
-8 -4 -11 -10z"/>
<path d="M818 3683 c7 -3 16 -2 19 1 4 3 -2 6 -13 5 -11 0 -14 -3 -6 -6z"/>
<path d="M5435 3645 c3 -22 6 -47 6 -55 0 -29 23 -110 31 -110 4 0 8 -24 8
-52 0 -38 3 -49 10 -38 7 11 10 -4 11 -50 1 -60 2 -63 11 -30 11 38 8 60 -21
164 -5 21 -7 45 -4 54 4 13 3 14 -5 4 -6 -9 -11 5 -15 47 -3 33 -13 70 -22 83
-17 23 -17 23 -10 -17z"/>
<path d="M2861 3605 c0 -77 23 -184 32 -150 4 18 5 17 6 -3 3 -73 98 -131 214
-131 37 0 69 5 72 10 4 5 11 6 17 3 11 -7 59 16 53 25 -2 4 9 15 25 26 27 18
50 53 50 77 0 6 -9 3 -20 -7 -11 -10 -18 -20 -15 -23 6 -6 -34 -42 -47 -42 -4
0 -8 -6 -8 -14 0 -9 -7 -12 -20 -9 -11 3 -20 0 -20 -6 0 -7 -31 -11 -92 -11
-64 0 -88 3 -78 10 11 7 7 10 -18 10 -33 0 -62 19 -62 40 0 6 -4 8 -10 5 -5
-3 -10 1 -10 9 0 9 -4 16 -10 16 -5 0 -10 9 -10 20 0 11 -4 20 -10 20 -5 0
-10 9 -10 20 0 11 -3 20 -7 20 -5 0 -6 27 -5 59 2 33 -1 68 -7 78 -8 14 -10 2
-10 -52z"/>
<path d="M5348 3613 c-10 -35 -18 -76 -18 -92 0 -17 -4 -33 -10 -36 -5 -3 -10
-33 -10 -66 0 -32 -4 -59 -9 -59 -5 0 -7 19 -4 43 3 23 3 40 0 37 -3 -3 -7
-25 -10 -50 -12 -107 -20 -150 -29 -150 -14 0 -5 -43 10 -48 8 -2 12 11 12 48
0 31 4 49 10 45 6 -3 10 5 10 19 0 14 4 27 9 30 4 3 11 35 14 72 2 36 10 71
16 77 6 6 11 34 11 63 0 29 5 54 11 56 6 2 9 19 7 38 -3 33 -4 31 -20 -27z"/>
<path d="M3060 3564 l0 -75 46 5 c56 6 58 7 39 32 -14 18 -14 18 -15 -6 -1
-14 -4 -19 -7 -12 -2 6 -9 10 -14 6 -5 -3 -9 0 -9 6 0 6 -4 9 -9 6 -5 -3 -11
14 -12 38 -3 34 -1 42 10 38 9 -3 12 -1 7 6 -5 8 46 11 196 9 151 -1 206 1
216 11 11 10 -32 12 -217 12 l-231 0 0 -76z"/>
<path d="M4925 3563 c4 -32 8 -66 8 -75 1 -9 5 -14 9 -12 4 3 8 -16 8 -41 0
-28 4 -44 10 -40 6 4 10 -13 11 -42 0 -36 3 -43 9 -28 6 14 9 3 9 -40 1 -43 4
-56 11 -45 7 11 10 4 10 -27 l0 -43 137 0 c129 0 136 1 114 16 -17 12 -26 13
-34 5 -14 -14 -111 -15 -102 -1 4 6 -4 6 -21 0 -20 -8 -29 -8 -35 1 -4 7 -14
9 -22 6 -11 -4 -13 0 -9 15 3 14 1 19 -6 14 -8 -5 -12 1 -12 18 0 14 5 28 10
31 6 3 10 12 9 18 0 8 -2 8 -6 -1 -9 -22 -35 40 -28 68 3 15 2 20 -3 13 -9
-14 -52 142 -52 189 0 34 -9 58 -22 58 -7 0 -8 -20 -3 -57z m89 -279 c3 -8 2
-12 -4 -9 -6 3 -10 10 -10 16 0 14 7 11 14 -7z"/>
<path d="M5190 3575 c0 -36 -3 -46 -10 -35 -7 11 -10 -2 -10 -42 0 -32 2 -58
5 -58 23 0 43 138 25 170 -7 10 -10 -1 -10 -35z"/>
<path d="M3177 3534 c-12 -12 -8 -44 6 -44 6 1 23 7 37 15 25 14 25 14 3 15
-13 0 -23 -6 -24 -12 -1 -7 -4 -3 -8 10 -3 13 -9 20 -14 16z"/>
<path d="M3263 3503 c9 -9 19 -14 23 -11 10 10 -6 28 -24 28 -15 0 -15 -1 1
-17z"/>
<path d="M3541 3504 c0 -11 3 -14 6 -6 3 7 2 16 -1 19 -3 4 -6 -2 -5 -13z"/>
<path d="M5845 3501 c-3 -10 -1 -29 4 -42 9 -21 10 -19 10 19 1 45 -4 54 -14
23z"/>
<path d="M5603 3497 c-3 -6 -1 -7 5 -3 7 4 15 -6 21 -26 l9 -33 1 36 c1 26 -3
36 -14 36 -9 0 -19 -5 -22 -10z"/>
<path d="M240 3480 c0 -5 5 -10 11 -10 5 0 7 5 4 10 -3 6 -8 10 -11 10 -2 0
-4 -4 -4 -10z"/>
<path d="M5123 3455 c0 -22 2 -30 4 -17 2 12 2 30 0 40 -3 9 -5 -1 -4 -23z"/>
<path d="M5820 3460 c0 -5 5 -10 10 -10 6 0 10 5 10 10 0 6 -4 10 -10 10 -5 0
-10 -4 -10 -10z"/>
<path d="M3535 3450 c-3 -5 -1 -10 4 -10 6 0 11 5 11 10 0 6 -2 10 -4 10 -3 0
-8 -4 -11 -10z"/>
<path d="M3474 3435 c3 -8 1 -15 -4 -15 -6 0 -10 -5 -10 -12 0 -6 -7 -19 -16
-29 -10 -11 -12 -19 -5 -24 6 -3 14 2 18 12 3 10 14 30 25 44 16 24 16 28 2
33 -12 4 -15 2 -10 -9z"/>
<path d="M5824 3405 c-6 -19 -7 -32 -2 -29 4 3 8 1 8 -5 0 -5 -5 -11 -10 -13
-6 -2 -19 -38 -30 -81 -11 -43 -22 -83 -25 -88 -8 -12 -55 -12 -55 1 0 6 -7
10 -15 10 -8 0 -15 -4 -15 -10 0 -5 -18 -10 -40 -10 -22 0 -40 5 -40 10 0 6
-9 10 -19 10 -13 0 -21 9 -26 30 -4 17 -10 30 -15 30 -5 0 -7 11 -4 24 2 14 0
28 -6 31 -6 4 -10 -9 -10 -34 0 -22 4 -42 10 -46 5 -3 7 -12 3 -20 -3 -8 0
-15 6 -15 6 0 8 -6 5 -14 -4 -12 15 -14 112 -15 64 -1 120 -4 125 -7 5 -3 9
11 9 30 0 20 5 36 10 36 6 0 10 16 10 35 0 19 4 35 8 35 4 0 12 25 18 54 12
67 4 102 -12 51z"/>
<path d="M3536 3388 c-3 -18 -5 -64 -5 -103 0 -38 -3 -80 -5 -92 -4 -19 -1
-23 20 -23 14 0 22 4 19 10 -3 6 1 10 10 10 9 0 13 -4 10 -10 -4 -7 67 -10
205 -10 138 0 209 -3 205 -10 -3 -5 -1 -10 4 -10 15 0 14 20 -2 25 -14 6 -14
121 1 118 6 -1 8 7 5 17 -5 19 -15 20 -146 20 -175 0 -178 -20 -4 -23 l117 -2
0 -52 c0 -46 -3 -53 -20 -53 -11 0 -20 -4 -20 -10 0 -5 -9 -10 -21 -10 -11 0
-18 4 -15 8 2 4 -9 9 -25 10 -19 2 -28 -2 -24 -8 4 -6 -11 -10 -39 -10 -26 0
-46 5 -49 13 -4 10 -6 10 -6 0 -1 -9 -21 -13 -67 -13 -36 0 -63 4 -60 8 3 5
-14 8 -37 8 l-42 -1 3 113 c2 114 -1 138 -12 80z"/>
<path d="M4580 3369 c0 -5 5 -7 10 -4 6 3 10 8 10 11 0 2 -4 4 -10 4 -5 0 -10
-5 -10 -11z"/>
<path d="M3407 3336 c-4 -15 -6 -31 -2 -34 10 -10 16 6 13 35 l-3 28 -8 -29z"/>
<path d="M3365 3286 c-13 -9 -15 -15 -6 -20 6 -4 18 -1 26 8 20 19 3 29 -20
12z"/>
<path d="M4142 3254 c-10 -12 -10 -14 3 -14 9 0 13 -4 10 -10 -4 -6 7 -10 25
-10 17 0 29 -4 26 -9 -5 -8 10 -15 59 -28 11 -3 67 -7 124 -10 108 -5 182 11
206 44 9 12 27 19 60 23 6 0 3 5 -6 10 -17 10 -59 2 -59 -11 0 -5 -5 -9 -11
-9 -6 0 -17 -7 -25 -15 -9 -9 -26 -13 -47 -9 -24 3 -27 2 -12 -4 18 -8 17 -10
-10 -15 -36 -8 -161 -2 -190 8 -59 21 -75 28 -75 36 0 5 -12 9 -26 9 -14 0
-23 4 -20 9 10 15 -18 19 -32 5z"/>
<path d="M3316 3245 c-8 -8 -22 -15 -30 -15 -10 0 -16 -8 -15 -22 1 -17 2 -19
6 -5 3 10 14 17 29 17 17 0 23 4 18 12 -5 8 -2 9 9 5 11 -4 17 -1 17 8 0 19
-15 19 -34 0z"/>
<path d="M5738 3193 c7 -3 16 -2 19 1 4 3 -2 6 -13 5 -11 0 -14 -3 -6 -6z"/>
<path d="M2335 2750 c0 -239 1 -337 2 -218 2 120 2 316 0 436 -1 119 -2 21 -2
-218z"/>
<path d="M2717 2923 c-4 -3 -7 -193 -7 -422 l0 -416 85 3 c51 2 85 8 85 14 0
7 -23 9 -65 5 -50 -3 -69 -1 -80 10 -9 8 -12 19 -9 25 4 6 8 157 9 337 1 179
3 347 4 374 l1 47 93 0 c108 0 125 -10 134 -79 3 -22 9 -38 14 -35 5 3 9 -3 9
-13 0 -10 7 -27 15 -37 14 -19 15 -19 15 7 0 15 -4 27 -10 27 -5 0 -10 10 -10
23 0 12 -7 35 -15 51 -8 15 -15 35 -15 43 0 8 -4 11 -10 8 -5 -3 -10 3 -10 14
0 20 -6 21 -113 21 -63 0 -117 -3 -120 -7z m166 -10 c-29 -2 -77 -2 -105 0
-29 2 -6 3 52 3 58 0 81 -1 53 -3z"/>
<path d="M3420 2909 c0 -11 -4 -18 -9 -15 -5 3 -12 -16 -16 -44 -4 -27 -11
-50 -16 -50 -5 0 -9 -9 -9 -21 0 -11 -4 -17 -10 -14 -6 4 -10 -7 -10 -24 0
-17 -4 -31 -10 -31 -5 0 -10 -9 -10 -20 0 -11 4 -20 9 -20 11 0 24 39 21 64
-1 10 3 16 8 12 11 -6 32 36 32 65 0 11 7 22 15 25 10 4 13 13 9 26 -4 14 -2
18 5 14 7 -5 10 -2 9 6 -2 10 19 13 90 15 63 1 92 -3 92 -10 0 -7 5 -5 10 3
12 19 11 54 13 -377 0 -205 5 -373 9 -373 4 0 8 178 8 395 l0 395 -22 0 c-19
0 -20 -2 -8 -10 10 -7 -21 -9 -95 -8 l-110 2 95 6 95 6 -97 2 c-93 2 -98 1
-98 -19z"/>
<path d="M4080 2920 l115 -6 -122 -2 -123 -2 0 -42 c0 -32 -3 -39 -10 -28 -8
12 -10 9 -10 -12 0 -16 -4 -28 -9 -28 -5 0 -11 -23 -15 -50 -4 -29 -11 -48
-16 -45 -6 4 -10 -8 -10 -27 0 -25 -3 -29 -10 -18 -7 11 -10 3 -10 -28 0 -26
-4 -41 -10 -37 -6 4 -10 -5 -10 -20 0 -16 -4 -24 -11 -19 -7 4 -10 -3 -8 -17
2 -24 -5 -49 -22 -81 -5 -10 -9 -29 -9 -43 0 -15 -4 -24 -10 -20 -6 4 -10 -5
-10 -20 0 -15 -4 -24 -10 -20 -6 4 -10 -11 -10 -37 0 -31 -3 -39 -10 -28 -7
11 -10 7 -10 -17 0 -17 -5 -33 -12 -35 -7 -3 -9 -12 -4 -24 6 -16 10 -13 22
21 9 22 19 54 23 71 13 49 23 61 33 38 6 -15 7 -13 7 11 -1 17 0 41 1 55 1 23
2 24 11 5 8 -18 9 -17 5 5 -3 14 1 33 9 43 7 11 11 26 8 35 -5 11 -3 13 6 7
10 -5 11 -2 6 14 -7 23 17 66 30 53 4 -4 5 6 2 22 -3 20 5 50 25 95 38 83 42
95 60 156 l14 50 104 0 c88 0 104 -2 102 -15 -3 -13 -1 -13 13 1 9 9 13 23 9
32 -5 15 -22 17 -123 15 l-116 -2 115 -6z"/>
<path d="M4502 2543 c1 -214 3 -370 6 -348 3 32 6 36 12 20 8 -19 9 -19 9 3 1
12 -3 22 -9 22 -6 0 -9 55 -8 148 0 97 3 132 8 102 4 -26 7 29 7 130 -1 155
-2 163 -7 70 -6 -98 -6 -95 -7 53 0 87 4 152 9 145 6 -11 8 -11 8 0 0 10 47
12 223 11 122 -1 213 -5 202 -10 -16 -6 -14 -8 13 -8 19 -1 35 -7 38 -16 4 -8
15 -15 26 -15 12 0 17 -4 12 -12 -5 -8 -2 -9 10 -5 13 5 17 3 13 -7 -6 -14 12
-26 39 -26 8 0 14 5 14 11 0 5 -4 7 -10 4 -5 -3 -10 -1 -10 5 0 15 -25 40 -40
40 -6 0 -18 7 -26 15 -9 8 -24 15 -35 15 -10 0 -19 5 -19 10 0 6 -81 11 -217
12 l-218 2 180 6 180 6 -202 2 -203 2 2 -387z"/>
<path d="M5151 2878 c-1 -33 2 -54 11 -60 10 -8 10 -11 1 -15 -7 -2 -13 -11
-13 -19 0 -11 20 -14 108 -12 96 2 99 2 28 5 -66 3 -81 7 -97 26 -13 15 -18
31 -14 50 3 17 1 26 -5 22 -18 -11 -11 4 12 25 21 19 32 20 312 18 l291 -3
-295 -5 -295 -5 290 -3 291 -2 2 -54 c2 -65 -2 -68 -110 -65 -43 1 -81 0 -84
-3 -2 -3 36 -6 86 -7 50 -1 98 -5 106 -8 11 -4 14 10 14 81 l0 86 -318 0 -318
-1 -3 -51z m39 -88 c0 -5 -2 -10 -4 -10 -3 0 -8 5 -11 10 -3 6 -1 10 4 10 6 0
11 -4 11 -10z"/>
<path d="M173 2885 c0 -22 2 -30 4 -17 2 12 2 30 0 40 -3 9 -5 -1 -4 -23z"/>
<path d="M2920 2876 c0 -8 4 -17 9 -20 5 -4 7 3 4 14 -6 23 -13 26 -13 6z"/>
<path d="M201 2864 c0 -11 3 -14 6 -6 3 7 2 16 -1 19 -3 4 -6 -2 -5 -13z"/>
<path d="M4200 2862 c0 -10 7 -28 16 -40 9 -13 16 -39 17 -59 1 -20 3 -30 5
-24 2 7 9 2 16 -11 18 -34 25 -68 15 -68 -5 0 -9 -5 -9 -12 0 -6 3 -8 7 -5 4
4 15 -10 24 -30 17 -36 18 -36 19 -11 0 15 -5 30 -11 33 -6 4 -7 19 -4 37 5
21 4 28 -4 24 -7 -5 -11 2 -11 19 0 15 -4 24 -10 20 -6 -4 -10 5 -10 20 0 15
-4 24 -10 20 -6 -4 -10 6 -10 24 0 16 -4 33 -10 36 -5 3 -10 15 -10 26 0 10
-4 19 -10 19 -5 0 -10 -8 -10 -18z"/>
<path d="M3623 2825 c0 -22 2 -30 4 -17 2 12 2 30 0 40 -3 9 -5 -1 -4 -23z"/>
<path d="M5100 2777 c0 -8 6 -14 14 -14 8 0 12 6 9 14 -3 7 -9 13 -14 13 -5 0
-9 -6 -9 -13z"/>
<path d="M4784 2771 c-5 -5 -22 -11 -39 -14 -16 -2 14 -5 67 -6 62 0 98 -5
100 -12 2 -7 9 -10 16 -8 7 3 8 9 3 18 -7 10 -26 14 -67 12 -31 -1 -60 3 -64
9 -4 6 -10 6 -16 1z"/>
<path d="M5560 2754 c0 -14 -4 -23 -10 -19 -5 3 -10 1 -10 -4 0 -6 5 -11 10
-11 6 0 10 -16 10 -36 0 -21 -4 -33 -10 -29 -5 3 -10 -3 -10 -14 0 -12 4 -21
8 -21 4 0 8 -108 8 -240 0 -132 -3 -240 -8 -240 -4 0 -8 -7 -8 -15 0 -8 -4
-15 -10 -15 -21 0 -9 -18 15 -22 l25 -5 0 348 c0 192 -2 349 -5 349 -3 0 -5
-12 -5 -26z"/>
<path d="M5371 2430 l-1 -345 70 3 c38 2 70 8 70 14 0 6 -24 8 -61 6 l-61 -3
3 150 c4 216 -2 477 -11 500 -5 11 -9 -135 -9 -325z"/>
<path d="M5080 2735 c0 -8 2 -15 4 -15 2 0 6 7 10 15 3 8 1 15 -4 15 -6 0 -10
-7 -10 -15z"/>
<path d="M5137 2670 c3 -49 1 -80 -5 -80 -5 0 -12 -9 -15 -20 -3 -11 -1 -20 4
-20 5 0 9 7 9 16 0 8 5 12 10 9 6 -4 10 27 10 84 0 50 -4 91 -9 91 -4 0 -6
-36 -4 -80z"/>
<path d="M3023 2722 c-9 -15 -9 -25 1 -44 7 -14 16 -41 20 -61 4 -21 12 -37
18 -37 5 0 8 -6 5 -14 -3 -8 1 -17 9 -20 8 -3 14 -12 14 -20 0 -15 21 -70 43
-111 6 -11 14 -33 17 -50 l7 -30 8 29 c6 20 4 31 -3 34 -7 2 -12 17 -12 33 0
18 -4 28 -10 24 -5 -3 -10 3 -10 15 0 12 -4 18 -10 15 -6 -4 -10 8 -10 30 0
20 -4 34 -9 31 -5 -3 -11 8 -15 25 -3 17 -10 28 -16 24 -6 -3 -10 4 -10 17 0
18 2 20 10 8 8 -13 10 -12 10 3 0 9 -4 17 -10 17 -5 0 -10 9 -10 21 0 11 -4
18 -9 14 -6 -3 -11 11 -13 30 -3 32 -4 34 -15 17z"/>
<path d="M4685 2730 c-3 -5 -1 -10 4 -10 6 0 11 5 11 10 0 6 -2 10 -4 10 -3 0
-8 -4 -11 -10z"/>
<path d="M4942 2723 c-8 -3 -10 -9 -3 -16 15 -19 18 -117 4 -117 -7 0 -13 -7
-13 -16 0 -8 -4 -12 -10 -9 -5 3 -10 1 -10 -4 0 -7 -23 -11 -56 -11 -34 0 -53
-4 -49 -10 3 -5 1 -10 -4 -10 -6 0 -11 -4 -11 -8 0 -5 13 -7 30 -4 17 2 27 9
24 14 -5 7 -1 7 11 1 18 -11 65 -6 65 7 0 4 11 18 25 32 21 22 24 32 20 74 -6
54 -9 84 -10 83 0 0 -6 -3 -13 -6z"/>
<path d="M4689 2703 c-3 -23 1 -96 6 -101 3 -3 5 20 5 51 0 32 -2 57 -5 57 -3
0 -5 -3 -6 -7z"/>
<path d="M4060 2691 c0 -6 5 -13 10 -16 6 -3 10 1 10 9 0 9 -4 16 -10 16 -5 0
-10 -4 -10 -9z"/>
<path d="M4231 2674 c0 -11 3 -14 6 -6 3 7 2 16 -1 19 -3 4 -6 -2 -5 -13z"/>
<path d="M3310 2648 c0 -13 -5 -29 -11 -35 -8 -8 -8 -13 0 -17 6 -4 15 4 21
19 13 33 13 42 0 50 -6 3 -10 -4 -10 -17z"/>
<path d="M4104 2650 c0 -10 3 -17 7 -14 7 4 19 -44 20 -85 l0 -26 10 23 c5 15
5 30 -1 42 -6 10 -10 27 -10 38 0 11 -6 24 -13 30 -10 8 -13 6 -13 -8z"/>
<path d="M4049 2653 c-1 -5 -2 -12 -3 -18 0 -5 -7 -21 -14 -34 -10 -17 -11
-26 -3 -34 8 -8 11 -3 11 17 0 15 4 25 10 21 6 -4 10 7 10 24 0 27 -8 44 -11
24z"/>
<path d="M3330 2610 c0 -5 5 -10 11 -10 5 0 7 5 4 10 -3 6 -8 10 -11 10 -2 0
-4 -4 -4 -10z"/>
<path d="M3280 2557 c0 -23 -4 -36 -10 -32 -5 3 -10 -3 -10 -15 0 -12 -4 -18
-10 -15 -6 4 -10 -7 -10 -24 0 -17 -3 -31 -8 -31 -9 0 -32 -73 -25 -80 3 -3 8
1 10 8 3 7 11 19 20 27 8 8 12 15 9 15 -3 0 3 24 15 53 32 83 37 103 28 118
-6 10 -9 2 -9 -24z"/>
<path d="M4318 2579 c-7 -18 12 -99 24 -99 4 0 8 11 8 25 0 14 -4 25 -9 25 -6
0 -11 15 -13 33 -2 21 -5 27 -10 16z"/>
<path d="M4685 2581 c-3 -5 -1 -12 5 -16 5 -3 10 1 10 9 0 18 -6 21 -15 7z"/>
<path d="M3416 2560 c7 -8 14 -24 17 -35 4 -19 5 -19 6 1 0 12 -7 28 -16 35
-16 12 -17 12 -7 -1z"/>
<path d="M2899 2533 c-4 -219 -3 -446 3 -449 4 -3 8 103 8 235 0 133 -2 241
-5 241 -3 0 -5 -12 -6 -27z"/>
<path d="M2930 2549 c0 -5 5 -7 10 -4 6 3 10 8 10 11 0 2 -4 4 -10 4 -5 0 -10
-5 -10 -11z"/>
<path d="M3460 2323 c0 -207 2 -241 15 -239 24 4 28 14 11 31 -19 20 -21 35
-3 35 9 0 12 10 9 31 -3 19 -8 26 -12 19 -4 -6 -8 71 -9 171 -1 101 -4 185 -6
188 -3 2 -5 -104 -5 -236z"/>
<path d="M3383 2535 c-3 -9 -3 -18 -1 -21 3 -3 8 4 11 16 6 23 -1 27 -10 5z"/>
<path d="M3995 2540 c-3 -5 -1 -10 4 -10 6 0 11 -4 11 -10 0 -5 -9 -10 -21
-10 -11 0 -17 -4 -14 -10 3 -5 15 -10 26 -10 14 0 19 7 19 30 0 29 -13 40 -25
20z"/>
<path d="M4150 2512 c0 -24 4 -41 9 -37 5 3 11 -7 13 -22 3 -28 3 -28 9 4 3
20 1 31 -5 30 -6 -1 -10 6 -8 16 2 9 -2 25 -7 35 -8 13 -10 8 -11 -26z"/>
<path d="M4690 2540 c0 -5 7 -10 16 -10 8 0 12 5 9 10 -3 6 -10 10 -16 10 -5
0 -9 -4 -9 -10z"/>
<path d="M4730 2540 c0 -5 11 -10 25 -10 14 0 25 5 25 10 0 6 -11 10 -25 10
-14 0 -25 -4 -25 -10z"/>
<path d="M2952 2510 c0 -19 2 -27 5 -17 2 9 2 25 0 35 -3 9 -5 1 -5 -18z"/>
<path d="M5068 2499 c-20 -22 -41 -38 -46 -35 -6 3 -12 -1 -16 -9 -4 -10 1
-15 14 -15 11 0 20 5 20 11 0 5 5 7 10 4 6 -3 10 -1 10 5 0 6 14 23 30 37 29
24 39 43 22 43 -4 0 -24 -18 -44 -41z"/>
<path d="M3405 2503 c-4 -13 -11 -21 -15 -18 -5 3 -12 0 -16 -6 -5 -8 -3 -9 6
-4 10 6 12 3 8 -13 -4 -12 -2 -25 3 -28 5 -3 9 4 9 15 0 10 5 21 11 23 6 2 9
15 6 28 l-4 25 -8 -22z"/>
<path d="M4358 2484 c-12 -12 -9 -56 6 -83 12 -21 14 -22 20 -5 4 9 2 20 -3
23 -5 4 -11 21 -13 40 -2 18 -6 29 -10 25z"/>
<path d="M2970 2456 c0 -22 3 -27 11 -19 8 8 8 16 0 30 -9 16 -10 14 -11 -11z"/>
<path d="M3980 2460 c-6 -11 -9 -26 -7 -33 3 -7 10 1 16 17 14 35 7 47 -9 16z"/>
<path d="M4192 2425 c0 -16 2 -22 5 -12 2 9 2 23 0 30 -3 6 -5 -1 -5 -18z"/>
<path d="M4968 2443 c7 -3 16 -2 19 1 4 3 -2 6 -13 5 -11 0 -14 -3 -6 -6z"/>
<path d="M4523 2350 c0 -47 2 -66 4 -42 2 23 2 61 0 85 -2 23 -4 4 -4 -43z"/>
<path d="M4730 2415 c0 -8 7 -15 15 -15 8 0 15 4 15 9 0 5 -7 11 -15 15 -9 3
-15 0 -15 -9z"/>
<path d="M2996 2390 c3 -19 10 -39 15 -44 5 -6 9 -20 9 -33 0 -13 5 -23 10
-23 6 0 10 -17 10 -37 0 -28 3 -34 10 -23 8 12 10 8 11 -15 1 -18 3 -23 6 -12
3 10 1 26 -3 35 -4 9 -8 22 -9 27 0 6 -7 20 -13 33 -7 12 -10 27 -7 32 3 5 0
12 -6 15 -5 4 -8 14 -4 23 3 9 3 13 -1 9 -4 -4 -14 5 -21 20 l-13 28 6 -35z"/>
<path d="M3354 2378 c-10 -24 -17 -52 -16 -62 1 -11 -1 -22 -6 -25 -18 -12
-39 -86 -31 -111 6 -21 7 -18 8 18 1 23 6 42 11 42 6 0 10 7 10 16 0 8 5 12
10 9 6 -4 10 12 10 40 0 28 4 44 10 40 6 -3 10 3 10 14 0 12 5 21 10 21 6 0
10 9 10 20 0 33 -17 23 -36 -22z"/>
<path d="M4770 2379 c0 -11 5 -17 10 -14 6 3 10 -2 10 -11 0 -10 3 -15 6 -11
9 9 -5 57 -16 57 -6 0 -10 -9 -10 -21z"/>
<path d="M4977 2394 c-13 -13 -7 -40 13 -62 11 -12 20 -26 20 -32 0 -5 3 -10
8 -10 7 0 21 -29 36 -72 8 -24 26 -23 26 2 0 11 -4 20 -8 20 -5 0 -14 16 -22
35 -8 19 -18 35 -24 35 -5 0 -7 3 -3 6 3 3 -2 14 -11 25 -9 11 -19 29 -22 40
-3 11 -8 17 -13 13z"/>
<path d="M4070 2373 c42 -2 78 -9 82 -16 4 -6 10 -8 13 -5 19 19 -13 28 -88
26 l-82 -2 75 -3z"/>
<path d="M4385 2370 c-9 -14 4 -52 16 -45 12 8 12 42 0 50 -5 3 -12 1 -16 -5z"/>
<path d="M4691 2364 c0 -11 3 -14 6 -6 3 7 2 16 -1 19 -3 4 -6 -2 -5 -13z"/>
<path d="M4813 2319 c-2 -23 3 -25 10 -4 4 8 3 16 -1 19 -4 3 -9 -4 -9 -15z"/>
<path d="M4411 2312 c0 -7 -5 -10 -11 -7 -18 11 -10 -7 11 -26 11 -9 19 -23
18 -31 -4 -26 43 -128 50 -107 2 7 -1 15 -7 17 -7 2 -12 17 -12 33 0 16 -4 29
-10 29 -5 0 -10 14 -10 30 0 17 -4 30 -9 30 -5 0 -12 10 -14 23 -2 12 -5 16
-6 9z"/>
<path d="M4691 2280 c-2 -25 -4 -71 -3 -104 0 -50 -3 -59 -20 -64 -15 -4 -17
-7 -6 -13 18 -12 58 -11 58 1 0 6 -4 10 -10 10 -5 0 -11 47 -13 108 -1 59 -4
87 -6 62z"/>
<path d="M4835 2275 c7 -33 12 -41 21 -33 3 4 -2 19 -11 35 l-16 28 6 -30z"/>
<path d="M4260 2279 c0 -5 5 -7 10 -4 6 3 10 8 10 11 0 2 -4 4 -10 4 -5 0 -10
-5 -10 -11z"/>
<path d="M4030 2263 c0 -7 -18 -11 -50 -10 -27 0 -53 -2 -56 -6 -4 -4 65 -7
154 -7 107 0 162 -4 162 -11 0 -5 5 -7 10 -4 6 4 11 -13 11 -42 1 -26 4 -38 6
-25 2 12 9 22 16 22 8 0 8 3 -1 12 -7 7 -12 20 -12 30 0 10 -7 18 -15 18 -8 0
-15 3 -15 8 0 4 -44 6 -98 6 -63 -1 -100 2 -104 10 -6 8 -8 8 -8 -1z"/>
<path d="M4301 2234 c0 -11 3 -14 6 -6 3 7 2 16 -1 19 -3 4 -6 -2 -5 -13z"/>
<path d="M4867 2244 c-11 -11 -9 -44 3 -44 6 0 10 -7 10 -15 0 -8 6 -12 14 -9
10 4 12 -2 10 -23 -4 -24 -3 -25 5 -8 9 18 10 17 10 -8 1 -16 5 -26 11 -22 6
3 10 -3 10 -15 0 -13 4 -19 12 -14 18 11 207 10 212 -1 3 -5 5 -5 5 2 2 21
-18 25 -122 26 l-102 2 -17 38 c-10 20 -22 37 -28 37 -5 0 -13 14 -17 31 -5
17 -12 27 -16 23z"/>
<path d="M3898 2210 c-7 -24 -3 -38 8 -28 3 4 4 17 2 30 l-3 23 -7 -25z"/>
<path d="M3081 2171 c-1 -38 1 -42 14 -31 10 8 12 17 6 24 -5 6 -11 20 -14 31
-2 11 -5 0 -6 -24z"/>
<path d="M5086 2201 c-10 -15 3 -53 15 -46 5 4 9 1 9 -4 0 -6 -6 -11 -12 -11
-7 0 -5 -5 5 -11 28 -16 30 -5 9 41 -11 25 -22 38 -26 31z"/>
<path d="M3700 2174 c0 -8 5 -12 10 -9 6 4 8 11 5 16 -9 14 -15 11 -15 -7z"/>
<path d="M3280 2161 c0 -15 -4 -20 -12 -15 -7 4 -10 4 -6 -1 13 -14 -17 -32
-65 -38 -26 -4 -47 -3 -47 2 0 5 -6 11 -14 14 -10 4 -12 0 -9 -14 5 -17 15
-19 78 -19 l72 0 7 41 c4 23 4 44 1 47 -3 3 -5 -5 -5 -17z"/>
<path d="M3880 2159 c0 -8 -9 -24 -19 -36 -15 -16 -28 -19 -60 -16 -23 2 -41
0 -41 -6 0 -5 27 -11 60 -13 44 -2 60 0 60 10 0 7 6 21 12 32 10 15 10 22 0
32 -9 9 -12 9 -12 -3z"/>
<path d="M4280 2127 c0 -27 21 -44 47 -39 36 7 38 22 4 22 -33 0 -39 8 -20 27
9 9 7 12 -10 10 -13 -1 -21 -8 -21 -20z"/>
<path d="M3681 2119 c-1 -15 -12 -16 -86 -12 -57 3 -85 1 -85 -6 0 -7 41 -11
120 -11 73 0 120 4 120 10 0 6 -13 10 -29 10 -16 0 -32 6 -34 13 -4 7 -6 6 -6
-4z"/>
<path d="M3096 2113 c-11 -11 -6 -23 9 -23 8 0 15 4 15 9 0 13 -16 22 -24 14z"/>
<path d="M4430 2112 c-25 -2 -49 -7 -54 -13 -6 -5 35 -8 107 -7 64 1 114 5
111 10 -3 5 -27 8 -53 7 -26 -1 -52 0 -57 2 -5 2 -29 3 -54 1z"/>
<path d="M2058 2103 c7 -3 16 -2 19 1 4 3 -2 6 -13 5 -11 0 -14 -3 -6 -6z"/>
<path d="M4620 2100 c-13 -8 -12 -10 3 -10 9 0 17 5 17 10 0 12 -1 12 -20 0z"/>
<path d="M423 1953 c15 -2 39 -2 55 0 15 2 2 4 -28 4 -30 0 -43 -2 -27 -4z"/>
<path d="M578 1953 c12 -2 32 -2 45 0 12 2 2 4 -23 4 -25 0 -35 -2 -22 -4z"/>
<path d="M1698 1953 c12 -2 32 -2 45 0 12 2 2 4 -23 4 -25 0 -35 -2 -22 -4z"/>
<path d="M5041 1555 c-1 -101 2 -155 9 -155 6 0 10 25 10 61 0 69 13 89 59 89
l31 0 0 -75 c0 -68 2 -75 20 -75 18 0 20 7 20 65 0 37 -4 65 -10 65 -5 0 -10
9 -10 21 0 11 -4 17 -10 14 -5 -3 -10 -1 -10 4 0 17 -60 13 -66 -4 -14 -36
-24 -9 -24 65 0 44 -4 80 -9 80 -5 0 -10 -70 -10 -155z"/>
<path d="M578 1693 c-16 -4 -18 -20 -18 -149 0 -137 1 -144 20 -144 19 0 20 7
20 150 0 83 -1 149 -2 149 -2 -1 -11 -3 -20 -6z"/>
<path d="M1748 1548 c-3 -142 -2 -148 17 -148 18 0 20 6 17 60 -4 67 9 90 51
90 31 0 37 -16 37 -91 0 -41 4 -59 13 -59 19 0 13 146 -7 165 -16 17 -76 20
-76 5 0 -5 -4 -10 -10 -10 -6 0 -10 29 -10 68 0 53 -3 69 -15 69 -11 0 -15
-27 -17 -149z"/>
<path d="M255 1670 c-16 -7 -17 -9 -3 -9 9 -1 20 4 23 9 7 11 7 11 -20 0z"/>
<path d="M330 1658 c0 -6 -3 -9 -6 -5 -3 3 -21 -10 -40 -28 -30 -31 -34 -40
-34 -90 0 -47 4 -60 29 -85 15 -17 33 -30 40 -30 6 0 11 -4 11 -10 0 -5 25
-10 56 -10 34 0 53 4 49 10 -3 6 1 10 10 10 19 0 45 23 45 39 0 6 5 11 10 11
6 0 10 9 10 20 0 11 5 20 10 20 6 0 10 5 10 10 0 6 -32 10 -75 10 -68 0 -75
-2 -75 -20 0 -11 5 -20 11 -20 5 0 7 5 4 10 -4 6 13 10 44 10 31 0 51 -4 51
-11 0 -17 -52 -59 -72 -59 -9 0 -19 -6 -22 -12 -5 -10 -7 -10 -12 0 -3 6 -16
12 -28 12 -34 0 -66 33 -66 66 0 22 -3 26 -10 14 -7 -11 -10 -6 -10 20 0 26 3
31 10 20 8 -12 10 -11 10 8 0 40 43 73 97 74 27 0 49 -4 51 -11 2 -6 10 -11
18 -11 8 0 14 -4 14 -10 0 -5 5 -10 10 -10 6 0 10 8 10 18 0 10 -16 24 -39 35
-43 19 -121 23 -121 5z"/>
<path d="M1530 1620 c0 -13 7 -20 18 -20 11 0 18 8 19 20 1 14 -4 20 -18 20
-12 0 -19 -7 -19 -20z"/>
<path d="M1640 1610 c0 -23 -4 -30 -20 -30 -13 0 -20 -7 -20 -19 0 -14 5 -18
20 -14 19 5 20 0 20 -71 0 -66 2 -76 18 -76 15 0 17 9 14 76 -4 74 -3 77 17
71 16 -4 21 0 21 14 0 13 -7 19 -21 19 -18 0 -21 5 -17 30 4 24 1 30 -14 30
-13 0 -18 -8 -18 -30z"/>
<path d="M4810 1633 c0 -5 4 -14 9 -22 8 -12 12 -12 25 2 22 22 20 27 -9 27
-14 0 -25 -3 -25 -7z"/>
<path d="M4930 1610 c0 -25 -4 -30 -25 -30 -16 0 -25 -6 -25 -15 0 -9 9 -15
25 -15 24 0 25 -2 25 -75 0 -53 4 -75 13 -75 9 0 11 20 9 76 -4 74 -3 77 17
71 16 -4 21 0 21 15 0 16 -5 19 -21 15 -19 -5 -21 -2 -17 29 3 23 0 34 -9 34
-8 0 -13 -12 -13 -30z"/>
<path d="M497 1606 c-4 -10 -5 -21 -2 -24 9 -9 17 6 13 25 -3 17 -4 17 -11 -1z"/>
<path d="M690 1568 c0 -6 -3 -9 -6 -5 -14 13 -36 -26 -37 -66 -2 -59 34 -97
93 -97 25 0 39 4 35 10 -3 6 1 10 9 10 9 0 16 9 16 21 0 11 5 17 10 14 6 -4
10 10 10 34 0 23 -4 41 -10 41 -5 0 -10 5 -10 11 0 7 -8 18 -17 25 -22 17 -93
18 -93 2z m85 -38 c3 -11 11 -20 16 -20 5 0 9 -9 9 -21 0 -11 -4 -18 -9 -15
-5 3 -11 -3 -14 -14 -4 -15 -14 -20 -40 -20 -55 0 -67 8 -67 46 0 46 17 63 62
64 28 0 38 -5 43 -20z"/>
<path d="M846 1558 c3 -13 11 -24 15 -26 5 -2 9 -15 9 -28 0 -14 4 -22 10 -19
6 4 10 -5 10 -19 0 -14 5 -26 10 -26 6 0 10 -9 10 -20 0 -13 7 -20 20 -20 11
0 19 3 18 8 -1 4 1 28 6 55 5 32 12 47 22 47 8 0 12 -4 9 -10 -3 -5 -1 -10 4
-10 6 0 11 -11 11 -25 0 -14 5 -25 10 -25 6 0 10 -9 10 -20 0 -14 7 -20 21
-20 11 0 17 4 14 11 -8 12 33 119 46 119 5 0 9 11 9 25 0 18 -5 25 -20 25 -14
0 -20 -7 -20 -22 0 -25 -31 -97 -42 -98 -5 0 -8 11 -8 25 0 14 -4 25 -10 25
-5 0 -10 14 -10 31 0 17 -4 28 -10 24 -5 -3 -10 -1 -10 4 0 6 -4 11 -9 11 -5
0 -12 -20 -15 -45 -4 -25 -11 -45 -17 -45 -5 0 -9 -9 -9 -21 0 -11 -4 -17 -10
-14 -5 3 -10 17 -10 31 0 13 -4 24 -10 24 -5 0 -10 11 -10 25 0 14 -5 25 -11
25 -5 0 -7 5 -4 10 3 6 -3 10 -15 10 -18 0 -20 -4 -14 -22z"/>
<path d="M1240 1555 c0 -14 4 -25 8 -25 5 0 9 -6 10 -12 5 -44 16 -78 23 -78
5 0 9 -9 9 -20 0 -13 7 -20 20 -20 16 0 20 7 20 31 0 17 4 28 10 24 6 -4 10 7
10 24 0 17 -4 31 -10 31 -5 0 -10 -9 -10 -20 0 -13 -7 -20 -20 -20 -13 0 -20
7 -20 20 0 11 -4 20 -8 20 -4 0 -9 12 -10 26 -4 47 -32 64 -32 19z"/>
<path d="M1350 1543 c0 -23 5 -33 15 -33 10 0 15 10 15 33 0 23 -5 34 -15 34
-10 0 -15 -11 -15 -34z"/>
<path d="M1462 1551 c-6 -16 -8 -32 -5 -35 4 -3 1 -6 -5 -6 -6 0 -12 -10 -14
-22 -2 -16 -9 -22 -20 -20 -14 2 -18 -4 -18 -33 0 -28 4 -35 20 -35 13 0 20 7
20 19 0 10 7 32 15 47 8 16 15 37 15 47 0 9 4 17 9 17 5 0 11 11 13 25 7 36
-18 32 -30 -4z"/>
<path d="M1530 1490 c0 -83 1 -90 20 -90 19 0 20 7 20 90 0 83 -1 90 -20 90
-19 0 -20 -7 -20 -90z"/>
<path d="M2058 1500 c2 -44 8 -80 13 -80 6 0 7 -4 4 -10 -4 -6 10 -10 34 -10
23 0 41 5 41 10 0 6 10 10 23 9 21 0 21 -1 2 -9 -19 -8 -19 -9 3 -9 21 -1 22
2 22 89 0 73 -3 90 -15 90 -17 0 -17 -3 -15 -77 1 -30 -3 -53 -9 -53 -5 0 -17
-8 -27 -17 -13 -13 -19 -14 -22 -5 -2 7 -8 10 -13 6 -8 -4 -15 63 -10 90 4 20
-10 56 -22 56 -9 0 -11 -22 -9 -80z"/>
<path d="M2253 1565 c-16 -17 -17 -55 -2 -55 5 0 7 -4 4 -10 -3 -5 3 -10 14
-10 12 0 21 -4 21 -10 0 -5 9 -10 20 -10 15 0 20 -7 20 -25 0 -19 -5 -25 -23
-25 -12 0 -29 9 -37 20 -17 24 -30 26 -30 4 0 -26 27 -44 65 -44 45 0 66 20
63 59 -2 27 -6 31 -31 31 -16 0 -26 4 -22 10 3 6 -5 10 -18 10 -29 0 -42 24
-22 40 15 13 55 5 55 -11 0 -5 9 -9 20 -9 11 0 20 5 20 11 0 5 -4 7 -10 4 -5
-3 -10 0 -10 8 0 28 -75 38 -97 12z"/>
<path d="M2550 1569 c0 -5 -4 -7 -10 -4 -5 3 -10 -1 -10 -10 0 -9 -4 -13 -10
-10 -5 3 -10 -3 -10 -14 0 -12 -4 -21 -10 -21 -5 0 -10 -9 -10 -20 0 -11 5
-20 10 -20 6 0 10 -9 10 -21 0 -11 3 -18 8 -16 4 3 12 -1 19 -8 10 -11 10 -15
0 -18 -7 -3 9 -6 36 -6 26 -1 47 4 47 9 0 6 10 10 23 10 18 0 19 -2 7 -10 -12
-8 -11 -10 8 -10 21 0 22 3 22 90 0 53 -4 90 -10 90 -5 0 -10 -4 -10 -10 0 -5
-9 -10 -20 -10 -11 0 -20 5 -20 10 0 6 -16 10 -35 10 -19 0 -35 -5 -35 -11z
m76 -33 c7 -8 14 -23 14 -33 0 -15 2 -16 10 -3 8 12 10 11 10 -7 0 -13 -4 -23
-10 -23 -5 0 -10 -7 -10 -16 0 -8 -4 -13 -9 -9 -5 3 -17 -2 -25 -11 -17 -17
-24 -14 -63 23 -15 14 -18 77 -3 68 6 -3 10 0 10 7 0 19 58 22 76 4z"/>
<path d="M2743 1573 c-7 -2 -13 -11 -13 -19 0 -9 -4 -12 -10 -9 -15 10 -12
-25 4 -41 8 -8 24 -14 35 -14 12 0 21 -4 21 -10 0 -5 9 -10 20 -10 23 0 26
-16 6 -36 -17 -17 -36 -18 -36 -3 0 5 -4 7 -10 4 -5 -3 -10 1 -10 9 0 9 -8 14
-20 13 -11 -1 -20 -7 -20 -15 0 -27 28 -42 79 -42 l51 0 0 45 c0 42 -2 45 -26
45 -14 0 -23 4 -19 10 4 6 -5 10 -19 10 -19 0 -26 5 -26 19 0 25 31 37 46 17
16 -23 44 -20 44 5 0 11 -4 17 -10 14 -5 -3 -10 -1 -10 4 0 11 -54 14 -77 4z"/>
<path d="M2970 1571 c0 -6 5 -13 10 -16 6 -4 8 -10 5 -15 -3 -5 -1 -11 5 -15
5 -3 10 -17 10 -31 0 -13 5 -24 10 -24 6 0 10 -7 10 -15 0 -8 5 -15 10 -15 6
0 10 -13 10 -30 0 -16 5 -30 11 -30 5 0 8 4 4 9 -3 5 1 15 8 23 12 12 26 51
29 86 2 22 14 13 28 -23 8 -19 17 -35 22 -35 4 0 8 -9 8 -20 0 -30 29 -24 35
8 3 15 12 40 20 55 8 16 15 38 15 48 0 11 5 17 10 14 6 -3 10 3 10 14 0 14 -6
21 -19 21 -15 0 -20 -10 -25 -45 -4 -25 -7 -47 -6 -50 1 -7 -26 -35 -34 -35
-3 0 -6 11 -6 25 0 14 -8 34 -17 45 -10 11 -21 30 -24 43 -5 18 -9 14 -20 -25
-7 -27 -17 -48 -21 -48 -4 0 -8 -9 -8 -21 0 -11 -4 -17 -10 -14 -5 3 -10 17
-10 31 0 13 -4 24 -10 24 -5 0 -10 8 -10 18 -1 32 -50 74 -50 43z"/>
<path d="M3297 1562 c-11 -12 -17 -36 -17 -64 0 -61 8 -78 34 -78 17 0 18 -2
6 -10 -11 -7 -3 -10 28 -10 32 0 49 6 67 24 18 18 21 26 11 29 -8 3 -17 2 -22
-3 -15 -15 -81 -15 -95 1 -18 18 -19 70 -3 87 33 32 116 1 95 -35 -6 -10 -11
-12 -11 -5 0 7 -15 12 -41 12 -33 0 -40 -3 -37 -17 4 -21 74 -31 91 -14 6 6
16 11 22 11 5 0 3 -5 -5 -10 -13 -8 -12 -10 3 -10 12 0 17 8 17 30 0 17 -4 30
-10 30 -5 0 -10 5 -10 11 0 37 -94 53 -123 21z"/>
<path d="M3611 1554 c-23 -30 -30 -114 -9 -114 6 0 9 -3 5 -6 -3 -4 0 -13 8
-20 16 -16 100 -20 90 -4 -3 6 1 10 9 10 24 0 19 -43 -7 -68 -25 -23 -52 -28
-62 -12 -4 6 -11 8 -16 5 -5 -4 -9 3 -9 14 0 14 -6 21 -19 21 -26 0 -21 -27
10 -51 32 -25 90 -25 109 0 7 11 17 18 22 15 4 -3 8 49 8 115 0 74 -4 121 -10
121 -5 0 -10 -6 -10 -14 0 -8 -6 -18 -12 -22 -7 -4 -10 -4 -6 1 14 15 -14 35
-47 35 -24 0 -39 -7 -54 -26z m89 -14 c0 -5 7 -10 16 -10 24 0 15 -70 -11 -84
-11 -6 -24 -15 -28 -21 -6 -6 -10 -6 -14 3 -2 6 -13 12 -24 12 -13 0 -20 8
-21 23 -2 37 2 60 13 74 13 15 69 18 69 3z"/>
<path d="M3820 1490 c0 -53 4 -90 10 -90 6 0 10 25 10 55 0 30 5 55 10 55 6 0
10 10 10 21 0 17 5 20 25 17 19 -4 25 -1 25 13 0 22 -45 27 -54 7 -5 -10 -7
-10 -12 0 -15 32 -24 4 -24 -78z"/>
<path d="M3970 1569 c0 -5 -4 -7 -10 -4 -5 3 -10 -3 -10 -15 0 -12 -4 -18 -10
-15 -6 4 -10 -13 -10 -45 0 -32 4 -49 10 -45 6 3 10 1 10 -5 0 -22 29 -40 65
-40 51 0 85 36 85 90 0 56 -34 90 -90 90 -22 0 -40 -5 -40 -11z m83 -33 c8 -8
17 -12 21 -9 3 4 6 -10 6 -31 0 -22 -4 -35 -10 -31 -5 3 -10 -1 -10 -9 0 -16
-31 -24 -67 -18 -13 3 -23 11 -23 18 0 8 -4 14 -10 14 -5 0 -10 12 -10 26 0
14 4 23 10 19 9 -5 14 6 12 26 -1 12 67 8 81 -5z"/>
<path d="M4130 1559 c0 -11 5 -17 10 -14 6 4 10 -7 10 -24 0 -17 5 -31 10 -31
6 0 10 -9 10 -21 0 -11 5 -17 10 -14 6 4 10 -5 10 -20 0 -15 7 -33 15 -41 13
-14 15 -11 15 21 0 22 4 34 10 30 6 -3 10 3 10 14 0 30 11 51 26 51 8 0 14
-10 14 -26 0 -14 4 -23 10 -19 6 4 10 -7 10 -25 0 -17 7 -38 15 -46 13 -14 15
-12 15 15 0 17 5 31 10 31 6 0 10 9 10 21 0 11 5 17 10 14 6 -4 10 7 10 24 0
17 5 31 10 31 6 0 10 9 10 19 0 11 6 22 13 24 6 3 2 6 -10 6 -15 1 -23 -5 -23
-15 0 -8 -4 -12 -10 -9 -6 4 -10 -5 -10 -19 0 -14 -4 -26 -10 -26 -5 0 -10
-14 -10 -31 0 -27 -2 -30 -15 -19 -8 7 -15 25 -15 41 0 16 -4 29 -10 29 -5 0
-10 11 -10 25 0 19 -5 25 -22 25 -19 0 -20 -2 -8 -10 10 -6 11 -10 3 -10 -7 0
-13 -11 -13 -25 0 -14 -4 -25 -10 -25 -5 0 -10 -11 -10 -25 0 -18 -4 -23 -15
-19 -9 4 -15 19 -15 36 0 17 -4 27 -10 23 -6 -4 -10 7 -10 24 0 24 -4 31 -20
31 -14 0 -20 -7 -20 -21z"/>
<path d="M4510 1565 c0 -8 5 -15 10 -15 6 0 10 -15 10 -32 0 -25 3 -29 10 -18
8 12 10 9 10 -13 0 -16 4 -26 10 -22 6 3 10 19 10 36 0 16 -4 29 -10 29 -5 0
-10 11 -10 25 0 18 -5 25 -20 25 -11 0 -20 -7 -20 -15z"/>
<path d="M4640 1566 c0 -7 -7 -27 -15 -42 -8 -16 -15 -37 -15 -46 0 -9 -4 -20
-10 -23 -5 -3 -10 -1 -10 4 0 6 -4 11 -10 11 -15 0 -12 -47 3 -53 9 -4 9 -6
-1 -6 -10 -1 -10 -4 2 -16 16 -16 27 -20 24 -7 -4 16 14 82 22 82 6 0 10 9 10
20 0 11 5 20 10 20 6 0 10 -9 10 -20 0 -11 5 -20 10 -20 6 0 10 -11 10 -25 0
-14 5 -25 10 -25 6 0 9 -3 9 -7 -3 -19 2 -33 11 -33 6 0 9 3 8 8 -4 16 14 82
22 82 6 0 10 9 10 20 0 11 5 20 10 20 6 0 10 14 10 31 0 17 4 28 10 24 6 -3
10 -1 10 4 0 6 -9 11 -20 11 -13 0 -20 -7 -20 -19 0 -11 -4 -22 -9 -25 -5 -3
-12 -21 -15 -41 -7 -35 -26 -58 -26 -31 0 9 -4 16 -10 16 -5 0 -10 11 -10 25
0 14 -4 25 -10 25 -5 0 -10 11 -10 25 0 14 -4 25 -10 25 -5 0 -10 -6 -10 -14z"/>
<path d="M4821 1490 c1 -59 6 -90 13 -90 10 0 11 46 6 173 0 4 -5 7 -11 7 -6
0 -9 -33 -8 -90z"/>
<path d="M5318 1568 c-3 -7 1 -19 9 -26 7 -8 11 -18 8 -23 -4 -5 -1 -9 4 -9 6
0 11 -9 11 -20 0 -11 5 -20 10 -20 6 0 10 -21 10 -46 0 -27 -4 -43 -10 -39 -6
3 -10 -4 -10 -17 0 -13 -5 -29 -11 -35 -6 -6 -8 -16 -4 -23 9 -14 35 6 35 26
0 8 5 14 10 14 6 0 10 11 10 25 0 14 5 25 10 25 6 0 10 9 10 20 0 11 4 20 10
20 5 0 12 16 16 35 3 19 10 35 15 35 5 0 9 14 9 31 0 17 4 28 10 24 6 -3 10
-1 10 4 0 6 -8 11 -19 11 -14 0 -21 -10 -25 -35 -4 -19 -11 -35 -16 -35 -6 0
-10 -9 -10 -20 0 -11 -3 -20 -6 -20 -13 0 -34 30 -34 50 0 12 -4 18 -10 15 -6
-4 -10 5 -10 19 0 27 -25 37 -32 14z m69 -140 c-3 -8 -6 -5 -6 6 -1 11 2 17 5
13 3 -3 4 -12 1 -19z"/>
<path d="M5528 1562 c-24 -14 -28 -23 -28 -65 0 -61 31 -97 85 -97 22 0 34 4
30 10 -3 6 -1 10 5 10 42 0 57 103 20 140 -25 25 -75 26 -112 2z m96 -23 c-2
-4 0 -10 6 -14 12 -8 13 -55 1 -73 -11 -18 -75 -19 -96 -2 -20 16 -17 70 5 87
16 13 92 15 84 2z"/>
<path d="M5724 1503 c2 -43 6 -84 7 -90 3 -15 79 -18 79 -3 0 6 5 10 11 10 5
0 7 -4 4 -10 -3 -6 4 -10 17 -10 23 0 23 2 20 90 -3 70 -7 90 -18 90 -11 0
-14 -16 -14 -70 0 -62 -2 -70 -19 -70 -11 0 -22 -6 -25 -12 -3 -9 -11 -6 -25
11 -16 18 -21 37 -21 82 0 36 -4 59 -11 59 -7 0 -9 -26 -5 -77z"/>
<path d="M3763 1485 c0 -27 2 -38 4 -22 2 15 2 37 0 50 -2 12 -4 0 -4 -28z"/>
<path d="M1380 1490 c0 -11 5 -20 10 -20 6 0 10 9 10 20 0 11 -4 20 -10 20 -5
0 -10 -9 -10 -20z"/>
<path d="M3261 1494 c0 -11 3 -14 6 -6 3 7 2 16 -1 19 -3 4 -6 -2 -5 -13z"/>
<path d="M1600 1400 c8 -5 20 -10 25 -10 6 0 3 5 -5 10 -8 5 -19 10 -25 10 -5
0 -3 -5 5 -10z"/>
<path d="M3761 1394 c0 -11 3 -14 6 -6 3 7 2 16 -1 19 -3 4 -6 -2 -5 -13z"/>
<path d="M1578 1373 c7 -3 16 -2 19 1 4 3 -2 6 -13 5 -11 0 -14 -3 -6 -6z"/>
</g>
</svg>
